<svg xmlns="http://www.w3.org/2000/svg" version="1.2" baseProfile="tiny" viewBox="0 0 512 512"><path fill="#FFF" d="M422.3 477.9c0 7.6-6.2 13.8-13.8 13.8h-305c-7.6 0-13.8-6.2-13.8-13.8V34.1c0-7.6 6.2-13.8 13.8-13.8h230.1V109h88.7v368.9z"/><path fill="#DE3258" d="M333.6 6H103.5C88 6 75.4 18.6 75.4 34.1v443.8c0 15.5 12.6 28.1 28.1 28.1h305c15.5 0 28.1-12.6 28.1-28.1V109.1L333.6 6zm88.7 471.9c0 7.6-6.2 13.8-13.8 13.8h-305c-7.6 0-13.8-6.2-13.8-13.8V34.1c0-7.6 6.2-13.8 13.8-13.8h230.1V109h88.7v368.9z"/><path fill="#B31647" d="M333.6 6v103.1h103z"/><g><path fill="#B31647" d="M465.9 450.8H46.1V308c0-9.8 7.9-17.7 17.7-17.7h384.3c9.8 0 17.7 7.9 17.7 17.7v142.8z"/><path fill="#770438" d="M436.6 450.8v19.5l29.3-19.5zM75.4 450.8v19.5l-29.3-19.5z"/><path fill="#DE3258" d="M64.1 308.4h383.7v124.5H64.1z"/></g><g fill="#DE3258"><path d="M298.3 78.6h-177a6.7 6.7 0 010-13.4h177a6.7 6.7 0 010 13.4zM298.3 110.6h-177a6.7 6.7 0 010-13.4h177a6.7 6.7 0 010 13.4zM391.8 142.5H121.3a6.7 6.7 0 010-13.4h270.5a6.7 6.7 0 010 13.4zM391.8 174.5H121.3a6.7 6.7 0 010-13.4h270.5a6.7 6.7 0 010 13.4zM391.8 206.5H121.3a6.7 6.7 0 010-13.4h270.5a6.7 6.7 0 010 13.4zM391.8 238.4H121.3a6.7 6.7 0 010-13.4h270.5a6.7 6.7 0 010 13.4zM391.8 270.4H121.3a6.7 6.7 0 010-13.4h270.5a6.7 6.7 0 010 13.4z"/></g><g fill="#FFF"><path d="M184.5 389.4c2.9 0 5-.8 6.4-2.3 1.4-1.6 2.1-3.8 2.1-6.8h19.2l.1.4c.2 7.4-2.4 13.3-7.6 18-5.3 4.6-12 7-20.2 7-10.3 0-18.2-3.2-23.7-9.5s-8.3-14.6-8.3-24.8V370c0-10.1 2.8-18.4 8.3-24.7 5.5-6.4 13.4-9.5 23.6-9.5 8.6 0 15.4 2.4 20.5 7.1 5.1 4.8 7.6 11.3 7.4 19.5l-.1.4H193c0-3.2-.7-5.8-2.2-7.8-1.5-2-3.6-3-6.5-3-4.1 0-6.9 1.6-8.5 4.9-1.6 3.3-2.4 7.7-2.4 13.2v1.4c0 5.7.8 10.1 2.4 13.3 1.6 3 4.5 4.6 8.7 4.6zM265 385.3c0-1.7-.9-3.1-2.8-4.5-1.9-1.3-5.3-2.5-10.3-3.5-7.9-1.5-13.8-3.9-17.8-7.1-4-3.2-6-7.7-6-13.3 0-5.9 2.5-11 7.5-15.1s11.7-6.2 20.3-6.2c9 0 16.1 2 21.4 6 5.3 4 7.9 9.2 7.6 15.6l-.1.4h-20.4c0-2.7-.7-4.7-2-6-1.3-1.4-3.5-2.1-6.5-2.1-2.2 0-4.1.6-5.5 1.8-1.5 1.2-2.2 2.7-2.2 4.6 0 1.8.9 3.3 2.6 4.6 1.7 1.2 5.2 2.4 10.4 3.4 8.3 1.6 14.4 4 18.3 7.3 3.9 3.2 5.9 7.8 5.9 13.7 0 6.1-2.7 11.1-8.1 15-5.4 3.9-12.5 5.9-21.3 5.9-9.2 0-16.4-2.3-21.8-7-5.3-4.7-7.9-9.8-7.6-15.6l.1-.4h19.1c.1 3.2 1 5.5 2.9 6.9 1.8 1.4 4.5 2.1 7.9 2.1 2.8 0 5-.6 6.4-1.7 1.3-1.2 2-2.7 2-4.8zM339.3 385.3c0-1.7-.9-3.1-2.8-4.5-1.9-1.3-5.3-2.5-10.3-3.5-7.9-1.5-13.8-3.9-17.8-7.1-4-3.2-6-7.7-6-13.3 0-5.9 2.5-11 7.5-15.1s11.7-6.2 20.3-6.2c9 0 16.1 2 21.4 6 5.3 4 7.9 9.2 7.6 15.6l-.1.4h-20.4c0-2.7-.7-4.7-2-6-1.3-1.4-3.5-2.1-6.5-2.1-2.2 0-4.1.6-5.5 1.8-1.5 1.2-2.2 2.7-2.2 4.6 0 1.8.9 3.3 2.6 4.6 1.7 1.2 5.2 2.4 10.4 3.4 8.3 1.6 14.4 4 18.3 7.3 3.9 3.2 5.9 7.8 5.9 13.7 0 6.1-2.7 11.1-8.1 15-5.4 3.9-12.5 5.9-21.3 5.9-9.2 0-16.4-2.3-21.8-7-5.3-4.7-7.9-9.8-7.6-15.6l.1-.4h19.1c.1 3.2 1 5.5 2.9 6.9 1.8 1.4 4.5 2.1 7.9 2.1 2.8 0 5-.6 6.4-1.7 1.3-1.2 2-2.7 2-4.8z"/></g></svg>