<svg xmlns="http://www.w3.org/2000/svg"  viewBox="0 0 40 40" width="40px" height="40px"><path fill="#e8d47b" d="M31,24.5c-1.93,0-3.5-1.57-3.5-3.5s1.57-3.5,3.5-3.5c2.519,0,3.5,0.607,3.5,2.167 C34.5,21.777,32.803,24.5,31,24.5z"/><path fill="#ba9b48" d="M31,18c2.771,0,3,0.788,3,1.667C34,21.479,32.488,24,31,24c-1.654,0-3-1.346-3-3S29.346,18,31,18 M31,17c-2.209,0-4,1.791-4,4s1.791,4,4,4s4-3.124,4-5.333S33.209,17,31,17L31,17z"/><path fill="#e8d47b" d="M9,24.5c-1.803,0-3.5-2.723-3.5-4.833c0-1.56,0.981-2.167,3.5-2.167c1.93,0,3.5,1.57,3.5,3.5 S10.929,24.5,9,24.5z"/><path fill="#ba9b48" d="M9,18c1.654,0,3,1.346,3,3s-1.346,3-3,3c-1.488,0-3-2.521-3-4.333C6,18.788,6.229,18,9,18 M9,17 c-2.209,0-4,0.458-4,2.667S6.791,25,9,25s4-1.791,4-4S11.209,17,9,17L9,17z"/><path fill="#ffeea3" d="M20,37.5c-5.589,0-11.5-7.118-11.5-10.946V13.5h23v13.054C31.5,30.382,25.589,37.5,20,37.5z"/><path fill="#ba9b48" d="M31,14v12.554C31,30.207,25.346,37,20,37S9,30.207,9,26.554V14H31 M32,13H8v13.554 C8,30.733,14.109,38,20,38s12-7.267,12-11.446V13L32,13z"/><path fill="#839cb2" d="M20,15.429c-15.46,0-18.173-3.079-18.5-3.558V11.5h6.952l1-10h21.096l1,10H38.5v0.383 C38.227,12.301,35.661,15.429,20,15.429z"/><path fill="#66798f" d="M30.095,2l0.91,9.1l0.09,0.9H32h5.686c-1.113,0.888-5.048,2.929-17.686,2.929 C7.456,14.929,3.475,12.898,2.329,12H8h0.905l0.09-0.9L9.905,2H20.01H30.095 M31,1c0,0-7.1,0-10.99,0S9,1,9,1L8,11H1v1 c0,0,1.442,3.929,19,3.929C37.643,15.929,39,12,39,12v-1h-7L31,1L31,1z"/><path fill="#839cb2" d="M24,23.5c-0.692,0-1.357-0.421-1.735-1.1l-1.074-3.244l-0.028-0.047 c-0.229-0.38-0.648-0.617-1.096-0.617c-0.452,0-0.843,0.243-1.047,0.65c-0.641,1.191-1.297,3.262-1.324,3.35 C17.441,23.054,16.721,23.5,16,23.5h-4.071c-0.758,0-1.387-0.464-1.603-1.182L8.5,17.901V17.5h23v0.4l-1.81,4.37 c-0.232,0.766-0.861,1.229-1.619,1.229H24z"/><path fill="#66798f" d="M30.918 18l-1.689 4.079-.019.047-.015.048C29.044 22.676 28.603 23 28.071 23H24c-.488 0-.962-.293-1.255-.771l-1.062-3.179-.035-.104-.056-.094c-.291-.484-.803-.801-1.364-.852H30.918M19.905 18c-.576.053-1.066.386-1.319.893-.614 1.139-1.227 3.008-1.348 3.385C17.03 22.692 16.507 23 16 23h-4.071c-.532 0-.973-.324-1.123-.825l-.015-.048-.019-.047L9.082 18H19.905M32 17H8v1l1.848 4.462C10.119 23.367 10.933 24 11.929 24H16c.905 0 1.81-.543 2.171-1.357 0 0 .662-2.1 1.296-3.276.13-.259.362-.374.6-.374.26 0 .525.138.667.374l1.095 3.276C22.281 23.457 23.095 24 24 24h4.071c.995 0 1.81-.633 2.081-1.538L32 18V17L32 17zM9 7H31V8H9z"/><path fill="#ba9b48" d="M15 30H25V31H15z"/><g><path fill="#e0ac89" d="M18.6,38.5c-5.042,0-5.1-4.636-5.1-4.833V31c0-1.93,1.66-3.5,3.7-3.5h5.6c2.04,0,3.7,1.57,3.7,3.5 v2.667c-0.003,0.191-0.131,4.833-5.1,4.833H18.6z M20.5,35.694l4-1.333V31c0-1.038-0.463-1.5-1.5-1.5h-6 c-1.037,0-1.5,0.462-1.5,1.5v3.36l4,1.333V31.5h1V35.694z"/><path fill="#b08159" d="M22.8,28c1.764,0,3.2,1.346,3.2,3l0,2.656C25.998,33.833,25.901,38,21.4,38h-2.8 c-4.432,0-4.596-3.894-4.6-4.333V31c0-1.654,1.436-3,3.2-3H22.8 M20,36.387l1.316-0.439l3-1L25,34.721V34v-3c0-1.653-1.088-2-2-2 h-6c-0.912,0-2,0.347-2,2v3v0.721l0.684,0.228l3,1L20,36.387 M22.8,27h-5.6c-2.31,0-4.2,1.8-4.2,4v2.667c0,0,0,5.333,5.6,5.333h2.8 c5.542,0,5.6-5.333,5.6-5.333V31C27,28.8,25.11,27,22.8,27L22.8,27z M19,35l-3-1v-3c0-0.736,0.227-1,1-1h6c0.773,0,1,0.264,1,1v3 l-3,1v-4h-2V35L19,35z"/></g><path fill="#66798f" d="M8 11H32V12H8z"/><path fill="#bae0bd" d="M30.695 8L9.305 8 9.005 11 30.995 11z"/><g><path fill="#5e9c76" d="M9.305 8L8.3 8 8 11 9.005 11zM30.995 11L32 11 31.7 8 30.695 8z"/></g></svg>