<svg xmlns="http://www.w3.org/2000/svg"  viewBox="0 0 40 40" width="40px" height="40px"><path fill="#f5ce85" d="M20,38.5c-11.158,0-14.53-1.913-15.355-2.567c0.867-1.375,3.747-6.599,3.853-15.433h8.328 c0.241,1.536,1.573,2.714,3.175,2.714s2.935-1.179,3.175-2.714h8.328c0.105,8.839,2.989,14.064,3.854,15.436 C34.548,36.577,31.188,38.5,20,38.5z"/><path fill="#967a44" d="M31.012,21c0.19,7.942,2.6,12.943,3.673,14.789C33.493,36.508,29.833,38,20,38 S6.507,36.508,5.315,35.789C6.388,33.943,8.798,28.942,8.988,21h7.434c0.438,1.564,1.876,2.714,3.578,2.714s3.14-1.15,3.578-2.714 H31.012 M32,20h-9.286c0,1.499-1.215,2.714-2.714,2.714S17.286,21.499,17.286,20H8c0,10.461-4,16-4,16s1.92,3,16,3s16-3,16-3 S32,30.461,32,20L32,20z"/><path fill="#ffdea3" d="M20,38.5c-1.593,0-3.098-0.784-4.024-2.098l-0.079-0.112l-0.125-0.056 c-2.516-1.128-4.263-3.321-5.193-6.519c0.583-2.598,0.893-5.695,0.919-9.216h5.327c0.241,1.536,1.573,2.714,3.175,2.714 s2.935-1.179,3.175-2.714h5.327c0.026,3.521,0.335,6.618,0.919,9.216c-0.93,3.198-2.677,5.39-5.193,6.519l-0.125,0.056 l-0.079,0.112C23.098,37.716,21.593,38.5,20,38.5z"/><path fill="#967a44" d="M28.008,21c0.05,3.295,0.351,6.215,0.897,8.698c-0.896,2.984-2.538,5.029-4.881,6.08l-0.25,0.112 l-0.158,0.224C22.782,37.295,21.431,38,20,38s-2.782-0.705-3.615-1.886l-0.158-0.224l-0.25-0.112 c-2.344-1.051-3.985-3.096-4.881-6.08c0.546-2.482,0.847-5.403,0.897-8.698h4.43c0.438,1.564,1.876,2.714,3.578,2.714 s3.14-1.15,3.578-2.714H28.008 M29,20h-6.286c0,1.499-1.215,2.714-2.714,2.714S17.286,21.499,17.286,20H11 c0,4.204-0.394,7.365-0.937,9.73c0.878,3.11,2.597,5.657,5.505,6.96C16.55,38.084,18.165,39,20,39s3.45-0.916,4.432-2.31 c2.908-1.304,4.626-3.85,5.505-6.96C29.394,27.365,29,24.204,29,20L29,20z"/><path fill="#36404d" d="M28 23l-6 .991C22.122 25.119 23.065 26 24.226 26 26.813 26 28 23 28 23zM12 23l6 .991C17.878 25.119 16.935 26 15.774 26 13.187 26 12 23 12 23z"/><path fill="#66798f" d="M31,16h-1v-1h1c2.989,0,3-3,3-3V7c0-2.967,2.943-2.978,2.943-2.978L38,4v1h-1c0,0-2,0.117-2,2v5	C35,12,35.02,16,31,16z"/><path fill="#36404d" d="M31,17h-1v-1h1c4.02,0,4-4,4-4v-2c0-2.967,2.943-2.978,2.943-2.978L38,7v1l0,0c0,0-2,0.117-2,2v2	C36,12,36.104,17,31,17z"/><path fill="#a3b7cc" d="M31,15h-1v-1h1c2.067,0,2-2,2-2V5c0-4.029,4-4,4-4h1v1h-1c0,0-3,0.08-3,3v7C34,12,33.989,15,31,15z"/><path fill="#66798f" d="M9,16h1v-1H9c-2.989,0-3-3-3-3V7c0-2.967-2.943-2.978-2.943-2.978L2,4v1h1c0,0,2,0.117,2,2v5	C5,12,4.98,16,9,16z"/><path fill="#36404d" d="M9,17h1v-1H9c-4.02,0-4-4-4-4v-2c0-2.967-2.943-2.978-2.943-2.978L2,7v1l0,0c0,0,2,0.117,2,2v2	C4,12,3.896,17,9,17z"/><path fill="#a3b7cc" d="M9,15h1v-1H9c-2.067,0-2-2-2-2V5c0-4.029-4-4-4-4H2v1h1c0,0,3,0.08,3,3v7C6,12,6.011,15,9,15z"/><path fill="#e1ebf2" d="M20,23.571c-1.561,0-2.867-1.378-3.351-2.739L16.531,20.5H8.5V20c0-7.457,4.772-9.79,8.257-11.493 c1.398-0.683,2.6-1.271,3.243-2.065c0.643,0.794,1.845,1.382,3.243,2.065C26.728,10.21,31.5,12.543,31.5,20v0.5h-8.031 l-0.118,0.333C22.867,22.193,21.561,23.571,20,23.571z"/><path fill="#a3b7cc" d="M20,7.164c0.748,0.68,1.841,1.215,3.023,1.792C26.577,10.694,31,12.855,31,20h-7.178h-0.706 l-0.236,0.665c-0.415,1.167-1.565,2.406-2.88,2.406s-2.465-1.24-2.88-2.406L16.884,20h-0.706H9c0-7.145,4.423-9.306,7.977-11.043 C18.159,8.379,19.252,7.845,20,7.164 M20,5.071C20,8.719,8,7.955,8,20v1h8.178c0.561,1.578,2.052,3.071,3.822,3.071 s3.261-1.494,3.822-3.071H32v-1C32,7.955,20,8.719,20,5.071L20,5.071z"/><g><path fill="#e1ebf2" d="M20,23.5c-1.586,0-2.974-1.08-3.375-2.625L16.529,20.5H8.5V20c0-7.458,4.772-9.79,8.257-11.493 c1.398-0.683,2.6-1.271,3.243-2.065c0.643,0.794,1.845,1.382,3.243,2.065C26.728,10.21,31.5,12.542,31.5,20v0.5h-8.029 l-0.097,0.375C22.974,22.42,21.586,23.5,20,23.5z"/><path fill="#a3b7cc" d="M20,7.164c0.748,0.68,1.841,1.215,3.023,1.792C26.577,10.693,31,12.855,31,20h-7.141h-0.774 l-0.194,0.749C22.547,22.074,21.359,23,20,23s-2.547-0.926-2.891-2.251L16.915,20h-0.774H9c0-7.145,4.423-9.307,7.977-11.043 C18.159,8.379,19.252,7.845,20,7.164 M20,5.071C20,8.719,8,7.955,8,20v1h8.141c0.446,1.722,1.997,3,3.859,3s3.412-1.278,3.859-3H32 v-1C32,7.955,20,8.719,20,5.071L20,5.071z"/></g><g><path fill="#b0c1d4" d="M20,23.5c-1.586,0-2.974-1.08-3.375-2.625L16.529,20.5H8.5V20c0-0.874,0.067-1.713,0.201-2.5h22.598 c0.134,0.787,0.201,1.626,0.201,2.5v0.5h-8.029l-0.097,0.375C22.974,22.42,21.586,23.5,20,23.5z"/><path fill="#66798f" d="M30.869,18C30.956,18.637,31,19.307,31,20h-7.141h-0.774l-0.194,0.749 C22.547,22.074,21.359,23,20,23s-2.547-0.926-2.891-2.251L16.915,20h-0.774H9c0-0.693,0.044-1.363,0.131-2H30.869 M31.714,17H8.286 C8.103,17.902,8,18.896,8,20v1h8.141c0.446,1.722,1.997,3,3.859,3s3.412-1.278,3.859-3H32v-1C32,18.896,31.897,17.902,31.714,17 L31.714,17z"/></g></svg>