<svg xmlns="http://www.w3.org/2000/svg"  viewBox="0 0 40 40" width="40px" height="40px"><path fill="#e8d47b" d="M31.5 15.5A3 3 0 1 0 31.5 21.5A3 3 0 1 0 31.5 15.5Z"/><path fill="#ba9b48" d="M31.5,16c1.379,0,2.5,1.122,2.5,2.5S32.879,21,31.5,21c-1.379,0-2.5-1.122-2.5-2.5 S30.121,16,31.5,16 M31.5,15c-1.933,0-3.5,1.567-3.5,3.5c0,1.933,1.567,3.5,3.5,3.5c1.933,0,3.5-1.567,3.5-3.5 C35,16.567,33.433,15,31.5,15L31.5,15z"/><path fill="#e8d47b" d="M8.5 15.5A3 3 0 1 0 8.5 21.5A3 3 0 1 0 8.5 15.5Z"/><path fill="#ba9b48" d="M8.5,16c1.379,0,2.5,1.122,2.5,2.5S9.879,21,8.5,21S6,19.878,6,18.5S7.121,16,8.5,16 M8.5,15 C6.567,15,5,16.567,5,18.5C5,20.433,6.567,22,8.5,22c1.933,0,3.5-1.567,3.5-3.5C12,16.567,10.433,15,8.5,15L8.5,15z"/><path fill="#8bb7f0" d="M12,12.5c-1.963,0-3.5-1.538-3.5-3.5c0-1.688,1.188-2.839,3.634-3.518 c1.304-0.362,2.385-1.177,3.431-1.964C16.942,2.48,18.243,1.5,20,1.5s3.058,0.98,4.436,2.018c1.046,0.788,2.127,1.602,3.431,1.964 C30.312,6.161,31.5,7.312,31.5,9c0,1.962-1.537,3.5-3.5,3.5H12z"/><path fill="#4e7ab5" d="M20,2c1.589,0,2.825,0.931,4.134,1.917c1.083,0.816,2.203,1.659,3.598,2.047C31,6.871,31,8.473,31,9 c0,1.71-1.29,3-3,3h-8h-8c-1.71,0-3-1.29-3-3c0-0.527,0-2.129,3.268-3.036c1.395-0.388,2.515-1.231,3.598-2.047 C17.175,2.931,18.411,2,20,2 M20,1c-3.338,0-5.139,3.205-8,4C9.833,5.602,8,6.751,8,9s1.751,4,4,4s3.29,0,8,0s5.751,0,8,0 s4-1.751,4-4s-1.833-3.398-4-4C25.139,4.205,23.338,1,20,1L20,1z"/><path fill="#ffeea3" d="M8.5,29.5V18c0-6.449,5.052-11.5,11.5-11.5S31.5,11.551,31.5,18v11.5H8.5z"/><path fill="#ba9b48" d="M20,7c6.168,0,11,4.832,11,11v11H9V18C9,11.832,13.832,7,20,7 M20,6C13.254,6,8,11.254,8,18v12h24 V18C32,11.254,26.746,6,20,6L20,6z"/><path fill="#36404d" d="M24.5 16A1.5 1.5 0 1 0 24.5 19 1.5 1.5 0 1 0 24.5 16zM15.5 16A1.5 1.5 0 1 0 15.5 19 1.5 1.5 0 1 0 15.5 16z"/><path fill="#839cb2" d="M20,11.5c-2.888,0-5.509-1.25-7.169-2.539C14.881,7.37,17.404,6.5,20,6.5s5.119,0.87,7.169,2.461 C25.509,10.25,22.888,11.5,20,11.5z"/><path fill="#66798f" d="M20,7c2.26,0,4.463,0.689,6.321,1.961C24.732,10.044,22.467,11,20,11s-4.732-0.956-6.321-2.039 C15.537,7.689,17.74,7,20,7 M20,6c-3.043,0-5.819,1.12-7.957,2.96C13.738,10.445,16.666,12,20,12s6.262-1.555,7.957-3.04 C25.819,7.12,23.043,6,20,6L20,6z"/><path fill="#36404d" d="M16 13c-1.593 0-2.714 1.345-3 2h3c1.521 0 2.048 2.167 2.053 2.189l1.323-.305C19.345 16.752 18.603 13 16 13zM24 13c1.593 0 2.714 1.345 3 2l-2.929-.071c-1.521 0-2.048 2.167-2.053 2.189l-1.323-.305C20.726 16.681 21.397 13 24 13z"/><g><path fill="#e8d47b" d="M20,18.5c-0.059,0-0.124-0.009-0.203-0.028c-0.099-0.031-0.146-0.051-0.192-0.076 c-0.075-0.042-0.114-0.07-0.15-0.1c-0.424-0.332-0.769-0.98-1.102-1.607c-0.136-0.255-0.275-0.518-0.426-0.77 c0.02,0.011,0.04,0.022,0.061,0.033c0.51,0.27,1.037,0.548,2.013,0.548s1.503-0.279,2.013-0.548 c0.021-0.011,0.04-0.021,0.061-0.032c-0.15,0.252-0.29,0.515-0.426,0.77c-0.333,0.627-0.678,1.275-1.088,1.596 c-0.05,0.041-0.086,0.068-0.127,0.092c-0.083,0.044-0.131,0.064-0.181,0.079C20.124,18.491,20.059,18.5,20,18.5z"/><path fill="#ba9b48" d="M19.035,16.901C19.313,16.962,19.63,17,20,17c0.37,0,0.687-0.038,0.965-0.099 c-0.234,0.422-0.478,0.806-0.74,1.011c-0.015,0.012-0.03,0.024-0.062,0.041c-0.019,0.01-0.039,0.018-0.079,0.032 C20.035,17.998,20.01,18,20,18s-0.035-0.002-0.05-0.005l-0.048-0.016l-0.005-0.001c-0.021-0.006-0.041-0.014-0.074-0.031 c-0.017-0.01-0.033-0.022-0.074-0.056C19.507,17.702,19.268,17.322,19.035,16.901 M24.071,14.929C21.81,14.929,21.805,16,20,16 s-1.81-1.071-4.071-1.071c1.548,0,1.983,2.795,3.204,3.75c0.057,0.048,0.118,0.091,0.182,0.13c0.018,0.01,0.036,0.02,0.054,0.029 c0.074,0.039,0.152,0.071,0.233,0.096c0.026,0.008,0.051,0.018,0.078,0.024C19.783,18.983,19.889,19,20,19s0.217-0.017,0.32-0.042 c0.027-0.007,0.052-0.016,0.078-0.024c0.081-0.025,0.159-0.057,0.233-0.096c0.018-0.01,0.036-0.019,0.054-0.029 c0.065-0.038,0.125-0.082,0.183-0.13C22.089,17.723,22.524,14.929,24.071,14.929L24.071,14.929z"/></g><g><path fill="#839cb2" d="M22,37.441l-2,1l-2-1l-2,1l-2-1l-1.901,0.951l-2-2l-1.875,0.938L7.309,35.5H5.5v-1.809l-1.889-0.944 l1-3l-1.768-0.884l2-2l-2.08-1.04C3.861,24.451,7.421,20.5,12,20.5h4.535c0.244,1.694,1.705,3,3.465,3s3.221-1.306,3.465-3H28 c4.965,0,8.272,3.951,9.263,5.31l-2.106,1.053l2,2l-1.768,0.884l1,3L34.5,33.691V35.5h-1.809l-0.915,1.829l-1.875-0.938l-2,2 L26,37.441l-2,1L22,37.441z"/><path fill="#66798f" d="M28,21c4.243,0,7.245,3.071,8.497,4.633l-0.944,0.472l-1.241,0.62l0.981,0.981l1.019,1.019 l-0.759,0.38l-0.776,0.388l0.274,0.823l0.726,2.177l-1.224,0.612L34,33.382V34v1h-1h-0.618l-0.276,0.553l-0.553,1.106 l-1.106-0.553l-0.645-0.322l-0.51,0.51l-1.49,1.49l-1.355-0.678L26,36.882l-0.447,0.224L24,37.882l-1.553-0.776L22,36.882 l-0.447,0.224L20,37.882l-1.553-0.776L18,36.882l-0.447,0.224L16,37.882l-1.553-0.776L14,36.882l-0.447,0.224l-1.355,0.678 l-1.49-1.49l-0.51-0.51l-0.645,0.322l-1.106,0.553l-0.553-1.106L7.618,35H7H6v-1v-0.618l-0.553-0.276l-1.224-0.612l0.726-2.177 l0.274-0.823l-0.776-0.388l-0.759-0.38l1.019-1.019l0.981-0.981l-1.241-0.62l-0.896-0.448C4.917,24.077,8.082,21,12,21h4.127 c0.445,1.723,2.013,3,3.873,3s3.428-1.277,3.873-3H28 M28,20h-5c0,1.657-1.343,3-3,3s-3-1.343-3-3h-5c-5.85,0-10,6-10,6l2,1l-2,2 l2,1l-1,3l2,1v2h2l1,2l2-1l2,2l2-1l2,1l2-1l2,1l2-1l2,1l2-1l2,1l2-2l2,1l1-2h2v-2l2-1l-1-3l2-1l-2-2l2-1C38,26,34.314,20,28,20 L28,20z"/></g><g><path fill="#fff" d="M9.5,30.643V27c0-1.309,1.191-2.5,2.5-2.5c0.6,0,1.67,0.373,2.803,0.767 C16.463,25.845,18.345,26.5,20,26.5c1.663,0,3.562-0.659,5.235-1.241C26.359,24.869,27.42,24.5,28,24.5c1.285,0,2.5,1.215,2.5,2.5 v3.643H9.5z"/><path fill="#66798f" d="M28,25c1.009,0,2,0.991,2,2v3.143H10V27c0-1.028,0.972-2,2-2c0.515,0,1.594,0.376,2.638,0.739 C16.336,26.33,18.26,27,20,27c1.748,0,3.688-0.674,5.4-1.269C26.434,25.372,27.504,25,28,25 M28,24c-1.551,0-5.238,2-8,2 s-6.413-2-8-2s-3,1.429-3,3v4.143h22V27C31,25.429,29.551,24,28,24L28,24z"/></g><path fill="#f7a3a3" d="M28,30c-2.207,0-3.773-1-8-1s-5.793,1-8,1c-0.818,0-1.93-0.874-3-1.714V31c0,1.571,1.27,3,3,3	s5.035-1,8-1s6.27,1,8,1s3-1.429,3-3v-2.714C29.93,29.126,28.818,30,28,30z"/><path fill="#c74343" d="M30,29.05V31c0,0.962-0.765,2-2,2c-0.66,0-1.7-0.187-2.802-0.384C23.591,32.327,21.77,32,20,32	c-1.77,0-3.591,0.327-5.198,0.616C13.7,32.813,12.66,33,12,33c-1.235,0-2-1.038-2-2v-1.95c-0.331-0.241-0.667-0.502-1-0.764V31	c0,1.571,1.27,3,3,3s5.035-1,8-1c2.965,0,6.27,1,8,1s3-1.429,3-3v-2.714C30.667,28.547,30.331,28.809,30,29.05z"/></svg>