<svg xmlns="http://www.w3.org/2000/svg"  viewBox="0 0 40 40" width="40px" height="40px"><path fill="#ffc49c" d="M37.491,38.224C33.383,36.488,27.077,35.5,20,35.5S6.617,36.488,2.509,38.224 c0.115-4.821,1.266-8.965,1.966-11.065l0.691-2.077l-1.524,1.57c-0.779,0.803-1.445,1.488-2.115,2.426 c0.287-9.528,2.83-12.725,2.857-12.757l1.107-1.343l-3.839,1.278C3.544,7.394,10.817,1.5,20,1.5s16.456,5.894,18.348,14.755 l-3.815-1.271l1.079,1.331c0.026,0.032,2.57,3.345,2.861,12.878c-0.668-0.969-1.329-1.702-2.107-2.535l-1.563-1.67l0.724,2.17 C36.226,29.258,37.376,33.403,37.491,38.224z"/><path fill="#a16a4a" d="M20,2c8.779,0,15.546,5.241,17.658,13.499l-1.342-0.447l-3.13-1.038l2.031,2.609 c0.025,0.032,2.191,2.911,2.684,10.998c-0.37-0.44-0.754-0.858-1.171-1.304l-3.125-3.339l1.446,4.338 c0.654,1.962,1.706,5.729,1.913,10.158C32.798,35.893,26.74,35,20,35c-6.74,0-12.798,0.893-16.964,2.475 c0.207-4.429,1.259-8.197,1.913-10.158l1.381-4.148l-3.049,3.137c-0.422,0.434-0.811,0.835-1.187,1.26 c0.482-8.108,2.652-10.897,2.67-10.92l2.292-2.718l-3.373,1.124l-1.342,0.447C4.454,7.241,11.221,2,20,2 M20,1C9.9,1,2.6,7.7,1,17 l3-1c0,0-3,3.557-3,14.857c1-1.8,1.868-2.692,3-3.857c-0.5,1.5-2,6.289-2,12c4.2-2,11-3,18-3s13.8,1,18,3c0-5.711-1.5-10.5-2-12 c1.141,1.219,2,2.2,3,4c0-11.3-3-15-3-15l3,1C37.4,7.7,30.1,1,20,1L20,1z"/><path fill="#e8d47b" d="M31.257,27.5c-1.737,0-3.757-1.747-3.757-4c0-2.206,1.441-4,3.214-4c1.508,0,3.786,0,3.786,2.5 C34.5,24.215,33.138,27.5,31.257,27.5z"/><path fill="#a16a4a" d="M30.714,20C32.234,20,34,20,34,22s-1.223,5-2.743,5C29.737,27,28,25.4,28,23.5S29.194,20,30.714,20 M30.714,19C28.666,19,27,21.019,27,23.5c0,2.534,2.288,4.5,4.257,4.5C33.715,28,35,24.094,35,22C35,19,32.105,19,30.714,19 L30.714,19z"/><path fill="#e8d47b" d="M8.743,27.5C6.862,27.5,5.5,24.215,5.5,22c0-2.5,2.278-2.5,3.786-2.5c1.772,0,3.214,1.794,3.214,4 C12.5,25.753,10.48,27.5,8.743,27.5z"/><path fill="#a16a4a" d="M9.286,20C10.806,20,12,21.6,12,23.5S10.263,27,8.743,27C7.223,27,6,24,6,22S7.766,20,9.286,20 M9.286,19C7.895,19,5,19,5,22c0,2.094,1.285,6,3.743,6C10.712,28,13,26.034,13,23.5C13,21.019,11.334,19,9.286,19L9.286,19z"/><path fill="#ffeea3" d="M19.899,37.473c-1.935,0-3.074,0-6.146-1.89c-6.232-3.997-5.192-8.922-5.182-8.971 c0.014-0.114,0.129-2.57,1.31-11.206c0.389-3.285,2.144-5.605,5.219-6.906H15.5c0.552,0,1,0.449,1,1c0,1.103,0.897,2,2,2h3 c1.103,0,2-0.897,2-2c0-0.551,0.448-1,1-1h0.399c3.075,1.3,4.83,3.62,5.218,6.896c1.182,8.645,1.297,11.102,1.298,11.125 c0.057,0.29,1.03,5.085-5.177,9.066c-2.794,1.759-4.037,1.886-5.753,1.886L19.899,37.473z"/><path fill="#ba9b48" d="M24.797,9c2.84,1.233,4.462,3.404,4.825,6.474c1.174,8.587,1.292,11.046,1.293,11.069l0.005,0.091 l0.017,0.082c0.04,0.189,0.914,4.679-4.963,8.447c-2.877,1.811-4.029,1.811-5.489,1.811l-0.282-0.001l-0.353-0.001 c-1.86,0-2.885,0-5.82-1.806c-5.884-3.773-5.01-8.263-4.971-8.444l0.02-0.089l0.004-0.09c0.001-0.024,0.119-2.482,1.296-11.088 c0.361-3.052,1.983-5.223,4.823-6.455H15.5C15.776,9,16,9.224,16,9.5c0,1.379,1.121,2.5,2.5,2.5h3c1.379,0,2.5-1.121,2.5-2.5 C24,9.224,24.224,9,24.5,9H24.797 M25,8h-0.5C23.672,8,23,8.672,23,9.5S22.328,11,21.5,11h-3c-0.828,0-1.5-0.672-1.5-1.5 S16.328,8,15.5,8H15c-2.503,1.034-5.112,3.101-5.613,7.338C8.186,24.123,8.085,26.5,8.085,26.5s-1.201,5.271,5.407,9.509 c3.178,1.956,4.386,1.964,6.36,1.964c0.016,0,0.032,0,0.048,0c0.202,0,0.396,0.001,0.586,0.001c1.699,0,3.05-0.094,6.022-1.965 c6.608-4.237,5.407-9.509,5.407-9.509s-0.1-2.377-1.302-11.162C30.112,11.101,27.503,9.034,25,8L25,8z"/><path fill="#fff" d="M21.006,21.501v-0.618c0-1.708,3.534-3.914,3.994-3.844c1.693,0.259,3.006,1.83,3.006,3.712v0.75	c0,0.828-0.627,1.5-1.4,1.5h-4.2C21.632,23.001,21.006,22.329,21.006,21.501z"/><path fill="#ba9b48" d="M20,23c0,0,1.163,1,2.58,1h3.852C27.848,24,29,22.834,29,21.334C29,18.113,28,16,28,16	s-0.124-0.04-2.129,0.246c-3.156,0.759-5.003,3.345-5.859,4.927L20,23z M21.006,20.883c0-1.708,3.191-3.881,3.5-3.881	c1.925,0,3.5,1.688,3.5,3.75v0.75c0,0.828-0.627,1.5-1.4,1.5h-4.2c-0.773,0-1.4-0.672-1.4-1.5V20.883z"/><path fill="#f78f8f" d="M20,33.5c-2.4,0-4.178-2.765-4.767-3.815C15.958,29.287,17.682,28.5,20,28.5 c2.33,0,4.046,0.785,4.767,1.183C24.177,30.733,22.396,33.5,20,33.5z"/><path fill="#c74343" d="M20,29c1.808,0,3.235,0.503,4.061,0.888C23.341,31.038,21.843,33,20,33 c-1.744,0-3.266-1.823-4.068-3.109C16.758,29.506,18.187,29,20,29 M20,28c-3.3,0-5.429,1.5-5.429,1.5S16.7,34,20,34 s5.429-4.5,5.429-4.5S23.3,28,20,28L20,28z"/><path fill="#fff" d="M22 29.203c-.516-.093-1.203-.219-2-.203.149.586.561 1.878 1 1.878C21.462 30.878 21.859 29.763 22 29.203zM19 30.878c.502 0 .872-1.291 1-1.878-.734-.016-1.494.11-2.016.203C18.147 29.774 18.593 30.878 19 30.878zM22 29.203c.132.409.528 1.389.789 1.581.492-.143 1.085-.661 1.272-.896C23.547 29.625 22.456 29.302 22 29.203zM17.967 29.203c-.132.409-.528 1.389-.789 1.581-.492-.143-1.085-.661-1.272-.896C16.42 29.625 17.511 29.302 17.967 29.203z"/><path fill="#967a44" d="M20,21c0,0.276,0,2,0,2l0,0l1-1c0.006-1.117,2.525-5,7-5v-1C23.312,16,21.011,19.13,20,21z"/><path fill="#8bb7f0" d="M26.723,23C26.894,22.705,27,22.366,27,22c0-1.105-0.895-2-2-2s-2,0.895-2,2	c0,0.366,0.106,0.705,0.277,1H26.723z"/><path fill="#36404d" d="M25 21A1 1 0 1 0 25 23A1 1 0 1 0 25 21Z"/><path fill="#fff" d="M18.994,21.501v-0.618c0-1.708-3.534-3.914-3.994-3.844c-1.693,0.259-3.006,1.83-3.006,3.712v0.75	c0,0.828,0.627,1.5,1.4,1.5h4.2C18.368,23.001,18.994,22.329,18.994,21.501z"/><path fill="#ba9b48" d="M19.989,21.173c-0.856-1.583-2.703-4.168-5.859-4.927C12.124,15.96,12,16,12,16s-1,2.113-1,5.334	c0,1.5,1.152,2.666,2.568,2.666h3.852c1.416,0,2.58-1,2.58-1L19.989,21.173z M18.994,21.501c0,0.828-0.627,1.5-1.4,1.5h-4.2	c-0.773,0-1.4-0.672-1.4-1.5v-0.75c0-2.063,1.575-3.75,3.5-3.75c0.309,0,3.5,2.174,3.5,3.881V21.501z"/><path fill="#967a44" d="M20,21c0,0.276,0,2,0,2l0,0l-1-1c-0.006-1.117-2.525-5-7-5v-1C16.688,16,18.989,19.13,20,21z"/><path fill="#8bb7f0" d="M13.277,23C13.106,22.705,13,22.366,13,22c0-1.105,0.895-2,2-2s2,0.895,2,2	c0,0.366-0.106,0.705-0.277,1H13.277z"/><path fill="#36404d" d="M15 21A1 1 0 1 0 15 23A1 1 0 1 0 15 21Z"/><g><path fill="#c74343" d="M16.62 32.36c.081.08.156.163.241.24C16.906 32.55 16.804 32.465 16.62 32.36zM22.242 33.295c.255-.162.497-.346.725-.542C22.506 33.008 22.191 33.213 22.242 33.295z"/><path fill="#ba9b48" d="M20,28c-3.3,0-5.429,1.5-5.429,1.5s0.168,0.347,0.468,0.836c0.231-0.13,0.521-0.278,0.892-0.445 C16.758,29.506,18.187,29,20,29c1.808,0,3.235,0.503,4.061,0.888c0.381,0.181,0.667,0.328,0.899,0.455 c0.305-0.497,0.469-0.842,0.469-0.842S23.3,28,20,28z"/></g></svg>