<svg xmlns="http://www.w3.org/2000/svg"  viewBox="0 0 40 40" width="40px" height="40px"><path fill="#c2e8ff" d="M1.5 5.5H34.5V38.5H1.5z"/><path fill="#7496c4" d="M34,6v32H2V6H34 M35,5H1v34h34V5L35,5z"/><path fill="#c2e8ff" d="M30.611 13.611H37.055V15.944H30.611z" transform="rotate(90 33.833 14.778)"/><path fill="#c2e8ff" d="M22 5H28.444V7.333H22z"/><g><path fill="#8bb7f0" d="M18.707 16L28.707 6 24.207 1.5 38.5 1.5 38.5 15.793 34 11.293 24 21.293z"/><path fill="#4e7ab5" d="M38,2v12.586l-3.293-3.293L34,10.586l-0.707,0.707L24,20.586L19.414,16l9.293-9.293L29.414,6 l-0.707-0.707L25.414,2H38 M39,1H23l5,5L18,16l6,6l10-10l5,5V1L39,1z"/></g></svg>