<?xml version="1.0" encoding="UTF-8"?><svg xmlns="http://www.w3.org/2000/svg" xmlns:xlink="http://www.w3.org/1999/xlink" version="1.2" baseProfile="tiny" id="Layer_1" x="0px" y="0px" viewBox="0 0 512 512" xml:space="preserve"><g id="XMLID_415_"><g id="XMLID_106_"><g id="XMLID_120_"><path id="XMLID_125_" fill="#FFF" d="M422.3 477.9c0 7.6-6.2 13.8-13.8 13.8h-305c-7.6 0-13.8-6.2-13.8-13.8V34.1c0-7.6 6.2-13.8 13.8-13.8h230.1V109h88.7v368.9z"/><path id="XMLID_122_" fill="#475563" d="M333.6 6H103.5C88 6 75.4 18.6 75.4 34.1v443.8c0 15.5 12.6 28.1 28.1 28.1h305c15.5 0 28.1-12.6 28.1-28.1V109.1L333.6 6zm88.7 471.9c0 7.6-6.2 13.8-13.8 13.8h-305c-7.6 0-13.8-6.2-13.8-13.8V34.1c0-7.6 6.2-13.8 13.8-13.8h230.1V109h88.7v368.9z"/><path id="XMLID_121_" fill="#26333D" d="M333.6 6v103.1h103z"/></g><g id="XMLID_115_"><path id="XMLID_119_" fill="#29363F" d="M465.9 450.8H46.1V308c0-9.8 7.9-17.7 17.7-17.7h384.3c9.8 0 17.7 7.9 17.7 17.7v142.8z"/><path id="XMLID_118_" fill="#1B2730" d="M436.6 450.8v19.5l29.3-19.5z"/><path id="XMLID_117_" fill="#1B2730" d="M75.4 450.8v19.5l-29.3-19.5z"/><path id="XMLID_116_" fill="#475563" d="M64.1 308.4h383.7v124.5H64.1z"/></g><g id="XMLID_107_" fill="#29363F"><path id="XMLID_114_" d="M298.3 78.6h-177a6.7 6.7 0 0 1 0-13.4h177a6.7 6.7 0 0 1 0 13.4z"/><path id="XMLID_113_" d="M298.3 110.6h-177a6.7 6.7 0 0 1 0-13.4h177a6.7 6.7 0 0 1 0 13.4z"/><path id="XMLID_112_" d="M391.8 142.5H121.3a6.7 6.7 0 0 1 0-13.4h270.5a6.7 6.7 0 0 1 0 13.4z"/><path id="XMLID_111_" d="M391.8 174.5H121.3a6.7 6.7 0 0 1 0-13.4h270.5a6.7 6.7 0 0 1 0 13.4z"/><path id="XMLID_110_" d="M391.8 206.5H121.3a6.7 6.7 0 0 1 0-13.4h270.5a6.7 6.7 0 0 1 0 13.4z"/><path id="XMLID_109_" d="M391.8 238.4H121.3a6.7 6.7 0 0 1 0-13.4h270.5a6.7 6.7 0 0 1 0 13.4z"/><path id="XMLID_108_" d="M391.8 270.4H121.3a6.7 6.7 0 0 1 0-13.4h270.5a6.7 6.7 0 0 1 0 13.4z"/></g></g><g id="XMLID_567_" fill="#FFF"><path id="XMLID_620_" d="M183 395.8c2.2 0 3.8-.6 4.9-1.8 1.1-1.2 1.6-2.9 1.6-5.1h14.6l.1.3c.1 5.6-1.8 10.2-5.8 13.7s-9.1 5.3-15.4 5.3c-7.8 0-13.8-2.4-18-7.2-4.2-4.8-6.3-11.1-6.3-18.9V381c0-7.7 2.1-14 6.3-18.8 4.2-4.8 10.2-7.3 18-7.3 6.5 0 11.7 1.8 15.6 5.4 3.9 3.6 5.8 8.6 5.7 14.9l-.1.3h-14.6c0-2.4-.6-4.4-1.7-6-1.1-1.5-2.8-2.3-4.9-2.3-3.1 0-5.3 1.2-6.5 3.7-1.2 2.5-1.8 5.8-1.8 10v1.1c0 4.3.6 7.7 1.8 10.1 1.1 2.4 3.3 3.7 6.5 3.7z"/><path id="XMLID_622_" d="M233.1 362.1c1.5-2.3 3.4-4.1 5.7-5.4 2.2-1.3 4.7-1.9 7.4-1.9 5.3 0 9.5 1.9 12.5 5.6 3 3.7 4.6 9.4 4.6 17.2v29.5h-16v-29.6c0-3.9-.5-6.6-1.5-8.1s-2.5-2.2-4.6-2.2c-1.8 0-3.4.3-4.7.8-1.3.5-2.4 1.3-3.3 2.2v37h-16v-74h16v28.9z"/><path id="XMLID_624_" d="M294 355.8l.6 6.8c1.6-2.5 3.6-4.4 6.1-5.7 2.5-1.3 5.3-2 8.4-2 3.2 0 5.9.7 8.3 2.1 2.3 1.4 4 3.5 5.2 6.4 1.6-2.7 3.6-4.8 6.1-6.2 2.5-1.5 5.4-2.2 8.7-2.2 5 0 8.9 1.8 11.8 5.4 2.9 3.6 4.3 9.1 4.3 16.6v30.3h-16.1V377c0-3.7-.5-6.2-1.5-7.6-1-1.4-2.6-2.1-4.6-2.1-1.5 0-2.9.3-4.1.8-1.2.6-2.2 1.3-3 2.3v36.9h-16V377c0-3.7-.5-6.2-1.5-7.6-1-1.4-2.6-2-4.7-2-1.5 0-2.8.3-4 .8-1.2.6-2.2 1.3-3 2.3v36.8h-16V356h15z"/></g></g><metadata><rdf:RDF xmlns:rdf="http://www.w3.org/1999/02/22-rdf-syntax-ns#" xmlns:rdfs="http://www.w3.org/2000/01/rdf-schema#" xmlns:dc="http://purl.org/dc/elements/1.1/"><rdf:Description about="https://iconscout.com/legal#licenses" dc:publisher="Iconscout" dc:date="2017-11-07" dc:format="image/svg+xml" dc:language="en"><dc:creator><rdf:Bag><rdf:li>First Styles</rdf:li></rdf:Bag></dc:creator></rdf:Description></rdf:RDF></metadata></svg>