<?xml version="1.0" encoding="UTF-8"?><svg xmlns="http://www.w3.org/2000/svg" xmlns:xlink="http://www.w3.org/1999/xlink" version="1.2" baseProfile="tiny" id="Layer_1" x="0px" y="0px" viewBox="0 0 512 512" xml:space="preserve"><g id="XMLID_429_"><g id="XMLID_26_"><g id="XMLID_40_"><path id="XMLID_105_" fill="#FFF" d="M422.6 478.5c0 7.6-6.2 13.8-13.8 13.8h-305c-7.6 0-13.8-6.2-13.8-13.8V34.7c0-7.6 6.2-13.8 13.8-13.8h230.1v88.7h88.7v368.9z"/><path id="XMLID_102_" fill="#24A885" d="M333.9 6.6H103.8c-15.5 0-28.1 12.6-28.1 28.1v443.8c0 15.5 12.6 28.1 27.1 28.1h305c16.5 0 29.1-12.6 29.1-28.1V109.6l-103-103zm88.7 471.9c0 7.6-6.2 13.8-13.8 13.8h-305c-7.6 0-13.8-6.2-13.8-13.8V34.7c0-7.6 6.2-13.8 13.8-13.8h230.1v88.7h88.7v368.9z"/><path id="XMLID_41_" fill="#16876B" d="M333.9 6.6v103h103z"/></g><g id="XMLID_35_"><path id="XMLID_39_" fill="#16876B" d="M466.2 451.4H46.4V308.6c0-9.8 7.9-17.7 17.7-17.7h384.3c9.8 0 17.7 7.9 17.7 17.7v142.8z"/><path id="XMLID_38_" fill="#59E0B9" d="M436.9 451.4v19.5l29.3-19.5z"/><path id="XMLID_37_" fill="#59E0B9" d="M75.7 451.4v19.5l-29.3-19.5z"/><path id="XMLID_36_" fill="#2EBA98" d="M64.4 308.9h383.7v124.5H64.4z"/></g><g id="XMLID_27_" fill="#16876B"><path id="XMLID_34_" d="M298.6 79.2h-177a6.7 6.7 0 0 1 0-13.4h177a6.7 6.7 0 0 1 0 13.4z"/><path id="XMLID_33_" d="M298.6 111.1h-177a6.7 6.7 0 0 1 0-13.4h177a6.7 6.7 0 0 1 0 13.4z"/><path id="XMLID_32_" d="M392.1 143.1H121.6a6.7 6.7 0 0 1 0-13.4h270.5a6.7 6.7 0 0 1 0 13.4z"/><path id="XMLID_31_" d="M392.1 175.1H121.6a6.7 6.7 0 0 1 0-13.4h270.5a6.7 6.7 0 0 1 0 13.4z"/><path id="XMLID_30_" d="M392.1 207H121.6a6.7 6.7 0 0 1 0-13.4h270.5a6.7 6.7 0 0 1 0 13.4z"/><path id="XMLID_29_" d="M392.1 239H121.6a6.7 6.7 0 0 1 0-13.4h270.5a6.7 6.7 0 0 1 0 13.4z"/><path id="XMLID_28_" d="M392.1 271H121.6a6.7 6.7 0 0 1 0-13.4h270.5c3.7 0 6.7 3 6.7 6.7 0 3.6-3 6.7-6.7 6.7z"/></g></g><g id="XMLID_619_" fill="#FFF"><path id="XMLID_626_" d="M172.2 382.1c0-8 1.7-14.5 5.2-19.4 3.5-4.9 8.4-7.4 14.8-7.4 2.4 0 4.5.5 6.4 1.6 1.9 1.1 3.6 2.6 5.1 4.7v-28h16v74h-14l-1.1-6.3c-1.5 2.3-3.4 4.1-5.4 5.4-2.1 1.2-4.5 1.9-7.1 1.9-6.3 0-11.2-2.3-14.7-7s-5.2-10.9-5.2-18.5v-1zm16.1 1c0 4.2.6 7.4 1.8 9.7 1.2 2.3 3.3 3.5 6.1 3.5 1.7 0 3.2-.3 4.4-.9 1.3-.6 2.3-1.5 3.2-2.7V372c-.8-1.4-1.9-2.4-3.1-3.1-1.3-.7-2.7-1.1-4.4-1.1-2.8 0-4.9 1.3-6.2 3.9-1.3 2.6-1.9 6.1-1.9 10.4v1z"/><path id="XMLID_629_" d="M233.6 381.5c0-7.7 2.2-14 6.5-18.9 4.4-4.9 10.5-7.3 18.3-7.3 7.8 0 13.9 2.4 18.3 7.3s6.5 11.1 6.5 18.9v1c0 7.7-2.2 14-6.5 18.9-4.4 4.8-10.4 7.3-18.2 7.3-7.9 0-14-2.4-18.4-7.3-4.4-4.8-6.5-11.1-6.5-18.9v-1zm16.1 1c0 4.3.7 7.7 2 10.1 1.3 2.5 3.6 3.7 6.9 3.7 3.1 0 5.4-1.2 6.7-3.7 1.4-2.5 2-5.8 2-10.1v-1c0-4.2-.7-7.5-2-10-1.4-2.5-3.6-3.8-6.8-3.8-3.2 0-5.4 1.3-6.8 3.8-1.3 2.5-2 5.9-2 10v1z"/><path id="XMLID_632_" d="M319.1 396.3c2.2 0 3.8-.6 4.9-1.8 1.1-1.2 1.6-2.9 1.6-5.1h14.6l.1.3c.1 5.6-1.8 10.2-5.8 13.7s-9.1 5.3-15.4 5.3c-7.8 0-13.8-2.4-18-7.2-4.2-4.8-6.3-11.1-6.3-18.9v-1.1c0-7.7 2.1-14 6.3-18.8 4.2-4.8 10.2-7.3 18-7.3 6.5 0 11.7 1.8 15.6 5.4 3.9 3.6 5.8 8.6 5.7 14.9l-.1.3h-14.6c0-2.4-.6-4.4-1.7-6-1.1-1.5-2.8-2.3-4.9-2.3-3.1 0-5.3 1.2-6.5 3.7-1.2 2.5-1.8 5.8-1.8 10v1.1c0 4.3.6 7.7 1.8 10.1 1.2 2.5 3.4 3.7 6.5 3.7z"/></g></g><g id="XMLID_1_"><g id="XMLID_11_"><g id="XMLID_25_"><path id="XMLID_46_" fill="#FFF" d="M422.3 477.9c0 7.6-6.2 13.8-13.8 13.8h-305c-7.6 0-13.8-6.2-13.8-13.8V34.1c0-7.6 6.2-13.8 13.8-13.8h230.1V109h88.7v368.9z"/><path id="XMLID_43_" fill="#24A885" d="M333.6 6H103.5C88 6 75.4 18.6 75.4 34.1v443.8c0 15.5 12.6 28.1 27.1 28.1h305c16.5 0 29.1-12.6 29.1-28.1V109.1L333.6 6zm88.7 471.9c0 7.6-6.2 13.8-13.8 13.8h-305c-7.6 0-13.8-6.2-13.8-13.8V34.1c0-7.6 6.2-13.8 13.8-13.8h230.1V109h88.7v368.9z"/><path id="XMLID_42_" fill="#16876B" d="M333.6 6v103.1h103z"/></g><g id="XMLID_20_"><path id="XMLID_24_" fill="#16876B" d="M465.9 450.8H46.1V308c0-9.8 7.9-17.7 17.7-17.7h384.3c9.8 0 17.7 7.9 17.7 17.7v142.8z"/><path id="XMLID_23_" fill="#59E0B9" d="M436.6 450.8v19.5l29.3-19.5z"/><path id="XMLID_22_" fill="#59E0B9" d="M75.4 450.8v19.5l-29.3-19.5z"/><path id="XMLID_21_" fill="#2EBA98" d="M64.1 308.4h383.7v124.5H64.1z"/></g><g id="XMLID_12_" fill="#16876B"><path id="XMLID_19_" d="M298.3 78.6h-177a6.7 6.7 0 0 1 0-13.4h177a6.7 6.7 0 0 1 0 13.4z"/><path id="XMLID_18_" d="M298.3 110.6h-177a6.7 6.7 0 0 1 0-13.4h177a6.7 6.7 0 0 1 0 13.4z"/><path id="XMLID_17_" d="M391.8 142.5H121.3a6.7 6.7 0 0 1 0-13.4h270.5a6.7 6.7 0 0 1 0 13.4z"/><path id="XMLID_16_" d="M391.8 174.5H121.3a6.7 6.7 0 0 1 0-13.4h270.5a6.7 6.7 0 0 1 0 13.4z"/><path id="XMLID_15_" d="M391.8 206.5H121.3a6.7 6.7 0 0 1 0-13.4h270.5a6.7 6.7 0 0 1 0 13.4z"/><path id="XMLID_14_" d="M391.8 238.4H121.3a6.7 6.7 0 0 1 0-13.4h270.5a6.7 6.7 0 0 1 0 13.4z"/><path id="XMLID_13_" d="M391.8 270.4H121.3a6.7 6.7 0 0 1 0-13.4h270.5a6.7 6.7 0 0 1 0 13.4z"/></g></g><g id="XMLID_2_" fill="#FFF"><path id="XMLID_8_" d="M171.9 381.5c0-8 1.7-14.5 5.2-19.4 3.5-4.9 8.4-7.4 14.8-7.4 2.4 0 4.5.5 6.4 1.6 1.9 1.1 3.6 2.6 5.1 4.7v-28h16v74h-14l-1.1-6.3c-1.5 2.3-3.4 4.1-5.4 5.4-2.1 1.2-4.5 1.9-7.1 1.9-6.3 0-11.2-2.3-14.7-7s-5.2-10.9-5.2-18.5v-1zm16.1 1c0 4.2.6 7.4 1.8 9.7 1.2 2.3 3.3 3.5 6.1 3.5 1.7 0 3.2-.3 4.4-.9 1.3-.6 2.3-1.5 3.2-2.7v-20.7c-.8-1.4-1.9-2.4-3.1-3.1-1.3-.7-2.7-1.1-4.4-1.1-2.8 0-4.9 1.3-6.2 3.9-1.3 2.6-1.9 6.1-1.9 10.4v1z"/><path id="XMLID_5_" d="M233.3 381c0-7.7 2.2-14 6.5-18.9 4.4-4.9 10.5-7.3 18.3-7.3 7.8 0 13.9 2.4 18.3 7.3s6.5 11.1 6.5 18.9v1c0 7.7-2.2 14-6.5 18.9-4.4 4.8-10.4 7.3-18.2 7.3-7.9 0-14-2.4-18.4-7.3-4.4-4.8-6.5-11.1-6.5-18.9v-1zm16.1 1c0 4.3.7 7.7 2 10.1 1.3 2.5 3.6 3.7 6.9 3.7 3.1 0 5.4-1.2 6.7-3.7 1.4-2.5 2-5.8 2-10.1v-1c0-4.2-.7-7.5-2-10-1.4-2.5-3.6-3.8-6.8-3.8-3.2 0-5.4 1.3-6.8 3.8-1.3 2.5-2 5.9-2 10v1z"/><path id="XMLID_3_" d="M318.8 395.8c2.2 0 3.8-.6 4.9-1.8 1.1-1.2 1.6-2.9 1.6-5.1H340l.1.3c.1 5.6-1.8 10.2-5.8 13.7s-9.1 5.3-15.4 5.3c-7.8 0-13.8-2.4-18-7.2-4.2-4.8-6.3-11.1-6.3-18.9V381c0-7.7 2.1-14 6.3-18.8 4.2-4.8 10.2-7.3 18-7.3 6.5 0 11.7 1.8 15.6 5.4 3.9 3.6 5.8 8.6 5.7 14.9l-.1.3h-14.6c0-2.4-.6-4.4-1.7-6-1.1-1.5-2.8-2.3-4.9-2.3-3.1 0-5.3 1.2-6.5 3.7-1.2 2.5-1.8 5.8-1.8 10v1.1c0 4.3.6 7.7 1.8 10.1 1.1 2.4 3.3 3.7 6.4 3.7z"/></g></g><metadata><rdf:RDF xmlns:rdf="http://www.w3.org/1999/02/22-rdf-syntax-ns#" xmlns:rdfs="http://www.w3.org/2000/01/rdf-schema#" xmlns:dc="http://purl.org/dc/elements/1.1/"><rdf:Description about="https://iconscout.com/legal#licenses" dc:publisher="Iconscout" dc:date="2017-11-07" dc:format="image/svg+xml" dc:language="en"><dc:creator><rdf:Bag><rdf:li>First Styles</rdf:li></rdf:Bag></dc:creator></rdf:Description></rdf:RDF></metadata></svg>