<?xml version="1.0" encoding="UTF-8"?><svg xmlns="http://www.w3.org/2000/svg" xmlns:xlink="http://www.w3.org/1999/xlink" version="1.2" baseProfile="tiny" id="Layer_1" x="0px" y="0px" viewBox="0 0 512 512" xml:space="preserve"><g id="XMLID_503_"><g id="XMLID_42_"><g id="XMLID_56_"><path id="XMLID_61_" fill="#FFF" d="M422.3 477.9c0 7.6-6.2 13.8-13.8 13.8h-305c-7.6 0-13.8-6.2-13.8-13.8V34.1c0-7.6 6.2-13.8 13.8-13.8h230.1V109h88.7v368.9z"/><path id="XMLID_58_" fill="#F3BB2F" d="M333.6 6H103.5C88 6 75.4 18.6 75.4 34.1v443.8c0 15.5 12.6 28.1 28.1 28.1h305c15.5 0 28.1-12.6 28.1-28.1V109.1L333.6 6zm88.7 471.9c0 7.6-6.2 13.8-13.8 13.8h-305c-7.6 0-13.8-6.2-13.8-13.8V34.1c0-7.6 6.2-13.8 13.8-13.8h230.1V109h88.7v368.9z"/><path id="XMLID_57_" fill="#DEA21E" d="M333.6 6v103.1h103z"/></g><g id="XMLID_51_"><path id="XMLID_55_" fill="#DEA21E" d="M465.9 450.8H46.1V308c0-9.8 7.9-17.7 17.7-17.7h384.3c9.8 0 17.7 7.9 17.7 17.7v142.8z"/><path id="XMLID_54_" fill="#B87D0F" d="M436.6 450.8v19.5l29.3-19.5z"/><path id="XMLID_53_" fill="#B87D0F" d="M75.4 450.8v19.5l-29.3-19.5z"/><path id="XMLID_52_" fill="#F3BB2F" d="M64.1 308.4h383.7v124.5H64.1z"/></g><g id="XMLID_43_" fill="#F3BB2F"><path id="XMLID_50_" d="M298.3 78.6h-177a6.7 6.7 0 0 1 0-13.4h177a6.7 6.7 0 0 1 0 13.4z"/><path id="XMLID_49_" d="M298.3 110.6h-177a6.7 6.7 0 0 1 0-13.4h177a6.7 6.7 0 0 1 0 13.4z"/><path id="XMLID_48_" d="M391.8 142.5H121.3a6.7 6.7 0 0 1 0-13.4h270.5a6.7 6.7 0 0 1 0 13.4z"/><path id="XMLID_47_" d="M391.8 174.5H121.3a6.7 6.7 0 0 1 0-13.4h270.5a6.7 6.7 0 0 1 0 13.4z"/><path id="XMLID_46_" d="M391.8 206.5H121.3a6.7 6.7 0 0 1 0-13.4h270.5a6.7 6.7 0 0 1 0 13.4z"/><path id="XMLID_45_" d="M391.8 238.4H121.3a6.7 6.7 0 0 1 0-13.4h270.5a6.7 6.7 0 0 1 0 13.4z"/><path id="XMLID_44_" d="M391.8 270.4H121.3a6.7 6.7 0 0 1 0-13.4h270.5a6.7 6.7 0 0 1 0 13.4z"/></g></g><g id="XMLID_798_" fill="#FFF"><path id="XMLID_634_" d="M153.6 379.3c0-6.4 1.4-11.6 4.2-15.5 2.8-3.9 6.7-5.9 11.8-5.9 1.9 0 3.6.4 5.1 1.3 1.5.9 2.9 2.1 4.1 3.7v-22.4h12.8v59.2h-11.2l-.9-5c-1.2 1.9-2.7 3.3-4.3 4.3-1.7 1-3.6 1.5-5.7 1.5-5.1 0-9-1.9-11.8-5.6-2.8-3.7-4.2-8.7-4.2-14.8v-.8zm12.8.8c0 3.3.5 5.9 1.5 7.8 1 1.9 2.6 2.8 4.9 2.8 1.3 0 2.5-.2 3.5-.7 1-.5 1.9-1.2 2.5-2.2v-16.6c-.7-1.1-1.5-1.9-2.5-2.5-1-.6-2.2-.9-3.5-.9-2.3 0-3.9 1.1-4.9 3.1-1 2.1-1.5 4.9-1.5 8.3v.9z"/><path id="XMLID_637_" d="M202.7 378.9c0-6.2 1.7-11.2 5.2-15.1 3.5-3.9 8.4-5.8 14.6-5.8 6.3 0 11.2 1.9 14.6 5.8 3.5 3.9 5.2 8.9 5.2 15.1v.8c0 6.2-1.7 11.2-5.2 15.1-3.5 3.9-8.3 5.8-14.6 5.8-6.3 0-11.2-1.9-14.7-5.8s-5.2-8.9-5.2-15.1v-.8zm12.9.8c0 3.4.5 6.1 1.6 8.1s2.9 2.9 5.5 2.9c2.5 0 4.3-1 5.4-3 1.1-2 1.6-4.7 1.6-8.1v-.8c0-3.3-.5-6-1.6-8s-2.9-3-5.5-3c-2.5 0-4.3 1-5.4 3-1.1 2-1.6 4.7-1.6 8v.9z"/><path id="XMLID_640_" d="M271.1 390.7c1.7 0 3-.5 3.9-1.4.9-.9 1.3-2.3 1.3-4.1H288l.1.2c.1 4.5-1.4 8.1-4.6 10.9-3.2 2.8-7.3 4.2-12.3 4.2-6.2 0-11.1-1.9-14.4-5.8-3.4-3.9-5.1-8.9-5.1-15.1v-.9c0-6.2 1.7-11.2 5-15.1 3.4-3.9 8.2-5.8 14.4-5.8 5.2 0 9.4 1.4 12.5 4.3 3.1 2.9 4.6 6.9 4.5 11.9l-.1.2h-11.7c0-1.9-.4-3.5-1.3-4.8-.9-1.2-2.2-1.8-3.9-1.8-2.5 0-4.2 1-5.2 3s-1.5 4.7-1.5 8v.9c0 3.4.5 6.1 1.5 8.1.9 2.2 2.7 3.1 5.2 3.1z"/><path id="XMLID_642_" d="M310.8 358.7l.5 5.4c1.3-2 2.9-3.5 4.9-4.6 2-1.1 4.2-1.6 6.7-1.6 2.6 0 4.8.6 6.6 1.7 1.8 1.1 3.2 2.8 4.2 5.1 1.3-2.2 2.9-3.8 4.9-5 2-1.2 4.3-1.8 7-1.8 4 0 7.1 1.4 9.4 4.3 2.3 2.9 3.4 7.3 3.4 13.3v24.3h-12.9v-24.3c0-2.9-.4-5-1.2-6.1-.8-1.1-2.1-1.7-3.7-1.7-1.2 0-2.3.2-3.3.7-.9.4-1.8 1.1-2.4 1.8v29.4h-12.8v-24.3c0-3-.4-5-1.2-6.1-.8-1.1-2.1-1.6-3.8-1.6-1.2 0-2.2.2-3.2.7-.9.4-1.8 1.1-2.4 1.8v29.4h-12.8v-41.1h12.1z"/></g></g><metadata><rdf:RDF xmlns:rdf="http://www.w3.org/1999/02/22-rdf-syntax-ns#" xmlns:rdfs="http://www.w3.org/2000/01/rdf-schema#" xmlns:dc="http://purl.org/dc/elements/1.1/"><rdf:Description about="https://iconscout.com/legal#licenses" dc:publisher="Iconscout" dc:date="2017-11-07" dc:format="image/svg+xml" dc:language="en"><dc:creator><rdf:Bag><rdf:li>First Styles</rdf:li></rdf:Bag></dc:creator></rdf:Description></rdf:RDF></metadata></svg>