<?xml version="1.0" encoding="UTF-8"?><svg xmlns="http://www.w3.org/2000/svg" xmlns:xlink="http://www.w3.org/1999/xlink" version="1.2" baseProfile="tiny" id="Layer_1" x="0px" y="0px" viewBox="0 0 512 512" xml:space="preserve"><g id="XMLID_601_"><g id="XMLID_183_"><g id="XMLID_197_"><path id="XMLID_202_" fill="#FFF" d="M422.3 477.9c0 7.6-6.2 13.8-13.8 13.8h-305c-7.6 0-13.8-6.2-13.8-13.8V34.1c0-7.6 6.2-13.8 13.8-13.8h230.1V109h88.7v368.9z"/><path id="XMLID_199_" fill="#475563" d="M333.6 6H103.5C88 6 75.4 18.6 75.4 34.1v443.8c0 15.5 12.6 28.1 28.1 28.1h305c15.5 0 28.1-12.6 28.1-28.1V109.1L333.6 6zm88.7 471.9c0 7.6-6.2 13.8-13.8 13.8h-305c-7.6 0-13.8-6.2-13.8-13.8V34.1c0-7.6 6.2-13.8 13.8-13.8h230.1V109h88.7v368.9z"/><path id="XMLID_198_" fill="#26333D" d="M333.6 6v103.1h103z"/></g><g id="XMLID_192_"><path id="XMLID_196_" fill="#29363F" d="M465.9 450.8H46.1V308c0-9.8 7.9-17.7 17.7-17.7h384.3c9.8 0 17.7 7.9 17.7 17.7v142.8z"/><path id="XMLID_195_" fill="#1B2730" d="M436.6 450.8v19.5l29.3-19.5z"/><path id="XMLID_194_" fill="#1B2730" d="M75.4 450.8v19.5l-29.3-19.5z"/><path id="XMLID_193_" fill="#475563" d="M64.1 308.4h383.7v124.5H64.1z"/></g><g id="XMLID_184_" fill="#29363F"><path id="XMLID_191_" d="M298.3 78.6h-177a6.7 6.7 0 0 1 0-13.4h177a6.7 6.7 0 0 1 0 13.4z"/><path id="XMLID_190_" d="M298.3 110.6h-177a6.7 6.7 0 0 1 0-13.4h177a6.7 6.7 0 0 1 0 13.4z"/><path id="XMLID_189_" d="M391.8 142.5H121.3a6.7 6.7 0 0 1 0-13.4h270.5a6.7 6.7 0 0 1 0 13.4z"/><path id="XMLID_188_" d="M391.8 174.5H121.3a6.7 6.7 0 0 1 0-13.4h270.5a6.7 6.7 0 0 1 0 13.4z"/><path id="XMLID_187_" d="M391.8 206.5H121.3a6.7 6.7 0 0 1 0-13.4h270.5a6.7 6.7 0 0 1 0 13.4z"/><path id="XMLID_186_" d="M391.8 238.4H121.3a6.7 6.7 0 0 1 0-13.4h270.5a6.7 6.7 0 0 1 0 13.4z"/><path id="XMLID_185_" d="M391.8 270.4H121.3a6.7 6.7 0 0 1 0-13.4h270.5a6.7 6.7 0 0 1 0 13.4z"/></g></g><g id="XMLID_801_" fill="#FFF"><path id="XMLID_662_" d="M164.3 380.1c0-6.9 1.5-12.5 4.5-16.8 3-4.2 7.3-6.4 12.8-6.4 2.1 0 3.9.5 5.6 1.4 1.7.9 3.1 2.3 4.5 4V338h13.9v64.1h-12.2l-.9-5.4c-1.3 2-2.9 3.6-4.7 4.7-1.8 1.1-3.9 1.6-6.2 1.6-5.5 0-9.7-2-12.7-6.1s-4.5-9.4-4.5-16.1v-.7zm13.9.8c0 3.6.5 6.4 1.6 8.4s2.8 3 5.3 3c1.5 0 2.7-.3 3.8-.8 1.1-.5 2-1.3 2.7-2.4v-18c-.7-1.2-1.6-2.1-2.7-2.7s-2.4-.9-3.8-.9c-2.5 0-4.2 1.1-5.3 3.4-1.1 2.3-1.6 5.3-1.6 9v1z"/><path id="XMLID_665_" d="M217.5 379.6c0-6.7 1.9-12.1 5.7-16.3 3.8-4.2 9.1-6.3 15.8-6.3 6.8 0 12.1 2.1 15.9 6.3 3.8 4.2 5.7 9.7 5.7 16.3v.9c0 6.7-1.9 12.2-5.7 16.4-3.8 4.2-9 6.3-15.8 6.3-6.8 0-12.1-2.1-15.9-6.3-3.8-4.2-5.7-9.6-5.7-16.4v-.9zm13.9.8c0 3.7.6 6.7 1.7 8.8 1.2 2.1 3.1 3.2 5.9 3.2 2.7 0 4.7-1.1 5.8-3.2 1.2-2.1 1.8-5.1 1.8-8.8v-.9c0-3.6-.6-6.5-1.8-8.7-1.2-2.2-3.2-3.3-5.9-3.3s-4.7 1.1-5.9 3.3c-1.2 2.2-1.7 5.1-1.7 8.7v.9z"/><path id="XMLID_668_" d="M288.5 346.7v11.1h7v9.6h-7v20.4c0 1.6.3 2.7 1 3.4.6.7 1.5 1 2.6 1 .7 0 1.3 0 1.7-.1.4-.1 1-.2 1.6-.3l.9 10.3c-1.4.4-2.7.6-3.8.8-1.1.2-2.5.2-4 .2-4.6 0-8.1-1.2-10.4-3.7-2.4-2.4-3.6-6.3-3.6-11.6v-20.5h-6.2v-9.6h6.2v-11.1h14z"/><path id="XMLID_670_" d="M325.8 370.9h.2l5.6-13.1h15.6l-12.9 22 13.4 22.5h-15.6l-5.9-13.5h-.2l-5.9 13.5h-15.6l13.4-22.5-13-22h15.5l5.4 13.1z"/></g></g><metadata><rdf:RDF xmlns:rdf="http://www.w3.org/1999/02/22-rdf-syntax-ns#" xmlns:rdfs="http://www.w3.org/2000/01/rdf-schema#" xmlns:dc="http://purl.org/dc/elements/1.1/"><rdf:Description about="https://iconscout.com/legal#licenses" dc:publisher="Iconscout" dc:date="2017-11-07" dc:format="image/svg+xml" dc:language="en"><dc:creator><rdf:Bag><rdf:li>First Styles</rdf:li></rdf:Bag></dc:creator></rdf:Description></rdf:RDF></metadata></svg>