<?xml version="1.0" encoding="UTF-8"?><svg xmlns="http://www.w3.org/2000/svg" xmlns:xlink="http://www.w3.org/1999/xlink" version="1.2" baseProfile="tiny" id="Layer_1" x="0px" y="0px" viewBox="0 0 512 512" xml:space="preserve"><g id="XMLID_587_"><g id="XMLID_163_"><g id="XMLID_177_"><path id="XMLID_182_" fill="#FFF" d="M422.3 477.9c0 7.6-6.2 13.8-13.8 13.8h-305c-7.6 0-13.8-6.2-13.8-13.8V34.1c0-7.6 6.2-13.8 13.8-13.8h230.1V109h88.7v368.9z"/><path id="XMLID_179_" fill="#24A885" d="M333.6 6H103.5C88 6 75.4 18.6 75.4 34.1v443.8c0 15.5 12.6 28.1 27.1 28.1h305c16.5 0 29.1-12.6 29.1-28.1V109.1L333.6 6zm88.7 471.9c0 7.6-6.2 13.8-13.8 13.8h-305c-7.6 0-13.8-6.2-13.8-13.8V34.1c0-7.6 6.2-13.8 13.8-13.8h230.1V109h88.7v368.9z"/><path id="XMLID_178_" fill="#16876B" d="M333.6 6v103.1h103z"/></g><g id="XMLID_172_"><path id="XMLID_176_" fill="#16876B" d="M465.9 450.8H46.1V308c0-9.8 7.9-17.7 17.7-17.7h384.3c9.8 0 17.7 7.9 17.7 17.7v142.8z"/><path id="XMLID_175_" fill="#59E0B9" d="M436.6 450.8v19.5l29.3-19.5z"/><path id="XMLID_174_" fill="#59E0B9" d="M75.4 450.8v19.5l-29.3-19.5z"/><path id="XMLID_173_" fill="#2EBA98" d="M64.1 308.4h383.7v124.5H64.1z"/></g><g id="XMLID_164_" fill="#16876B"><path id="XMLID_171_" d="M298.3 78.6h-177a6.7 6.7 0 0 1 0-13.4h177a6.7 6.7 0 0 1 0 13.4z"/><path id="XMLID_170_" d="M298.3 110.6h-177a6.7 6.7 0 0 1 0-13.4h177a6.7 6.7 0 0 1 0 13.4z"/><path id="XMLID_169_" d="M391.8 142.5H121.3a6.7 6.7 0 0 1 0-13.4h270.5a6.7 6.7 0 0 1 0 13.4z"/><path id="XMLID_168_" d="M391.8 174.5H121.3a6.7 6.7 0 0 1 0-13.4h270.5a6.7 6.7 0 0 1 0 13.4z"/><path id="XMLID_167_" d="M391.8 206.5H121.3a6.7 6.7 0 0 1 0-13.4h270.5a6.7 6.7 0 0 1 0 13.4z"/><path id="XMLID_166_" d="M391.8 238.4H121.3a6.7 6.7 0 0 1 0-13.4h270.5a6.7 6.7 0 0 1 0 13.4z"/><path id="XMLID_165_" d="M391.8 270.4H121.3a6.7 6.7 0 0 1 0-13.4h270.5a6.7 6.7 0 0 1 0 13.4z"/></g></g><g id="XMLID_802_" fill="#FFF"><path id="XMLID_672_" d="M197.4 408.1c-7.8 0-13.9-2.4-18.3-7.1-4.4-4.7-6.6-10.7-6.6-17.9v-1.8c0-7.8 2.1-14.2 6.2-19.2 4.2-4.9 10.2-7.4 18-7.4 6.9 0 12.3 2.1 16.1 6.2 3.8 4.1 5.7 9.8 5.7 17v8.4h-29.4l-.1.3c.3 2.7 1.2 4.9 3 6.5 1.7 1.7 4.2 2.5 7.5 2.5 3.1 0 5.6-.3 7.7-.8 2-.5 4.4-1.3 7-2.4l3.8 9.8c-2.2 1.6-5.2 3-8.9 4.1-3.6 1.2-7.6 1.8-11.7 1.8zm-.6-40.9c-2.6 0-4.5.8-5.7 2.4-1.2 1.6-1.9 3.8-2.1 6.6l.1.2H203v-1.2c0-2.7-.5-4.7-1.4-6-1-1.4-2.6-2-4.8-2z"/><path id="XMLID_675_" d="M247.3 355.8l.6 6.8c1.6-2.5 3.6-4.4 6.1-5.7 2.5-1.3 5.3-2 8.4-2 3.2 0 5.9.7 8.3 2.1 2.3 1.4 4 3.5 5.2 6.4 1.6-2.7 3.6-4.8 6.1-6.2 2.5-1.5 5.4-2.2 8.7-2.2 5 0 8.9 1.8 11.8 5.4 2.9 3.6 4.3 9.1 4.3 16.6v30.3h-16.1V377c0-3.7-.5-6.2-1.5-7.6-1-1.4-2.6-2.1-4.6-2.1-1.5 0-2.9.3-4.1.8-1.2.6-2.2 1.3-3 2.3v36.9h-16V377c0-3.7-.5-6.2-1.5-7.6-1-1.4-2.6-2-4.7-2-1.5 0-2.8.3-4 .8-1.2.6-2.2 1.3-3 2.3v36.8h-16V356h15z"/><path id="XMLID_677_" d="M339.5 407.1h-16.1v-74h16.1v74z"/></g></g><metadata><rdf:RDF xmlns:rdf="http://www.w3.org/1999/02/22-rdf-syntax-ns#" xmlns:rdfs="http://www.w3.org/2000/01/rdf-schema#" xmlns:dc="http://purl.org/dc/elements/1.1/"><rdf:Description about="https://iconscout.com/legal#licenses" dc:publisher="Iconscout" dc:date="2017-11-07" dc:format="image/svg+xml" dc:language="en"><dc:creator><rdf:Bag><rdf:li>First Styles</rdf:li></rdf:Bag></dc:creator></rdf:Description></rdf:RDF></metadata></svg>