<?xml version="1.0" encoding="UTF-8"?>
<svg version="1.2" viewBox="0 0 512 512" xmlns="http://www.w3.org/2000/svg" xmlns:cc="http://creativecommons.org/ns#" xmlns:dc="http://purl.org/dc/elements/1.1/" xmlns:rdf="http://www.w3.org/1999/02/22-rdf-syntax-ns#">
 <metadata>
  <rdf:RDF>
   <cc:Work rdf:about="">
    <dc:format>image/svg+xml</dc:format>
    <dc:type rdf:resource="http://purl.org/dc/dcmitype/StillImage"/>
    <dc:title/>
   </cc:Work>
  </rdf:RDF>
 </metadata>
 <path d="M422.3 477.9c0 7.6-6.2 13.8-13.8 13.8h-305c-7.6 0-13.8-6.2-13.8-13.8V34.1c0-7.6 6.2-13.8 13.8-13.8h230.1V109h88.7v368.9z" fill="#FFF"/>
 <path d="M333.6 6H103.5C88 6 75.4 18.6 75.4 34.1v443.8c0 15.5 12.6 28.1 27.1 28.1h305c16.5 0 29.1-12.6 29.1-28.1V109.1L333.6 6zm88.7 471.9c0 7.6-6.2 13.8-13.8 13.8h-305c-7.6 0-13.8-6.2-13.8-13.8V34.1c0-7.6 6.2-13.8 13.8-13.8h230.1V109h88.7v368.9z" fill="#24A885"/>
 <path d="m333.6 6v103.1h103z" fill="#16876B"/>
 <path d="M465.9 450.8H46.1V308c0-9.8 7.9-17.7 17.7-17.7h384.3c9.8 0 17.7 7.9 17.7 17.7v142.8z" fill="#16876B"/>
 <path d="m436.6 450.8v19.5l29.3-19.5zm-361.2 0v19.5l-29.3-19.5z" fill="#59E0B9"/>
 <path d="M64.1 308.4h383.7v124.5H64.1z" fill="#2EBA98"/>
 <g fill="#16876B">
  <path d="m298.3 78.6h-177a6.7 6.7 0 0 1 0-13.4h177a6.7 6.7 0 0 1 0 13.4zm0 32h-177a6.7 6.7 0 0 1 0-13.4h177a6.7 6.7 0 0 1 0 13.4zm93.5 31.9h-270.5a6.7 6.7 0 0 1 0-13.4h270.5a6.7 6.7 0 0 1 0 13.4zm0 32h-270.5a6.7 6.7 0 0 1 0-13.4h270.5a6.7 6.7 0 0 1 0 13.4zm0 32h-270.5a6.7 6.7 0 0 1 0-13.4h270.5a6.7 6.7 0 0 1 0 13.4zm0 31.9h-270.5a6.7 6.7 0 0 1 0-13.4h270.5a6.7 6.7 0 0 1 0 13.4zm0 32h-270.5a6.7 6.7 0 0 1 0-13.4h270.5a6.7 6.7 0 0 1 0 13.4z"/>
 </g>
 <g fill="#FFF">
  <path d="m172.8 362.7c1.4-2.2 3.2-3.8 5.3-5s4.4-1.8 6.9-1.8c5 0 8.9 1.7 11.7 5.2s4.3 8.8 4.3 16.1v27.5h-15v-27.7c0-3.7-0.5-6.2-1.4-7.6s-2.4-2.1-4.3-2.1c-1.7 0-3.1 0.2-4.4 0.7-1.2 0.5-2.3 1.2-3.1 2.1v34.5h-15v-69.1h15v27.2zm60-17.8v11.9h7.6v10.4h-7.6v22c0 1.7 0.3 2.9 1 3.7s1.6 1.1 2.8 1.1c0.8 0 1.4 0 1.8-0.1 0.5-0.1 1-0.2 1.7-0.4l1 11.1c-1.5 0.4-2.9 0.7-4.1 0.8-1.2 0.2-2.6 0.2-4.3 0.2-4.9 0-8.7-1.3-11.2-3.9-2.6-2.6-3.8-6.8-3.8-12.5v-22h-6.7v-10.4h6.7v-11.9h15.1zm35.3 11.9 0.5 6.3c1.5-2.3 3.4-4.1 5.7-5.3 2.3-1.3 4.9-1.9 7.9-1.9s5.5 0.6 7.7 1.9 3.8 3.3 4.9 5.9c1.5-2.5 3.4-4.4 5.7-5.8s5-2.1 8.1-2.1c4.7 0 8.3 1.7 11 5 2.7 3.4 4 8.5 4 15.5v28.3h-15v-28.3c0-3.4-0.5-5.8-1.4-7.1-1-1.3-2.4-1.9-4.3-1.9-1.4 0-2.7 0.3-3.8 0.8s-2 1.2-2.8 2.1v34.4h-15v-28.3c0-3.5-0.5-5.8-1.4-7.1s-2.4-1.9-4.4-1.9c-1.4 0-2.6 0.3-3.7 0.8s-2 1.2-2.8 2.1v34.4h-15v-47.9h14.1zm86 47.9h-15v-69.1h15v69.1z"/>
 </g>
</svg>
