<?xml version="1.0" encoding="UTF-8"?><svg xmlns="http://www.w3.org/2000/svg" xmlns:xlink="http://www.w3.org/1999/xlink" version="1.2" baseProfile="tiny" id="Layer_1" x="0px" y="0px" viewBox="0 0 512 512" xml:space="preserve"><g id="XMLID_558_"><g id="XMLID_22_"><g id="XMLID_137_"><path id="XMLID_142_" fill="#FFF" d="M422.3 477.9c0 7.6-6.2 13.8-13.8 13.8h-305c-7.6 0-13.8-6.2-13.8-13.8V34.1c0-7.6 6.2-13.8 13.8-13.8h230.1V109h88.7v368.9z"/><path id="XMLID_139_" fill="#2B669F" d="M333.6 6H103.5C88 6 75.4 18.6 75.4 34.1v443.8c0 15.5 12.6 28.1 28.1 28.1h305c15.5 0 28.1-12.6 28.1-28.1V109.1L333.6 6zm88.7 471.9c0 7.6-6.2 13.8-13.8 13.8h-305c-7.6 0-13.8-6.2-13.8-13.8V34.1c0-7.6 6.2-13.8 13.8-13.8h230.1V109h88.7v368.9z"/><path id="XMLID_138_" fill="#084272" d="M333.6 6v103.1h103z"/></g><g id="XMLID_132_"><path id="XMLID_136_" fill="#084272" d="M465.9 450.8H46.1V308c0-9.8 7.9-17.7 17.7-17.7h384.3c9.8 0 17.7 7.9 17.7 17.7v142.8z"/><path id="XMLID_135_" fill="#1A252D" d="M436.6 450.8v19.5l29.3-19.5z"/><path id="XMLID_134_" fill="#1A252D" d="M75.4 450.8v19.5l-29.3-19.5z"/><path id="XMLID_133_" fill="#2B669F" d="M64.1 308.4h383.7v124.5H64.1z"/></g><g id="XMLID_23_" fill="#2B669F"><path id="XMLID_131_" d="M298.3 78.6h-177a6.7 6.7 0 0 1 0-13.4h177a6.7 6.7 0 0 1 0 13.4z"/><path id="XMLID_130_" d="M298.3 110.6h-177a6.7 6.7 0 0 1 0-13.4h177a6.7 6.7 0 0 1 0 13.4z"/><path id="XMLID_129_" d="M391.8 142.5H121.3a6.7 6.7 0 0 1 0-13.4h270.5a6.7 6.7 0 0 1 0 13.4z"/><path id="XMLID_128_" d="M391.8 174.5H121.3a6.7 6.7 0 0 1 0-13.4h270.5a6.7 6.7 0 0 1 0 13.4z"/><path id="XMLID_127_" d="M391.8 206.5H121.3a6.7 6.7 0 0 1 0-13.4h270.5a6.7 6.7 0 0 1 0 13.4z"/><path id="XMLID_126_" d="M391.8 238.4H121.3a6.7 6.7 0 0 1 0-13.4h270.5a6.7 6.7 0 0 1 0 13.4z"/><path id="XMLID_24_" d="M391.8 270.4H121.3a6.7 6.7 0 0 1 0-13.4h270.5a6.7 6.7 0 0 1 0 13.4z"/></g></g><g id="XMLID_804_" fill="#FFF"><path id="XMLID_686_" d="M210.7 393.1h-13.6v-62.5h13.6v62.5z"/><path id="XMLID_688_" d="M222.9 371c0-6.5 1.8-11.8 5.5-15.9s8.8-6.1 15.4-6.1 11.8 2 15.5 6.1c3.7 4.1 5.5 9.4 5.5 15.9v.8c0 6.5-1.8 11.9-5.5 15.9-3.7 4.1-8.8 6.1-15.4 6.1-6.7 0-11.8-2-15.5-6.1s-5.5-9.4-5.5-15.9v-.8zm13.5.9c0 3.6.6 6.5 1.7 8.6 1.1 2.1 3.1 3.1 5.8 3.1 2.6 0 4.5-1 5.7-3.1 1.1-2.1 1.7-4.9 1.7-8.5v-1c0-3.5-.6-6.3-1.7-8.5-1.1-2.1-3.1-3.2-5.8-3.2-2.7 0-4.6 1.1-5.7 3.2-1.1 2.1-1.7 5-1.7 8.5v.9z"/><path id="XMLID_691_" d="M274.7 371.5c0-6.8 1.5-12.2 4.4-16.3 3-4.1 7.1-6.2 12.5-6.2 2.3 0 4.3.5 6 1.6 1.7 1.1 3.2 2.6 4.5 4.6l.9-5.4h11.9v42.9c0 5.7-2 10.1-5.9 13.3-3.9 3.1-9.3 4.7-16.2 4.7-2.2 0-4.6-.3-7.1-.9-2.5-.6-4.8-1.4-7.1-2.5l2.3-10c1.9.9 3.8 1.5 5.6 1.9 1.8.4 3.8.6 6.1.6 2.9 0 5-.6 6.4-1.7 1.4-1.1 2.1-3 2.1-5.4v-3.4c-1.2 1.6-2.7 2.8-4.3 3.6-1.6.8-3.5 1.2-5.5 1.2-5.3 0-9.5-2-12.4-5.9s-4.4-9.2-4.4-15.7v-1zm13.5.8c0 3.5.5 6.3 1.5 8.2 1 2 2.8 2.9 5.2 2.9 1.5 0 2.7-.2 3.8-.7 1.1-.5 1.9-1.1 2.6-2v-18.2c-.7-1-1.5-1.8-2.6-2.4-1-.5-2.3-.8-3.7-.8-2.4 0-4.1 1.1-5.2 3.3-1.1 2.2-1.6 5.2-1.6 8.8v.9z"/></g></g><metadata><rdf:RDF xmlns:rdf="http://www.w3.org/1999/02/22-rdf-syntax-ns#" xmlns:rdfs="http://www.w3.org/2000/01/rdf-schema#" xmlns:dc="http://purl.org/dc/elements/1.1/"><rdf:Description about="https://iconscout.com/legal#licenses" dc:publisher="Iconscout" dc:date="2017-11-07" dc:format="image/svg+xml" dc:language="en"><dc:creator><rdf:Bag><rdf:li>First Styles</rdf:li></rdf:Bag></dc:creator></rdf:Description></rdf:RDF></metadata></svg>