<?xml version="1.0" encoding="UTF-8"?><svg xmlns="http://www.w3.org/2000/svg" xmlns:xlink="http://www.w3.org/1999/xlink" version="1.2" baseProfile="tiny" id="Layer_1" x="0px" y="0px" viewBox="0 0 512 512" xml:space="preserve"><g id="XMLID_544_"><g id="XMLID_2_"><g id="XMLID_16_"><path id="XMLID_21_" fill="#FFF" d="M422.3 477.9c0 7.6-6.2 13.8-13.8 13.8h-305c-7.6 0-13.8-6.2-13.8-13.8V34.1c0-7.6 6.2-13.8 13.8-13.8h230.1V109h88.7v368.9z"/><path id="XMLID_18_" fill="#DE3258" d="M333.6 6H103.5C88 6 75.4 18.6 75.4 34.1v443.8c0 15.5 12.6 28.1 28.1 28.1h305c15.5 0 28.1-12.6 28.1-28.1V109.1L333.6 6zm88.7 471.9c0 7.6-6.2 13.8-13.8 13.8h-305c-7.6 0-13.8-6.2-13.8-13.8V34.1c0-7.6 6.2-13.8 13.8-13.8h230.1V109h88.7v368.9z"/><path id="XMLID_17_" fill="#B31647" d="M333.6 6v103.1h103z"/></g><g id="XMLID_11_"><path id="XMLID_15_" fill="#B31647" d="M465.9 450.8H46.1V308c0-9.8 7.9-17.7 17.7-17.7h384.3c9.8 0 17.7 7.9 17.7 17.7v142.8z"/><path id="XMLID_14_" fill="#770438" d="M436.6 450.8v19.5l29.3-19.5z"/><path id="XMLID_13_" fill="#770438" d="M75.4 450.8v19.5l-29.3-19.5z"/><path id="XMLID_12_" fill="#DE3258" d="M64.1 308.4h383.7v124.5H64.1z"/></g><g id="XMLID_3_" fill="#DE3258"><path id="XMLID_10_" d="M298.3 78.6h-177a6.7 6.7 0 0 1 0-13.4h177a6.7 6.7 0 0 1 0 13.4z"/><path id="XMLID_9_" d="M298.3 110.6h-177a6.7 6.7 0 0 1 0-13.4h177a6.7 6.7 0 0 1 0 13.4z"/><path id="XMLID_8_" d="M391.8 142.5H121.3a6.7 6.7 0 0 1 0-13.4h270.5a6.7 6.7 0 0 1 0 13.4z"/><path id="XMLID_7_" d="M391.8 174.5H121.3a6.7 6.7 0 0 1 0-13.4h270.5a6.7 6.7 0 0 1 0 13.4z"/><path id="XMLID_6_" d="M391.8 206.5H121.3a6.7 6.7 0 0 1 0-13.4h270.5a6.7 6.7 0 0 1 0 13.4z"/><path id="XMLID_5_" d="M391.8 238.4H121.3a6.7 6.7 0 0 1 0-13.4h270.5a6.7 6.7 0 0 1 0 13.4z"/><path id="XMLID_4_" d="M391.8 270.4H121.3a6.7 6.7 0 0 1 0-13.4h270.5a6.7 6.7 0 0 1 0 13.4z"/></g></g><g id="XMLID_805_" fill="#FFF"><path id="XMLID_694_" d="M178.6 355.2l.5 6.2c1.5-2.3 3.3-4 5.6-5.2 2.2-1.2 4.8-1.8 7.7-1.8 2.9 0 5.4.6 7.6 1.9 2.1 1.3 3.7 3.2 4.8 5.8 1.4-2.5 3.3-4.4 5.6-5.7 2.3-1.3 4.9-2 8-2 4.6 0 8.2 1.6 10.8 4.9 2.6 3.3 3.9 8.3 3.9 15.2v27.7h-14.7v-27.7c0-3.4-.5-5.7-1.4-6.9-.9-1.3-2.3-1.9-4.2-1.9-1.4 0-2.7.3-3.8.8-1.1.5-2 1.2-2.8 2.1v33.7h-14.7v-27.7c0-3.4-.5-5.7-1.4-6.9s-2.4-1.9-4.3-1.9c-1.3 0-2.5.3-3.6.8s-2 1.2-2.8 2.1v33.7h-14.7v-46.9h13.9z"/><path id="XMLID_696_" d="M268.5 364.5c2.6 0 4.7-.7 6.1-2.1 1.4-1.4 2.1-3.4 2.1-5.9 0-2-.7-3.6-2.2-5-1.4-1.4-3.4-2.1-5.9-2.1-1.9 0-3.4.5-4.7 1.6-1.3 1.1-1.9 2.5-1.9 4.3h-14.2l-.1-.3c-.2-5 1.8-9.1 5.9-12.2 4.1-3.1 9.1-4.7 15-4.7 6.9 0 12.3 1.6 16.5 4.7 4.1 3.1 6.2 7.6 6.2 13.3 0 2.9-.9 5.5-2.6 7.9s-4.1 4.3-7.1 5.7c3.4 1.2 6 3.1 7.9 5.6 1.9 2.5 2.8 5.5 2.8 9.1 0 5.8-2.2 10.3-6.7 13.6-4.4 3.3-10.1 5-17 5-6 0-11.1-1.6-15.5-4.7s-6.5-7.6-6.4-13.5l.1-.3h14.3c0 2.1.7 3.8 2.1 5.1 1.4 1.4 3.2 2 5.4 2 2.6 0 4.8-.7 6.5-2.2 1.7-1.5 2.5-3.3 2.5-5.4 0-3.1-.8-5.3-2.4-6.7-1.6-1.4-3.9-2.1-6.8-2.1h-6.9v-10.9h7z"/><path id="XMLID_698_" d="M333.6 395.2c-1.4 2.5-3.2 4.5-5.4 5.9-2.2 1.4-4.8 2.1-7.7 2.1-4.9 0-8.7-1.7-11.4-5.1-2.8-3.4-4.1-8.7-4.1-15.8v-26.9h14.6v27c0 3.7.5 6.2 1.4 7.5.9 1.4 2.4 2 4.4 2 1.6 0 2.9-.2 4.1-.7 1.2-.4 2.2-1.1 3-2v-34h14.7v46.9h-11.8l-1.8-6.9z"/></g></g><metadata><rdf:RDF xmlns:rdf="http://www.w3.org/1999/02/22-rdf-syntax-ns#" xmlns:rdfs="http://www.w3.org/2000/01/rdf-schema#" xmlns:dc="http://purl.org/dc/elements/1.1/"><rdf:Description about="https://iconscout.com/legal#licenses" dc:publisher="Iconscout" dc:date="2017-11-07" dc:format="image/svg+xml" dc:language="en"><dc:creator><rdf:Bag><rdf:li>First Styles</rdf:li></rdf:Bag></dc:creator></rdf:Description></rdf:RDF></metadata></svg>