<?xml version="1.0" encoding="UTF-8"?><svg xmlns="http://www.w3.org/2000/svg" xmlns:xlink="http://www.w3.org/1999/xlink" version="1.2" baseProfile="tiny" id="Layer_1" x="0px" y="0px" viewBox="0 0 512 512" xml:space="preserve"><g id="XMLID_615_"><g id="XMLID_283_"><g id="XMLID_297_"><path id="XMLID_302_" fill="#FFF" d="M422.3 477.9c0 7.6-6.2 13.8-13.8 13.8h-305c-7.6 0-13.8-6.2-13.8-13.8V34.1c0-7.6 6.2-13.8 13.8-13.8h230.1V109h88.7v368.9z"/><path id="XMLID_299_" fill="#475563" d="M333.6 6H103.5C88 6 75.4 18.6 75.4 34.1v443.8c0 15.5 12.6 28.1 28.1 28.1h305c15.5 0 28.1-12.6 28.1-28.1V109.1L333.6 6zm88.7 471.9c0 7.6-6.2 13.8-13.8 13.8h-305c-7.6 0-13.8-6.2-13.8-13.8V34.1c0-7.6 6.2-13.8 13.8-13.8h230.1V109h88.7v368.9z"/><path id="XMLID_298_" fill="#26333D" d="M333.6 6v103.1h103z"/></g><g id="XMLID_292_"><path id="XMLID_296_" fill="#29363F" d="M465.9 450.8H46.1V308c0-9.8 7.9-17.7 17.7-17.7h384.3c9.8 0 17.7 7.9 17.7 17.7v142.8z"/><path id="XMLID_295_" fill="#1B2730" d="M436.6 450.8v19.5l29.3-19.5z"/><path id="XMLID_294_" fill="#1B2730" d="M75.4 450.8v19.5l-29.3-19.5z"/><path id="XMLID_293_" fill="#475563" d="M64.1 308.4h383.7v124.5H64.1z"/></g><g id="XMLID_284_" fill="#29363F"><path id="XMLID_291_" d="M298.3 78.6h-177a6.7 6.7 0 0 1 0-13.4h177a6.7 6.7 0 0 1 0 13.4z"/><path id="XMLID_290_" d="M298.3 110.6h-177a6.7 6.7 0 0 1 0-13.4h177a6.7 6.7 0 0 1 0 13.4z"/><path id="XMLID_289_" d="M391.8 142.5H121.3a6.7 6.7 0 0 1 0-13.4h270.5a6.7 6.7 0 0 1 0 13.4z"/><path id="XMLID_288_" d="M391.8 174.5H121.3a6.7 6.7 0 0 1 0-13.4h270.5a6.7 6.7 0 0 1 0 13.4z"/><path id="XMLID_287_" d="M391.8 206.5H121.3a6.7 6.7 0 0 1 0-13.4h270.5a6.7 6.7 0 0 1 0 13.4z"/><path id="XMLID_286_" d="M391.8 238.4H121.3a6.7 6.7 0 0 1 0-13.4h270.5a6.7 6.7 0 0 1 0 13.4z"/><path id="XMLID_285_" d="M391.8 270.4H121.3a6.7 6.7 0 0 1 0-13.4h270.5a6.7 6.7 0 0 1 0 13.4z"/></g></g><g id="XMLID_806_" fill="#FFF"><path id="XMLID_700_" d="M172.7 334.1l.6 7c1.7-2.5 3.7-4.5 6.3-5.9 2.5-1.4 5.4-2.1 8.6-2.1 3.3 0 6.1.7 8.5 2.1 2.4 1.4 4.2 3.6 5.4 6.5 1.6-2.8 3.7-4.9 6.3-6.4 2.6-1.5 5.5-2.3 8.9-2.3 5.1 0 9.2 1.8 12.1 5.5 2.9 3.7 4.4 9.4 4.4 17v31.1h-16.5v-31.1c0-3.8-.5-6.4-1.6-7.8-1.1-1.4-2.6-2.1-4.8-2.1-1.6 0-3 .3-4.2.9-1.2.6-2.2 1.4-3.1 2.4V386.7h-16.5v-31.1c0-3.8-.5-6.4-1.6-7.8s-2.6-2.1-4.8-2.1c-1.5 0-2.9.3-4.1.9-1.2.6-2.3 1.4-3.1 2.4v37.8H157v-52.7h15.7z"/><path id="XMLID_702_" d="M277.6 372c0-1.3-.7-2.5-2.2-3.5-1.5-1-4.2-1.9-8.1-2.8-6.1-1.2-10.8-3.1-13.9-5.6-3.1-2.5-4.7-6-4.7-10.4 0-4.6 1.9-8.6 5.8-11.8 3.9-3.2 9.2-4.8 15.8-4.8 7 0 12.6 1.6 16.8 4.7 4.2 3.1 6.1 7.2 5.9 12.2l-.1.3h-16c0-2.1-.5-3.7-1.6-4.7-1-1.1-2.7-1.6-5.1-1.6-1.7 0-3.2.5-4.3 1.4-1.2.9-1.8 2.1-1.8 3.6 0 1.4.7 2.6 2 3.6s4.1 1.9 8.2 2.6c6.5 1.3 11.2 3.2 14.3 5.7 3.1 2.5 4.6 6.1 4.6 10.7 0 4.7-2.1 8.6-6.3 11.7-4.2 3.1-9.8 4.6-16.7 4.6-7.2 0-12.9-1.8-17-5.5s-6.2-7.7-6-12.2l.1-.3h14.9c.1 2.5.8 4.3 2.3 5.4 1.4 1.1 3.5 1.7 6.2 1.7 2.2 0 3.9-.4 5-1.3 1.3-.9 1.9-2.1 1.9-3.7z"/><path id="XMLID_704_" d="M305.9 360.5c0-8.2 1.8-14.8 5.4-19.9 3.6-5 8.6-7.6 15.2-7.6 2.8 0 5.2.7 7.3 2 2.1 1.3 3.9 3.2 5.5 5.6l1.1-6.6h14.5v52.1c0 7-2.4 12.3-7.1 16.2-4.8 3.8-11.3 5.7-19.7 5.7-2.7 0-5.6-.4-8.6-1.1-3-.7-5.8-1.8-8.6-3l2.8-12.2c2.4 1 4.6 1.8 6.8 2.3 2.2.5 4.6.8 7.4.8 3.5 0 6.1-.7 7.8-2.1 1.7-1.4 2.6-3.6 2.6-6.6V382c-1.5 1.9-3.2 3.4-5.2 4.3-2 1-4.2 1.5-6.7 1.5-6.5 0-11.5-2.4-15.1-7.2-3.6-4.8-5.4-11.2-5.4-19.1v-1zm16.4 1.1c0 4.3.6 7.6 1.9 10 1.3 2.4 3.4 3.6 6.4 3.6 1.8 0 3.3-.3 4.6-.8 1.3-.6 2.3-1.4 3.1-2.5v-22.2c-.8-1.3-1.9-2.2-3.1-2.9-1.3-.7-2.8-1-4.5-1-2.9 0-5 1.4-6.4 4.1-1.3 2.7-2 6.3-2 10.7v1z"/></g></g><metadata><rdf:RDF xmlns:rdf="http://www.w3.org/1999/02/22-rdf-syntax-ns#" xmlns:rdfs="http://www.w3.org/2000/01/rdf-schema#" xmlns:dc="http://purl.org/dc/elements/1.1/"><rdf:Description about="https://iconscout.com/legal#licenses" dc:publisher="Iconscout" dc:date="2017-11-07" dc:format="image/svg+xml" dc:language="en"><dc:creator><rdf:Bag><rdf:li>First Styles</rdf:li></rdf:Bag></dc:creator></rdf:Description></rdf:RDF></metadata></svg>