<?xml version="1.0" encoding="UTF-8"?><svg xmlns="http://www.w3.org/2000/svg" xmlns:xlink="http://www.w3.org/1999/xlink" version="1.2" baseProfile="tiny" id="Layer_1" x="0px" y="0px" viewBox="0 0 512 512" xml:space="preserve"><g id="XMLID_829_"><g id="XMLID_263_"><g id="XMLID_277_"><path id="XMLID_282_" fill="#FFF" d="M422.3 477.9c0 7.6-6.2 13.8-13.8 13.8h-305c-7.6 0-13.8-6.2-13.8-13.8V34.1c0-7.6 6.2-13.8 13.8-13.8h230.1V109h88.7v368.9z"/><path id="XMLID_279_" fill="#24A885" d="M333.6 6H103.5C88 6 75.4 18.6 75.4 34.1v443.8c0 15.5 12.6 28.1 27.1 28.1h305c16.5 0 29.1-12.6 29.1-28.1V109.1L333.6 6zm88.7 471.9c0 7.6-6.2 13.8-13.8 13.8h-305c-7.6 0-13.8-6.2-13.8-13.8V34.1c0-7.6 6.2-13.8 13.8-13.8h230.1V109h88.7v368.9z"/><path id="XMLID_278_" fill="#16876B" d="M333.6 6v103.1h103z"/></g><g id="XMLID_272_"><path id="XMLID_276_" fill="#16876B" d="M465.9 450.8H46.1V308c0-9.8 7.9-17.7 17.7-17.7h384.3c9.8 0 17.7 7.9 17.7 17.7v142.8z"/><path id="XMLID_275_" fill="#59E0B9" d="M436.6 450.8v19.5l29.3-19.5z"/><path id="XMLID_274_" fill="#59E0B9" d="M75.4 450.8v19.5l-29.3-19.5z"/><path id="XMLID_273_" fill="#2EBA98" d="M64.1 308.4h383.7v124.5H64.1z"/></g><g id="XMLID_264_" fill="#16876B"><path id="XMLID_271_" d="M298.3 78.6h-177a6.7 6.7 0 0 1 0-13.4h177a6.7 6.7 0 0 1 0 13.4z"/><path id="XMLID_270_" d="M298.3 110.6h-177a6.7 6.7 0 0 1 0-13.4h177a6.7 6.7 0 0 1 0 13.4z"/><path id="XMLID_269_" d="M391.8 142.5H121.3a6.7 6.7 0 0 1 0-13.4h270.5a6.7 6.7 0 0 1 0 13.4z"/><path id="XMLID_268_" d="M391.8 174.5H121.3a6.7 6.7 0 0 1 0-13.4h270.5a6.7 6.7 0 0 1 0 13.4z"/><path id="XMLID_267_" d="M391.8 206.5H121.3a6.7 6.7 0 0 1 0-13.4h270.5a6.7 6.7 0 0 1 0 13.4z"/><path id="XMLID_266_" d="M391.8 238.4H121.3a6.7 6.7 0 0 1 0-13.4h270.5a6.7 6.7 0 0 1 0 13.4z"/><path id="XMLID_265_" d="M391.8 270.4H121.3a6.7 6.7 0 0 1 0-13.4h270.5a6.7 6.7 0 0 1 0 13.4z"/></g></g><g id="XMLID_807_" fill="#FFF"><path id="XMLID_707_" d="M179.8 381c0-7.7 2.2-14 6.5-18.9 4.4-4.9 10.5-7.3 18.3-7.3 7.8 0 13.9 2.4 18.3 7.3s6.5 11.1 6.5 18.9v1c0 7.7-2.2 14-6.5 18.9-4.4 4.8-10.4 7.3-18.2 7.3-7.9 0-14-2.4-18.4-7.3-4.4-4.8-6.5-11.1-6.5-18.9v-1zm16 1c0 4.3.7 7.7 2 10.1 1.3 2.5 3.6 3.7 6.9 3.7 3.1 0 5.4-1.2 6.7-3.7 1.4-2.5 2-5.8 2-10.1v-1c0-4.2-.7-7.5-2-10-1.4-2.5-3.6-3.8-6.8-3.8-3.2 0-5.4 1.3-6.8 3.8-1.3 2.5-2 5.9-2 10v1z"/><path id="XMLID_710_" d="M241.2 381.5c0-8 1.7-14.5 5.2-19.4 3.5-4.9 8.4-7.4 14.8-7.4 2.4 0 4.5.5 6.4 1.6 1.9 1.1 3.6 2.6 5.1 4.7v-28h16v74h-14l-1.1-6.3c-1.5 2.3-3.4 4.1-5.4 5.4-2.1 1.2-4.5 1.9-7.1 1.9-6.3 0-11.2-2.3-14.7-7s-5.2-10.9-5.2-18.5v-1zm16 1c0 4.2.6 7.4 1.8 9.7 1.2 2.3 3.3 3.5 6.1 3.5 1.7 0 3.2-.3 4.4-.9 1.3-.6 2.3-1.5 3.2-2.7v-20.7c-.8-1.4-1.9-2.4-3.1-3.1-1.3-.7-2.7-1.1-4.4-1.1-2.8 0-4.9 1.3-6.2 3.9-1.3 2.6-1.9 6.1-1.9 10.4v1z"/><path id="XMLID_713_" d="M323.1 343v12.8h8.1v11.1h-8.1v23.5c0 1.8.4 3.2 1.1 4 .7.8 1.7 1.2 3 1.2.8 0 1.5 0 2-.1s1.1-.2 1.9-.4l1.1 11.9c-1.6.4-3.1.7-4.4.9-1.3.2-2.8.3-4.6.3-5.3 0-9.3-1.4-12-4.2-2.7-2.8-4.1-7.3-4.1-13.4V367h-7.2v-11.1h7.2V343h16z"/></g></g><metadata><rdf:RDF xmlns:rdf="http://www.w3.org/1999/02/22-rdf-syntax-ns#" xmlns:rdfs="http://www.w3.org/2000/01/rdf-schema#" xmlns:dc="http://purl.org/dc/elements/1.1/"><rdf:Description about="https://iconscout.com/legal#licenses" dc:publisher="Iconscout" dc:date="2017-11-07" dc:format="image/svg+xml" dc:language="en"><dc:creator><rdf:Bag><rdf:li>First Styles</rdf:li></rdf:Bag></dc:creator></rdf:Description></rdf:RDF></metadata></svg>