<?xml version="1.0" encoding="UTF-8"?><svg xmlns="http://www.w3.org/2000/svg" xmlns:xlink="http://www.w3.org/1999/xlink" version="1.2" baseProfile="tiny" id="Layer_1" x="0px" y="0px" viewBox="0 0 512 512" xml:space="preserve"><g id="XMLID_843_"><g id="XMLID_243_"><g id="XMLID_257_"><path id="XMLID_262_" fill="#FFF" d="M422.3 477.9c0 7.6-6.2 13.8-13.8 13.8h-305c-7.6 0-13.8-6.2-13.8-13.8V34.1c0-7.6 6.2-13.8 13.8-13.8h230.1V109h88.7v368.9z"/><path id="XMLID_259_" fill="#F3BB2F" d="M333.6 6H103.5C88 6 75.4 18.6 75.4 34.1v443.8c0 15.5 12.6 28.1 28.1 28.1h305c15.5 0 28.1-12.6 28.1-28.1V109.1L333.6 6zm88.7 471.9c0 7.6-6.2 13.8-13.8 13.8h-305c-7.6 0-13.8-6.2-13.8-13.8V34.1c0-7.6 6.2-13.8 13.8-13.8h230.1V109h88.7v368.9z"/><path id="XMLID_258_" fill="#DEA21E" d="M333.6 6v103.1h103z"/></g><g id="XMLID_252_"><path id="XMLID_256_" fill="#DEA21E" d="M465.9 450.8H46.1V308c0-9.8 7.9-17.7 17.7-17.7h384.3c9.8 0 17.7 7.9 17.7 17.7v142.8z"/><path id="XMLID_255_" fill="#B87D0F" d="M436.6 450.8v19.5l29.3-19.5z"/><path id="XMLID_254_" fill="#B87D0F" d="M75.4 450.8v19.5l-29.3-19.5z"/><path id="XMLID_253_" fill="#F3BB2F" d="M64.1 308.4h383.7v124.5H64.1z"/></g><g id="XMLID_244_" fill="#F3BB2F"><path id="XMLID_251_" d="M298.3 78.6h-177a6.7 6.7 0 0 1 0-13.4h177a6.7 6.7 0 0 1 0 13.4z"/><path id="XMLID_250_" d="M298.3 110.6h-177a6.7 6.7 0 0 1 0-13.4h177a6.7 6.7 0 0 1 0 13.4z"/><path id="XMLID_249_" d="M391.8 142.5H121.3a6.7 6.7 0 0 1 0-13.4h270.5a6.7 6.7 0 0 1 0 13.4z"/><path id="XMLID_248_" d="M391.8 174.5H121.3a6.7 6.7 0 0 1 0-13.4h270.5a6.7 6.7 0 0 1 0 13.4z"/><path id="XMLID_247_" d="M391.8 206.5H121.3a6.7 6.7 0 0 1 0-13.4h270.5a6.7 6.7 0 0 1 0 13.4z"/><path id="XMLID_246_" d="M391.8 238.4H121.3a6.7 6.7 0 0 1 0-13.4h270.5a6.7 6.7 0 0 1 0 13.4z"/><path id="XMLID_245_" d="M391.8 270.4H121.3a6.7 6.7 0 0 1 0-13.4h270.5a6.7 6.7 0 0 1 0 13.4z"/></g></g><g id="XMLID_808_" fill="#FFF"><path id="XMLID_715_" d="M186 364c0 5.8-1.3 10.5-3.9 14-2.6 3.5-6.3 5.3-11.1 5.3-1.9 0-3.5-.4-5-1.1-1.4-.7-2.7-1.8-3.8-3.1v18.3h-12.1v-53.5h11.4l.4 4.2c1.1-1.6 2.4-2.8 3.8-3.6 1.5-.9 3.2-1.3 5.1-1.3 4.8 0 8.5 1.8 11.1 5.5s3.9 8.6 3.9 14.6v.7zm-12-.8c0-3.3-.5-5.9-1.4-7.9-1-2-2.5-3-4.6-3-1.4 0-2.5.3-3.4.8-.9.5-1.7 1.2-2.2 2.2v16.2c.6.8 1.3 1.5 2.3 1.9.9.4 2.1.6 3.5.6 2.1 0 3.6-.9 4.6-2.6.9-1.8 1.4-4.2 1.4-7.3v-.9z"/><path id="XMLID_718_" d="M218.8 382.4c-.5-.8-.8-1.7-1.2-2.8-.3-1-.6-2.1-.7-3.2-1 2-2.3 3.7-3.9 4.9-1.5 1.2-3.5 1.8-6 1.8-4.1 0-7.2-1-9.5-3.1s-3.4-4.9-3.4-8.5c0-3.8 1.4-6.8 4.3-8.9 2.9-2.1 7.3-3.1 13.1-3.1h5v-2.8c0-1.6-.4-2.9-1.2-3.8-.8-.9-2-1.3-3.6-1.3-1.4 0-2.4.3-3.1 1-.7.7-1 1.7-1 3.1h-11.7l-.1-.2c-.2-3.5 1.3-6.5 4.4-8.8 3.1-2.4 7.2-3.6 12.3-3.6 4.8 0 8.7 1.2 11.6 3.6 3 2.4 4.4 5.8 4.4 10.2v14.6c0 2 .2 4 .5 5.7.3 1.8.9 3.5 1.6 5.3l-11.8-.1zm-8.5-7.8c1.5 0 2.8-.3 3.9-1s1.9-1.5 2.4-2.5V366h-4.9c-1.9 0-3.3.5-4.2 1.4s-1.3 2.1-1.3 3.5c0 1.1.4 2 1.1 2.7.8.7 1.8 1 3 1z"/><path id="XMLID_721_" d="M238.8 363.2c0-6 1.3-10.9 3.9-14.6 2.6-3.7 6.3-5.5 11.1-5.5 2 0 3.8.5 5.4 1.4 1.5 1 2.9 2.3 4 4.1l.8-4.8h10.7V382c0 5.1-1.7 9-5.2 11.8-3.5 2.8-8.3 4.2-14.4 4.2-2 0-4.1-.3-6.3-.8s-4.3-1.3-6.3-2.2l2.1-8.9c1.7.8 3.4 1.3 5 1.7 1.6.4 3.4.6 5.5.6 2.6 0 4.5-.5 5.7-1.5 1.3-1 1.9-2.6 1.9-4.9v-3c-1.1 1.4-2.4 2.5-3.8 3.2-1.4.7-3.1 1.1-4.9 1.1-4.8 0-8.5-1.8-11.1-5.3-2.6-3.5-3.9-8.2-3.9-14v-.8zm12 .8c0 3.1.5 5.6 1.4 7.3.9 1.8 2.5 2.6 4.7 2.6 1.3 0 2.4-.2 3.4-.6.9-.4 1.7-1 2.3-1.8v-16.3c-.6-.9-1.4-1.6-2.3-2.1-.9-.5-2-.7-3.3-.7-2.1 0-3.7 1-4.7 3s-1.4 4.6-1.4 7.8v.8z"/><path id="XMLID_724_" d="M303.8 383.2c-5.9 0-10.5-1.8-13.8-5.3-3.3-3.5-5-8-5-13.5V363c0-5.9 1.6-10.7 4.7-14.4 3.1-3.7 7.7-5.6 13.6-5.5 5.2 0 9.3 1.6 12.1 4.7 2.9 3.1 4.3 7.4 4.3 12.8v6.3h-22.2l-.1.2c.2 2 .9 3.7 2.3 4.9 1.3 1.3 3.2 1.9 5.6 1.9 2.3 0 4.2-.2 5.8-.6 1.5-.4 3.3-1 5.3-1.8l2.9 7.4c-1.7 1.2-3.9 2.2-6.7 3.1-2.7.8-5.7 1.2-8.8 1.2zm-.5-30.8c-1.9 0-3.4.6-4.3 1.8-.9 1.2-1.4 2.9-1.6 5l.1.2H308v-.9c0-2-.4-3.5-1.1-4.5-.7-1.1-1.9-1.6-3.6-1.6z"/><path id="XMLID_727_" d="M350.2 371.6c0-1-.5-1.8-1.6-2.6s-3.1-1.4-5.9-2c-4.5-.9-7.9-2.2-10.2-4.1-2.3-1.8-3.4-4.4-3.4-7.6 0-3.4 1.4-6.3 4.3-8.7 2.9-2.4 6.7-3.6 11.6-3.6 5.1 0 9.2 1.1 12.3 3.4 3 2.3 4.5 5.3 4.4 8.9l-.1.2h-11.7c0-1.5-.4-2.7-1.1-3.5-.8-.8-2-1.2-3.8-1.2-1.3 0-2.3.3-3.2 1s-1.3 1.6-1.3 2.6.5 1.9 1.5 2.6c1 .7 3 1.4 6 1.9 4.7.9 8.2 2.3 10.5 4.2 2.3 1.8 3.4 4.5 3.4 7.8 0 3.5-1.5 6.3-4.6 8.6-3.1 2.3-7.2 3.4-12.2 3.4-5.3 0-9.4-1.3-12.5-4-3.1-2.7-4.5-5.6-4.4-8.9l.1-.2h10.9c0 1.8.6 3.2 1.7 4 1.1.8 2.6 1.2 4.5 1.2 1.6 0 2.8-.3 3.7-.9.7-.4 1.1-1.3 1.1-2.5z"/></g></g><metadata><rdf:RDF xmlns:rdf="http://www.w3.org/1999/02/22-rdf-syntax-ns#" xmlns:rdfs="http://www.w3.org/2000/01/rdf-schema#" xmlns:dc="http://purl.org/dc/elements/1.1/"><rdf:Description about="https://iconscout.com/legal#licenses" dc:publisher="Iconscout" dc:date="2017-11-07" dc:format="image/svg+xml" dc:language="en"><dc:creator><rdf:Bag><rdf:li>First Styles</rdf:li></rdf:Bag></dc:creator></rdf:Description></rdf:RDF></metadata></svg>