<?xml version="1.0" encoding="UTF-8"?><svg xmlns="http://www.w3.org/2000/svg" xmlns:xlink="http://www.w3.org/1999/xlink" version="1.2" baseProfile="tiny" id="Layer_1" x="0px" y="0px" viewBox="0 0 512 512" xml:space="preserve"><g id="XMLID_857_"><g id="XMLID_223_"><g id="XMLID_237_"><path id="XMLID_242_" fill="#FFF" d="M422.3 477.9c0 7.6-6.2 13.8-13.8 13.8h-305c-7.6 0-13.8-6.2-13.8-13.8V34.1c0-7.6 6.2-13.8 13.8-13.8h230.1V109h88.7v368.9z"/><path id="XMLID_239_" fill="#2B669F" d="M333.6 6H103.5C88 6 75.4 18.6 75.4 34.1v443.8c0 15.5 12.6 28.1 28.1 28.1h305c15.5 0 28.1-12.6 28.1-28.1V109.1L333.6 6zm88.7 471.9c0 7.6-6.2 13.8-13.8 13.8h-305c-7.6 0-13.8-6.2-13.8-13.8V34.1c0-7.6 6.2-13.8 13.8-13.8h230.1V109h88.7v368.9z"/><path id="XMLID_238_" fill="#084272" d="M333.6 6v103.1h103z"/></g><g id="XMLID_232_"><path id="XMLID_236_" fill="#084272" d="M465.9 450.8H46.1V308c0-9.8 7.9-17.7 17.7-17.7h384.3c9.8 0 17.7 7.9 17.7 17.7v142.8z"/><path id="XMLID_235_" fill="#1A252D" d="M436.6 450.8v19.5l29.3-19.5z"/><path id="XMLID_234_" fill="#1A252D" d="M75.4 450.8v19.5l-29.3-19.5z"/><path id="XMLID_233_" fill="#2B669F" d="M64.1 308.4h383.7v124.5H64.1z"/></g><g id="XMLID_224_" fill="#2B669F"><path id="XMLID_231_" d="M298.3 78.6h-177a6.7 6.7 0 0 1 0-13.4h177a6.7 6.7 0 0 1 0 13.4z"/><path id="XMLID_230_" d="M298.3 110.6h-177a6.7 6.7 0 0 1 0-13.4h177a6.7 6.7 0 0 1 0 13.4z"/><path id="XMLID_229_" d="M391.8 142.5H121.3a6.7 6.7 0 0 1 0-13.4h270.5a6.7 6.7 0 0 1 0 13.4z"/><path id="XMLID_228_" d="M391.8 174.5H121.3a6.7 6.7 0 0 1 0-13.4h270.5a6.7 6.7 0 0 1 0 13.4z"/><path id="XMLID_227_" d="M391.8 206.5H121.3a6.7 6.7 0 0 1 0-13.4h270.5a6.7 6.7 0 0 1 0 13.4z"/><path id="XMLID_226_" d="M391.8 238.4H121.3a6.7 6.7 0 0 1 0-13.4h270.5a6.7 6.7 0 0 1 0 13.4z"/><path id="XMLID_225_" d="M391.8 270.4H121.3a6.7 6.7 0 0 1 0-13.4h270.5a6.7 6.7 0 0 1 0 13.4z"/></g></g><g id="XMLID_809_" fill="#FFF"><path id="XMLID_729_" d="M229.3 373.3c0 6.9-1.6 12.5-4.7 16.7-3.1 4.2-7.5 6.3-13.2 6.3-2.2 0-4.2-.4-5.9-1.3-1.7-.9-3.2-2.1-4.5-3.7v21.8h-14.4v-63.8h13.6l.4 5c1.3-1.9 2.8-3.3 4.6-4.3 1.8-1 3.8-1.5 6.1-1.5 5.7 0 10.1 2.2 13.3 6.6 3.1 4.4 4.7 10.2 4.7 17.4v.8zm-14.3-.9c0-3.9-.6-7-1.7-9.4-1.1-2.4-3-3.5-5.4-3.5-1.6 0-3 .3-4.1.9-1.1.6-2 1.5-2.7 2.6v19.2c.7 1 1.6 1.7 2.7 2.2 1.1.5 2.5.7 4.1.7 2.5 0 4.3-1 5.4-3.1 1.1-2.1 1.6-5 1.6-8.7v-.9z"/><path id="XMLID_732_" d="M239.8 372.4c0-7.2 1.6-13 4.7-17.4 3.1-4.4 7.6-6.6 13.3-6.6 2.1 0 4 .5 5.8 1.5 1.7 1 3.3 2.4 4.6 4.2V329h14.4v66.4H270l-1-5.6c-1.4 2.1-3 3.7-4.9 4.8-1.9 1.1-4 1.7-6.4 1.7-5.7 0-10.1-2.1-13.2-6.3-3.1-4.2-4.7-9.7-4.7-16.6v-1zm14.4.9c0 3.7.5 6.7 1.6 8.7 1.1 2.1 2.9 3.1 5.5 3.1 1.5 0 2.8-.3 4-.8 1.1-.6 2.1-1.4 2.8-2.4v-18.6c-.7-1.2-1.7-2.2-2.8-2.8-1.1-.7-2.4-1-3.9-1-2.6 0-4.4 1.2-5.5 3.5-1.1 2.4-1.7 5.5-1.7 9.4v.9z"/><path id="XMLID_735_" d="M300 395.4v-36.1h-6.6v-10h6.6v-4.8c0-5.3 1.6-9.3 4.8-12.2 3.2-2.9 7.7-4.3 13.5-4.3 1.1 0 2.2.1 3.3.2 1.1.2 2.4.4 3.8.7l-1.1 10.6c-.8-.1-1.5-.2-2.1-.3-.6-.1-1.3-.1-2.2-.1-1.8 0-3.2.5-4.2 1.4-1 .9-1.4 2.3-1.4 4v4.8h9.1v10h-9.1v36.1H300z"/></g></g><metadata><rdf:RDF xmlns:rdf="http://www.w3.org/1999/02/22-rdf-syntax-ns#" xmlns:rdfs="http://www.w3.org/2000/01/rdf-schema#" xmlns:dc="http://purl.org/dc/elements/1.1/"><rdf:Description about="https://iconscout.com/legal#licenses" dc:publisher="Iconscout" dc:date="2017-11-07" dc:format="image/svg+xml" dc:language="en"><dc:creator><rdf:Bag><rdf:li>First Styles</rdf:li></rdf:Bag></dc:creator></rdf:Description></rdf:RDF></metadata></svg>