<?xml version="1.0" encoding="UTF-8"?><svg xmlns="http://www.w3.org/2000/svg" xmlns:xlink="http://www.w3.org/1999/xlink" version="1.2" baseProfile="tiny" id="Layer_1" x="0px" y="0px" viewBox="0 0 512 512" xml:space="preserve"><g id="XMLID_967_"><g id="XMLID_383_"><g id="XMLID_397_"><path id="XMLID_402_" fill="#FFF" d="M422.3 477.9c0 7.6-6.2 13.8-13.8 13.8h-305c-7.6 0-13.8-6.2-13.8-13.8V34.1c0-7.6 6.2-13.8 13.8-13.8h230.1V109h88.7v368.9z"/><path id="XMLID_399_" fill="#475563" d="M333.6 6H103.5C88 6 75.4 18.6 75.4 34.1v443.8c0 15.5 12.6 28.1 28.1 28.1h305c15.5 0 28.1-12.6 28.1-28.1V109.1L333.6 6zm88.7 471.9c0 7.6-6.2 13.8-13.8 13.8h-305c-7.6 0-13.8-6.2-13.8-13.8V34.1c0-7.6 6.2-13.8 13.8-13.8h230.1V109h88.7v368.9z"/><path id="XMLID_398_" fill="#26333D" d="M333.6 6v103.1h103z"/></g><g id="XMLID_392_"><path id="XMLID_396_" fill="#29363F" d="M465.9 450.8H46.1V308c0-9.8 7.9-17.7 17.7-17.7h384.3c9.8 0 17.7 7.9 17.7 17.7v142.8z"/><path id="XMLID_395_" fill="#1B2730" d="M436.6 450.8v19.5l29.3-19.5z"/><path id="XMLID_394_" fill="#1B2730" d="M75.4 450.8v19.5l-29.3-19.5z"/><path id="XMLID_393_" fill="#475563" d="M64.1 308.4h383.7v124.5H64.1z"/></g><g id="XMLID_384_" fill="#29363F"><path id="XMLID_391_" d="M298.3 78.6h-177a6.7 6.7 0 0 1 0-13.4h177a6.7 6.7 0 0 1 0 13.4z"/><path id="XMLID_390_" d="M298.3 110.6h-177a6.7 6.7 0 0 1 0-13.4h177a6.7 6.7 0 0 1 0 13.4z"/><path id="XMLID_389_" d="M391.8 142.5H121.3a6.7 6.7 0 0 1 0-13.4h270.5a6.7 6.7 0 0 1 0 13.4z"/><path id="XMLID_388_" d="M391.8 174.5H121.3a6.7 6.7 0 0 1 0-13.4h270.5a6.7 6.7 0 0 1 0 13.4z"/><path id="XMLID_387_" d="M391.8 206.5H121.3a6.7 6.7 0 0 1 0-13.4h270.5a6.7 6.7 0 0 1 0 13.4z"/><path id="XMLID_386_" d="M391.8 238.4H121.3a6.7 6.7 0 0 1 0-13.4h270.5a6.7 6.7 0 0 1 0 13.4z"/><path id="XMLID_385_" d="M391.8 270.4H121.3a6.7 6.7 0 0 1 0-13.4h270.5a6.7 6.7 0 0 1 0 13.4z"/></g></g><g id="XMLID_811_" fill="#FFF"><path id="XMLID_745_" d="M223.6 369.9l-5.8-.1c-2.1 0-3.7.4-5 1.1-1.3.8-2.3 1.8-2.9 3.2V412H192v-57.4h16.9l.6 8.4c1.2-3 2.8-5.3 4.8-7 2-1.7 4.3-2.5 7-2.5.8 0 1.5.1 2.2.2.6.1 1.3.3 2 .5l-1.9 15.7z"/><path id="XMLID_747_" d="M259.3 340.3v14.3h9.1V367h-9.1v26.3c0 2.1.4 3.5 1.2 4.4.8.9 2 1.4 3.4 1.4.9 0 1.7 0 2.2-.1.5-.1 1.2-.2 2.1-.4l1.2 13.3c-1.8.5-3.4.8-4.9 1-1.5.2-3.2.3-5.1.3-5.9 0-10.4-1.6-13.5-4.7-3.1-3.1-4.6-8.1-4.6-15V367h-8v-12.4h8v-14.3h18z"/><path id="XMLID_749_" d="M288.5 412v-45h-8.3v-12.4h8.3v-5.9c0-6.6 2-11.6 5.9-15.2 4-3.6 9.6-5.3 16.8-5.3 1.4 0 2.8.1 4.2.3 1.4.2 3 .5 4.7.8l-1.3 13.2c-1-.2-1.9-.3-2.6-.4-.7-.1-1.6-.1-2.7-.1-2.3 0-4 .6-5.2 1.8-1.2 1.2-1.8 2.8-1.8 5v5.9h11.4V367h-11.4v45h-18z"/></g></g><metadata><rdf:RDF xmlns:rdf="http://www.w3.org/1999/02/22-rdf-syntax-ns#" xmlns:rdfs="http://www.w3.org/2000/01/rdf-schema#" xmlns:dc="http://purl.org/dc/elements/1.1/"><rdf:Description about="https://iconscout.com/legal#licenses" dc:publisher="Iconscout" dc:date="2017-11-07" dc:format="image/svg+xml" dc:language="en"><dc:creator><rdf:Bag><rdf:li>First Styles</rdf:li></rdf:Bag></dc:creator></rdf:Description></rdf:RDF></metadata></svg>