<?xml version="1.0" encoding="UTF-8"?><svg xmlns="http://www.w3.org/2000/svg" xmlns:xlink="http://www.w3.org/1999/xlink" version="1.2" baseProfile="tiny" id="Layer_1" x="0px" y="0px" viewBox="0 0 512 512" xml:space="preserve"><g id="XMLID_953_"><g id="XMLID_363_"><g id="XMLID_377_"><path id="XMLID_382_" fill="#FFF" d="M422.3 477.9c0 7.6-6.2 13.8-13.8 13.8h-305c-7.6 0-13.8-6.2-13.8-13.8V34.1c0-7.6 6.2-13.8 13.8-13.8h230.1V109h88.7v368.9z"/><path id="XMLID_379_" fill="#24A885" d="M333.6 6H103.5C88 6 75.4 18.6 75.4 34.1v443.8c0 15.5 12.6 28.1 27.1 28.1h305c16.5 0 29.1-12.6 29.1-28.1V109.1L333.6 6zm88.7 471.9c0 7.6-6.2 13.8-13.8 13.8h-305c-7.6 0-13.8-6.2-13.8-13.8V34.1c0-7.6 6.2-13.8 13.8-13.8h230.1V109h88.7v368.9z"/><path id="XMLID_378_" fill="#16876B" d="M333.6 6v103.1h103z"/></g><g id="XMLID_372_"><path id="XMLID_376_" fill="#16876B" d="M465.9 450.8H46.1V308c0-9.8 7.9-17.7 17.7-17.7h384.3c9.8 0 17.7 7.9 17.7 17.7v142.8z"/><path id="XMLID_375_" fill="#59E0B9" d="M436.6 450.8v19.5l29.3-19.5z"/><path id="XMLID_374_" fill="#59E0B9" d="M75.4 450.8v19.5l-29.3-19.5z"/><path id="XMLID_373_" fill="#2EBA98" d="M64.1 308.4h383.7v124.5H64.1z"/></g><g id="XMLID_364_" fill="#16876B"><path id="XMLID_371_" d="M298.3 78.6h-177a6.7 6.7 0 0 1 0-13.4h177a6.7 6.7 0 0 1 0 13.4z"/><path id="XMLID_370_" d="M298.3 110.6h-177a6.7 6.7 0 0 1 0-13.4h177a6.7 6.7 0 0 1 0 13.4z"/><path id="XMLID_369_" d="M391.8 142.5H121.3a6.7 6.7 0 0 1 0-13.4h270.5a6.7 6.7 0 0 1 0 13.4z"/><path id="XMLID_368_" d="M391.8 174.5H121.3a6.7 6.7 0 0 1 0-13.4h270.5a6.7 6.7 0 0 1 0 13.4z"/><path id="XMLID_367_" d="M391.8 206.5H121.3a6.7 6.7 0 0 1 0-13.4h270.5a6.7 6.7 0 0 1 0 13.4z"/><path id="XMLID_366_" d="M391.8 238.4H121.3a6.7 6.7 0 0 1 0-13.4h270.5a6.7 6.7 0 0 1 0 13.4z"/><path id="XMLID_365_" d="M391.8 270.4H121.3a6.7 6.7 0 0 1 0-13.4h270.5a6.7 6.7 0 0 1 0 13.4z"/></g></g><g id="XMLID_812_" fill="#FFF"><path id="XMLID_751_" d="M187.4 383.2c0-1.4-.8-2.7-2.4-3.8-1.6-1.1-4.6-2.1-8.8-3-6.7-1.3-11.8-3.4-15.2-6.1-3.4-2.8-5.1-6.6-5.1-11.4 0-5.1 2.1-9.4 6.4-13 4.3-3.5 10.1-5.3 17.4-5.3 7.7 0 13.8 1.7 18.4 5.2 4.6 3.4 6.7 7.9 6.5 13.3l-.1.3H187c0-2.3-.6-4-1.7-5.2-1.1-1.2-3-1.8-5.6-1.8-1.9 0-3.5.5-4.8 1.5-1.3 1-1.9 2.4-1.9 4 0 1.5.7 2.8 2.2 3.9 1.5 1.1 4.5 2 8.9 2.9 7.1 1.4 12.3 3.5 15.7 6.2 3.4 2.8 5.1 6.7 5.1 11.7 0 5.2-2.3 9.5-6.9 12.8-4.6 3.4-10.7 5-18.3 5-7.9 0-14.1-2-18.7-6s-6.8-8.4-6.5-13.4l.1-.3h16.3c.1 2.7.9 4.7 2.5 5.9 1.6 1.2 3.8 1.8 6.8 1.8 2.4 0 4.3-.5 5.5-1.4 1.1-.7 1.7-2 1.7-3.8z"/><path id="XMLID_753_" d="M243.8 358.7h.3l7.3-17h20.2l-16.8 28.6 17.4 29.2H252l-7.7-17.6h-.3l-7.7 17.6H216l17.4-29.2-16.8-28.6h20.1l7.1 17z"/><path id="XMLID_755_" d="M334.5 374h.3l5.7-32.3h17.2l-13.6 57.8h-15.3l-9.4-29.6h-.3l-9.5 29.6h-15.2l-13.6-57.8H298l5.8 32.5h.3l9.5-32.5H325l9.5 32.3z"/></g></g><metadata><rdf:RDF xmlns:rdf="http://www.w3.org/1999/02/22-rdf-syntax-ns#" xmlns:rdfs="http://www.w3.org/2000/01/rdf-schema#" xmlns:dc="http://purl.org/dc/elements/1.1/"><rdf:Description about="https://iconscout.com/legal#licenses" dc:publisher="Iconscout" dc:date="2017-11-07" dc:format="image/svg+xml" dc:language="en"><dc:creator><rdf:Bag><rdf:li>First Styles</rdf:li></rdf:Bag></dc:creator></rdf:Description></rdf:RDF></metadata></svg>