<?xml version="1.0" encoding="UTF-8"?><svg xmlns="http://www.w3.org/2000/svg" xmlns:xlink="http://www.w3.org/1999/xlink" version="1.2" baseProfile="tiny" id="Layer_1" x="0px" y="0px" viewBox="0 0 512 512" xml:space="preserve"><g id="XMLID_911_"><g id="XMLID_303_"><g id="XMLID_317_"><path id="XMLID_322_" fill="#FFF" d="M422.3 477.9c0 7.6-6.2 13.8-13.8 13.8h-305c-7.6 0-13.8-6.2-13.8-13.8V34.1c0-7.6 6.2-13.8 13.8-13.8h230.1V109h88.7v368.9z"/><path id="XMLID_319_" fill="#DE3258" d="M333.6 6H103.5C88 6 75.4 18.6 75.4 34.1v443.8c0 15.5 12.6 28.1 28.1 28.1h305c15.5 0 28.1-12.6 28.1-28.1V109.1L333.6 6zm88.7 471.9c0 7.6-6.2 13.8-13.8 13.8h-305c-7.6 0-13.8-6.2-13.8-13.8V34.1c0-7.6 6.2-13.8 13.8-13.8h230.1V109h88.7v368.9z"/><path id="XMLID_318_" fill="#B31647" d="M333.6 6v103.1h103z"/></g><g id="XMLID_312_"><path id="XMLID_316_" fill="#B31647" d="M465.9 450.8H46.1V308c0-9.8 7.9-17.7 17.7-17.7h384.3c9.8 0 17.7 7.9 17.7 17.7v142.8z"/><path id="XMLID_315_" fill="#770438" d="M436.6 450.8v19.5l29.3-19.5z"/><path id="XMLID_314_" fill="#770438" d="M75.4 450.8v19.5l-29.3-19.5z"/><path id="XMLID_313_" fill="#DE3258" d="M64.1 308.4h383.7v124.5H64.1z"/></g><g id="XMLID_304_" fill="#DE3258"><path id="XMLID_311_" d="M298.3 78.6h-177a6.7 6.7 0 0 1 0-13.4h177a6.7 6.7 0 0 1 0 13.4z"/><path id="XMLID_310_" d="M298.3 110.6h-177a6.7 6.7 0 0 1 0-13.4h177a6.7 6.7 0 0 1 0 13.4z"/><path id="XMLID_309_" d="M391.8 142.5H121.3a6.7 6.7 0 0 1 0-13.4h270.5a6.7 6.7 0 0 1 0 13.4z"/><path id="XMLID_308_" d="M391.8 174.5H121.3a6.7 6.7 0 0 1 0-13.4h270.5a6.7 6.7 0 0 1 0 13.4z"/><path id="XMLID_307_" d="M391.8 206.5H121.3a6.7 6.7 0 0 1 0-13.4h270.5a6.7 6.7 0 0 1 0 13.4z"/><path id="XMLID_306_" d="M391.8 238.4H121.3a6.7 6.7 0 0 1 0-13.4h270.5a6.7 6.7 0 0 1 0 13.4z"/><path id="XMLID_305_" d="M391.8 270.4H121.3a6.7 6.7 0 0 1 0-13.4h270.5a6.7 6.7 0 0 1 0 13.4z"/></g></g><g id="XMLID_815_" fill="#FFF"><path id="XMLID_770_" d="M214.1 374.7h.3l4.6-26h13.9L222 395.2h-12.3l-7.6-23.8h-.3l-7.6 23.8h-12.3l-11-46.5h13.9l4.6 26.2h.3l7.6-26.2h9.2l7.6 26z"/><path id="XMLID_772_" d="M244.2 384.9v-36.3h13.7l.4 5.1c1.3-1.9 2.8-3.4 4.6-4.4 1.8-1 3.8-1.5 6.2-1.5 5.8 0 10.2 2.2 13.4 6.7 3.2 4.4 4.8 10.3 4.8 17.6v.9c0 7-1.6 12.6-4.7 16.8-3.2 4.2-7.6 6.3-13.3 6.3-2.2 0-4.2-.4-6-1.3-1.7-.9-3.2-2.1-4.5-3.7v22h-14.5v-28.2m28.5-12.9c0-3.9-.6-7.1-1.7-9.5-1.1-2.4-3-3.6-5.5-3.6-1.6 0-3 .3-4.2.9-1.1.6-2 1.5-2.7 2.6V382c.7 1 1.6 1.7 2.7 2.2 1.1.5 2.5.7 4.2.7 2.6 0 4.4-1.1 5.5-3.2 1.1-2.1 1.7-5.1 1.7-8.8v-.9z"/><path id="XMLID_775_" d="M297.9 372c0-7.3 1.6-13.1 4.8-17.6 3.2-4.4 7.6-6.7 13.4-6.7 2.2 0 4.1.5 5.8 1.5 1.7 1 3.3 2.4 4.7 4.2V328h14.5v67.1h-12.7l-1-5.7c-1.4 2.1-3 3.7-4.9 4.9-1.9 1.1-4 1.7-6.5 1.7-5.7 0-10.2-2.1-13.3-6.4s-4.7-9.9-4.7-16.8v-.8zm14.6.9c0 3.8.6 6.7 1.7 8.8 1.1 2.1 3 3.2 5.6 3.2 1.5 0 2.9-.3 4-.8 1.2-.6 2.1-1.4 2.9-2.5v-18.8c-.7-1.2-1.7-2.2-2.8-2.8-1.1-.7-2.5-1-4-1-2.6 0-4.4 1.2-5.6 3.6-1.1 2.4-1.7 5.5-1.7 9.5v.8z"/></g></g><metadata><rdf:RDF xmlns:rdf="http://www.w3.org/1999/02/22-rdf-syntax-ns#" xmlns:rdfs="http://www.w3.org/2000/01/rdf-schema#" xmlns:dc="http://purl.org/dc/elements/1.1/"><rdf:Description about="https://iconscout.com/legal#licenses" dc:publisher="Iconscout" dc:date="2017-11-07" dc:format="image/svg+xml" dc:language="en"><dc:creator><rdf:Bag><rdf:li>First Styles</rdf:li></rdf:Bag></dc:creator></rdf:Description></rdf:RDF></metadata></svg>