<?xml version="1.0" encoding="UTF-8"?><svg xmlns="http://www.w3.org/2000/svg" xmlns:xlink="http://www.w3.org/1999/xlink" version="1.2" baseProfile="tiny" id="Layer_1" x="0px" y="0px" viewBox="0 0 512 512" xml:space="preserve"><g id="XMLID_981_"><g id="XMLID_483_"><g id="XMLID_497_"><path id="XMLID_502_" fill="#FFF" d="M422.3 477.9c0 7.6-6.2 13.8-13.8 13.8h-305c-7.6 0-13.8-6.2-13.8-13.8V34.1c0-7.6 6.2-13.8 13.8-13.8h230.1V109h88.7v368.9z"/><path id="XMLID_499_" fill="#475563" d="M333.6 6H103.5C88 6 75.4 18.6 75.4 34.1v443.8c0 15.5 12.6 28.1 28.1 28.1h305c15.5 0 28.1-12.6 28.1-28.1V109.1L333.6 6zm88.7 471.9c0 7.6-6.2 13.8-13.8 13.8h-305c-7.6 0-13.8-6.2-13.8-13.8V34.1c0-7.6 6.2-13.8 13.8-13.8h230.1V109h88.7v368.9z"/><path id="XMLID_498_" fill="#26333D" d="M333.6 6v103.1h103z"/></g><g id="XMLID_492_"><path id="XMLID_496_" fill="#29363F" d="M465.9 450.8H46.1V308c0-9.8 7.9-17.7 17.7-17.7h384.3c9.8 0 17.7 7.9 17.7 17.7v142.8z"/><path id="XMLID_495_" fill="#1B2730" d="M436.6 450.8v19.5l29.3-19.5z"/><path id="XMLID_494_" fill="#1B2730" d="M75.4 450.8v19.5l-29.3-19.5z"/><path id="XMLID_493_" fill="#475563" d="M64.1 308.4h383.7v124.5H64.1z"/></g><g id="XMLID_484_" fill="#29363F"><path id="XMLID_491_" d="M298.3 78.6h-177a6.7 6.7 0 0 1 0-13.4h177a6.7 6.7 0 0 1 0 13.4z"/><path id="XMLID_490_" d="M298.3 110.6h-177a6.7 6.7 0 0 1 0-13.4h177a6.7 6.7 0 0 1 0 13.4z"/><path id="XMLID_489_" d="M391.8 142.5H121.3a6.7 6.7 0 0 1 0-13.4h270.5a6.7 6.7 0 0 1 0 13.4z"/><path id="XMLID_488_" d="M391.8 174.5H121.3a6.7 6.7 0 0 1 0-13.4h270.5a6.7 6.7 0 0 1 0 13.4z"/><path id="XMLID_487_" d="M391.8 206.5H121.3a6.7 6.7 0 0 1 0-13.4h270.5a6.7 6.7 0 0 1 0 13.4z"/><path id="XMLID_486_" d="M391.8 238.4H121.3a6.7 6.7 0 0 1 0-13.4h270.5a6.7 6.7 0 0 1 0 13.4z"/><path id="XMLID_485_" d="M391.8 270.4H121.3a6.7 6.7 0 0 1 0-13.4h270.5a6.7 6.7 0 0 1 0 13.4z"/></g></g><g id="XMLID_816_" fill="#FFF"><path id="XMLID_778_" d="M212.7 364.4h.3l4.9-27.9h14.8L221 386.4h-13.2l-8.1-25.5h-.3l-8.2 25.5h-13.1l-11.8-49.9h14.8l5 28.1h.3l8.2-28.1h9.8l8.3 27.9z"/><path id="XMLID_780_" d="M291.1 362.5c0 7.5-1.7 13.5-5.1 18.1-3.4 4.5-8.1 6.8-14.3 6.8-2.4 0-4.5-.5-6.4-1.4-1.9-.9-3.5-2.3-4.9-4v23.6h-15.6v-69.1h14.7l.5 5.4c1.4-2 3-3.6 5-4.7 1.9-1.1 4.1-1.7 6.6-1.7 6.2 0 11 2.4 14.4 7.1 3.4 4.8 5.1 11 5.1 18.8v1.1zm-15.5-.9c0-4.2-.6-7.6-1.8-10.1-1.2-2.6-3.2-3.8-5.9-3.8-1.8 0-3.2.3-4.4 1-1.2.6-2.2 1.6-2.9 2.8v20.8c.7 1.1 1.7 1.9 2.9 2.4s2.7.8 4.5.8c2.7 0 4.7-1.1 5.9-3.4 1.2-2.3 1.8-5.4 1.8-9.5v-1z"/><path id="XMLID_783_" d="M330.6 372.4c0-1.2-.7-2.3-2.1-3.3-1.4-1-3.9-1.8-7.6-2.6-5.8-1.1-10.2-2.9-13.1-5.3-3-2.4-4.4-5.7-4.4-9.8 0-4.4 1.8-8.1 5.5-11.2 3.7-3.1 8.7-4.6 15-4.6 6.6 0 11.9 1.5 15.9 4.5 3.9 3 5.8 6.8 5.6 11.5l-.1.3h-15.1c0-2-.5-3.5-1.5-4.5s-2.6-1.5-4.8-1.5c-1.6 0-3 .4-4.1 1.3-1.1.9-1.7 2-1.7 3.4 0 1.3.6 2.4 1.9 3.4 1.3.9 3.9 1.8 7.7 2.5 6.1 1.2 10.6 3 13.6 5.4 2.9 2.4 4.4 5.8 4.4 10.1 0 4.5-2 8.2-6 11.1-4 2.9-9.2 4.4-15.8 4.4-6.8 0-12.2-1.7-16.1-5.2-4-3.4-5.8-7.3-5.6-11.5l.1-.3h14.1c.1 2.4.8 4.1 2.1 5.1 1.4 1 3.3 1.6 5.8 1.6 2.1 0 3.7-.4 4.7-1.2 1.1-.9 1.6-2.1 1.6-3.6z"/></g></g><metadata><rdf:RDF xmlns:rdf="http://www.w3.org/1999/02/22-rdf-syntax-ns#" xmlns:rdfs="http://www.w3.org/2000/01/rdf-schema#" xmlns:dc="http://purl.org/dc/elements/1.1/"><rdf:Description about="https://iconscout.com/legal#licenses" dc:publisher="Iconscout" dc:date="2017-11-07" dc:format="image/svg+xml" dc:language="en"><dc:creator><rdf:Bag><rdf:li>First Styles</rdf:li></rdf:Bag></dc:creator></rdf:Description></rdf:RDF></metadata></svg>