<?xml version="1.0" encoding="UTF-8"?><svg xmlns="http://www.w3.org/2000/svg" xmlns:xlink="http://www.w3.org/1999/xlink" version="1.2" baseProfile="tiny" id="Layer_1" x="0px" y="0px" viewBox="0 0 512 512" xml:space="preserve"><g id="XMLID_995_"><g id="XMLID_463_"><g id="XMLID_477_"><path id="XMLID_482_" fill="#FFF" d="M422.3 477.9c0 7.6-6.2 13.8-13.8 13.8h-305c-7.6 0-13.8-6.2-13.8-13.8V34.1c0-7.6 6.2-13.8 13.8-13.8h230.1V109h88.7v368.9z"/><path id="XMLID_479_" fill="#24A885" d="M333.6 6H103.5C88 6 75.4 18.6 75.4 34.1v443.8c0 15.5 12.6 28.1 27.1 28.1h305c16.5 0 29.1-12.6 29.1-28.1V109.1L333.6 6zm88.7 471.9c0 7.6-6.2 13.8-13.8 13.8h-305c-7.6 0-13.8-6.2-13.8-13.8V34.1c0-7.6 6.2-13.8 13.8-13.8h230.1V109h88.7v368.9z"/><path id="XMLID_478_" fill="#16876B" d="M333.6 6v103.1h103z"/></g><g id="XMLID_472_"><path id="XMLID_476_" fill="#16876B" d="M465.9 450.8H46.1V308c0-9.8 7.9-17.7 17.7-17.7h384.3c9.8 0 17.7 7.9 17.7 17.7v142.8z"/><path id="XMLID_475_" fill="#59E0B9" d="M436.6 450.8v19.5l29.3-19.5z"/><path id="XMLID_474_" fill="#59E0B9" d="M75.4 450.8v19.5l-29.3-19.5z"/><path id="XMLID_473_" fill="#2EBA98" d="M64.1 308.4h383.7v124.5H64.1z"/></g><g id="XMLID_464_" fill="#16876B"><path id="XMLID_471_" d="M298.3 78.6h-177a6.7 6.7 0 0 1 0-13.4h177a6.7 6.7 0 0 1 0 13.4z"/><path id="XMLID_470_" d="M298.3 110.6h-177a6.7 6.7 0 0 1 0-13.4h177a6.7 6.7 0 0 1 0 13.4z"/><path id="XMLID_469_" d="M391.8 142.5H121.3a6.7 6.7 0 0 1 0-13.4h270.5a6.7 6.7 0 0 1 0 13.4z"/><path id="XMLID_468_" d="M391.8 174.5H121.3a6.7 6.7 0 0 1 0-13.4h270.5a6.7 6.7 0 0 1 0 13.4z"/><path id="XMLID_467_" d="M391.8 206.5H121.3a6.7 6.7 0 0 1 0-13.4h270.5a6.7 6.7 0 0 1 0 13.4z"/><path id="XMLID_466_" d="M391.8 238.4H121.3a6.7 6.7 0 0 1 0-13.4h270.5a6.7 6.7 0 0 1 0 13.4z"/><path id="XMLID_465_" d="M391.8 270.4H121.3a6.7 6.7 0 0 1 0-13.4h270.5a6.7 6.7 0 0 1 0 13.4z"/></g></g><g id="XMLID_817_" fill="#FFF"><path id="XMLID_785_" d="M191.6 371.5h.3l7-16.4h19.4l-16.1 27.4 16.7 28.1h-19.4l-7.4-16.9h-.3l-7.4 16.9H165l16.7-28.1-16.2-27.4h19.3l6.8 16.4z"/><path id="XMLID_787_" d="M247.3 355.1l.6 7.3c1.7-2.7 3.9-4.7 6.6-6.2 2.6-1.5 5.7-2.2 9.1-2.2 3.5 0 6.4.8 8.9 2.3 2.5 1.5 4.4 3.8 5.6 6.9 1.7-2.9 3.9-5.2 6.6-6.7 2.7-1.6 5.8-2.4 9.4-2.4 5.4 0 9.6 1.9 12.7 5.8 3.1 3.9 4.6 9.9 4.6 17.9v32.8H294v-32.8c0-4-.6-6.7-1.7-8.2-1.1-1.5-2.8-2.2-5-2.2-1.7 0-3.2.3-4.4.9-1.3.6-2.4 1.4-3.3 2.5 0 .6 0 1.1.1 1.5 0 .4.1.8.1 1.3v37h-17.3v-32.8c0-4-.5-6.7-1.6-8.2-1.1-1.5-2.8-2.2-5.1-2.2-1.6 0-3 .3-4.3.9-1.3.6-2.4 1.4-3.3 2.5v39.8H231v-55.5h16.3z"/><path id="XMLID_789_" d="M347 410.6h-17.4v-80H347v80z"/></g></g><metadata><rdf:RDF xmlns:rdf="http://www.w3.org/1999/02/22-rdf-syntax-ns#" xmlns:rdfs="http://www.w3.org/2000/01/rdf-schema#" xmlns:dc="http://purl.org/dc/elements/1.1/"><rdf:Description about="https://iconscout.com/legal#licenses" dc:publisher="Iconscout" dc:date="2017-11-07" dc:format="image/svg+xml" dc:language="en"><dc:creator><rdf:Bag><rdf:li>First Styles</rdf:li></rdf:Bag></dc:creator></rdf:Description></rdf:RDF></metadata></svg>