<?xml version="1.0" encoding="UTF-8"?><svg xmlns="http://www.w3.org/2000/svg" xmlns:xlink="http://www.w3.org/1999/xlink" version="1.2" baseProfile="tiny" id="Layer_1" x="0px" y="0px" viewBox="0 0 512 512" xml:space="preserve"><g id="XMLID_1009_"><g id="XMLID_443_"><g id="XMLID_457_"><path id="XMLID_462_" fill="#FFF" d="M422.3 477.9c0 7.6-6.2 13.8-13.8 13.8h-305c-7.6 0-13.8-6.2-13.8-13.8V34.1c0-7.6 6.2-13.8 13.8-13.8h230.1V109h88.7v368.9z"/><path id="XMLID_459_" fill="#F3BB2F" d="M333.6 6H103.5C88 6 75.4 18.6 75.4 34.1v443.8c0 15.5 12.6 28.1 28.1 28.1h305c15.5 0 28.1-12.6 28.1-28.1V109.1L333.6 6zm88.7 471.9c0 7.6-6.2 13.8-13.8 13.8h-305c-7.6 0-13.8-6.2-13.8-13.8V34.1c0-7.6 6.2-13.8 13.8-13.8h230.1V109h88.7v368.9z"/><path id="XMLID_458_" fill="#DEA21E" d="M333.6 6v103.1h103z"/></g><g id="XMLID_452_"><path id="XMLID_456_" fill="#DEA21E" d="M465.9 450.8H46.1V308c0-9.8 7.9-17.7 17.7-17.7h384.3c9.8 0 17.7 7.9 17.7 17.7v142.8z"/><path id="XMLID_455_" fill="#B87D0F" d="M436.6 450.8v19.5l29.3-19.5z"/><path id="XMLID_454_" fill="#B87D0F" d="M75.4 450.8v19.5l-29.3-19.5z"/><path id="XMLID_453_" fill="#F3BB2F" d="M64.1 308.4h383.7v124.5H64.1z"/></g><g id="XMLID_444_" fill="#F3BB2F"><path id="XMLID_451_" d="M298.3 78.6h-177a6.7 6.7 0 0 1 0-13.4h177a6.7 6.7 0 0 1 0 13.4z"/><path id="XMLID_450_" d="M298.3 110.6h-177a6.7 6.7 0 0 1 0-13.4h177a6.7 6.7 0 0 1 0 13.4z"/><path id="XMLID_449_" d="M391.8 142.5H121.3a6.7 6.7 0 0 1 0-13.4h270.5a6.7 6.7 0 0 1 0 13.4z"/><path id="XMLID_448_" d="M391.8 174.5H121.3a6.7 6.7 0 0 1 0-13.4h270.5a6.7 6.7 0 0 1 0 13.4z"/><path id="XMLID_447_" d="M391.8 206.5H121.3a6.7 6.7 0 0 1 0-13.4h270.5a6.7 6.7 0 0 1 0 13.4z"/><path id="XMLID_446_" d="M391.8 238.4H121.3a6.7 6.7 0 0 1 0-13.4h270.5a6.7 6.7 0 0 1 0 13.4z"/><path id="XMLID_445_" d="M391.8 270.4H121.3a6.7 6.7 0 0 1 0-13.4h270.5a6.7 6.7 0 0 1 0 13.4z"/></g></g><g id="XMLID_818_" fill="#FFF"><path id="XMLID_791_" d="M195.9 349.8h.3L203 334h18.7l-15.5 26.4 16.1 27h-18.7l-7.1-16.3h-.3l-7.1 16.3h-18.7l16.1-27-15.6-26.4h18.6l6.4 15.8z"/><path id="XMLID_793_" d="M283.4 362c0 8-1.8 14.5-5.4 19.3-3.6 4.9-8.7 7.3-15.3 7.3-2.6 0-4.9-.5-6.8-1.5-2-1-3.7-2.4-5.2-4.3v25.3H234v-74h15.8l.5 5.8c1.5-2.2 3.3-3.9 5.3-5 2.1-1.2 4.4-1.8 7.1-1.8 6.6 0 11.8 2.6 15.4 7.7 3.6 5.1 5.5 11.8 5.5 20.2v1zm-16.7-1.1c0-4.5-.7-8.1-2-10.9-1.3-2.7-3.4-4.1-6.3-4.1-1.9 0-3.5.3-4.8 1-1.3.7-2.3 1.7-3.1 3v22.3c.8 1.2 1.8 2 3.1 2.6 1.3.6 2.9.8 4.8.8 2.9 0 5-1.2 6.3-3.6 1.3-2.4 1.9-5.8 1.9-10.2v-.9z"/><path id="XMLID_796_" d="M325.7 372.5c0-1.3-.7-2.5-2.2-3.5-1.5-1-4.2-2-8.2-2.8-6.2-1.2-10.9-3.1-14.1-5.7-3.2-2.6-4.7-6.1-4.7-10.5 0-4.7 2-8.7 5.9-12 4-3.3 9.3-4.9 16.1-4.9 7.1 0 12.8 1.6 17 4.8 4.2 3.2 6.2 7.3 6 12.3l-.1.3h-16.2c0-2.1-.5-3.7-1.6-4.8-1.1-1.1-2.8-1.6-5.2-1.6-1.7 0-3.2.5-4.4 1.4-1.2 1-1.8 2.2-1.8 3.7 0 1.4.7 2.6 2.1 3.6 1.4 1 4.1 1.9 8.3 2.7 6.6 1.3 11.4 3.2 14.5 5.8 3.1 2.6 4.7 6.2 4.7 10.8 0 4.8-2.1 8.8-6.4 11.9-4.3 3.1-9.9 4.7-16.9 4.7-7.3 0-13-1.8-17.3-5.5-4.2-3.7-6.3-7.8-6.1-12.4l.1-.3h15.1c.1 2.5.8 4.4 2.3 5.5 1.5 1.1 3.5 1.7 6.3 1.7 2.2 0 3.9-.4 5.1-1.3 1.1-1 1.7-2.3 1.7-3.9z"/></g></g><metadata><rdf:RDF xmlns:rdf="http://www.w3.org/1999/02/22-rdf-syntax-ns#" xmlns:rdfs="http://www.w3.org/2000/01/rdf-schema#" xmlns:dc="http://purl.org/dc/elements/1.1/"><rdf:Description about="https://iconscout.com/legal#licenses" dc:publisher="Iconscout" dc:date="2017-11-07" dc:format="image/svg+xml" dc:language="en"><dc:creator><rdf:Bag><rdf:li>First Styles</rdf:li></rdf:Bag></dc:creator></rdf:Description></rdf:RDF></metadata></svg>