<?xml version="1.0" encoding="UTF-8"?>
<!DOCTYPE svg PUBLIC "-//W3C//DTD SVG 1.1//EN" "http://www.w3.org/Graphics/SVG/1.1/DTD/svg11.dtd">
<!-- Creator: CorelDRAW 2017 -->
<svg xmlns="http://www.w3.org/2000/svg" xml:space="preserve" width="105mm" height="148mm" version="1.1" style="shape-rendering:geometricPrecision; text-rendering:geometricPrecision; image-rendering:optimizeQuality; fill-rule:evenodd; clip-rule:evenodd"
viewBox="0 0 10500 14800"
 xmlns:xlink="http://www.w3.org/1999/xlink">
 <defs>
  <style type="text/css">
   <![CDATA[
    .str1 {stroke:#2B2A29;stroke-width:50}
    .str0 {stroke:#59262B;stroke-width:50}
    .fil1 {fill:none}
    .fil0 {fill:#916D4A;fill-rule:nonzero}
   ]]>
  </style>
 </defs>
 <g id="Слой_x0020_1">
  <metadata id="CorelCorpID_0Corel-Layer"/>
  <g id="_671753648">
   <path class="fil0 str0" d="M2480 1740c0,6 -10,21 -30,44 -56,65 -110,97 -160,97 -32,0 -58,-11 -78,-34 -20,-22 -30,-52 -30,-88 0,-31 18,-81 54,-150 17,-32 25,-58 25,-79 0,-27 -15,-51 -46,-71 -30,-19 -68,-29 -112,-29 -126,0 -243,49 -351,145 -108,97 -162,202 -162,315 0,57 18,104 54,141 36,36 83,54 140,54 62,0 125,-23 188,-68 63,-45 108,-100 133,-164 1,-5 4,-8 6,-8 5,0 7,3 7,8 0,12 -10,32 -29,62 -19,29 -39,54 -60,74 -74,73 -158,110 -250,110 -63,0 -113,-19 -151,-58 -38,-39 -57,-90 -57,-154 0,-117 56,-224 168,-323 112,-99 234,-149 365,-149 58,0 103,14 136,43 33,29 49,68 49,118 0,38 -13,82 -39,133 -23,47 -35,79 -35,95 0,41 24,61 73,61 55,0 112,-41 171,-123 5,-7 9,-10 12,-10 5,0 6,2 6,6zm885 -150c0,10 -6,15 -17,15 -5,0 -23,-3 -56,-10 -59,-12 -108,-18 -147,-18 -89,27 -167,79 -235,157 -68,78 -146,204 -233,378 -133,268 -304,426 -513,474 43,6 81,10 113,10 101,0 186,-32 255,-97 67,-63 122,-130 166,-200 5,-8 9,-12 12,-12 3,0 5,1 6,3 0,8 -32,51 -95,128 -59,72 -113,122 -161,149 -48,27 -108,41 -178,41 -40,0 -89,-6 -147,-17 -35,11 -76,17 -121,17 -32,0 -48,-6 -48,-17 0,-13 21,-19 64,-19 30,0 65,3 105,8 86,-20 150,-54 194,-101 44,-47 128,-174 253,-380l-318 0c-135,142 -240,243 -313,303 -173,140 -335,210 -488,210 -87,0 -161,-20 -222,-61 -61,-41 -91,-90 -91,-149 0,-30 9,-56 28,-78 19,-22 41,-32 67,-32 36,0 54,18 54,52 0,18 -6,34 -18,47 -12,13 -27,19 -43,19 -26,0 -38,-12 -38,-37l1 -17c1,-2 2,-5 2,-9 0,-6 -2,-8 -7,-8 -5,0 -11,7 -16,21 -5,14 -8,28 -8,42 0,54 28,100 85,137 57,37 126,56 209,56 118,0 248,-58 390,-174 32,-26 69,-60 108,-103 79,-83 141,-147 188,-193l25 -26 -160 0 10 -15c53,0 107,1 163,2 162,-179 318,-311 470,-394 152,-83 312,-125 481,-126 39,-8 76,-12 110,-12 76,0 115,12 115,37zm-262 -10c-144,7 -277,49 -400,124 -123,76 -265,203 -425,381l313 0c71,-123 156,-233 255,-331 98,-97 184,-155 257,-174zm1495 141c0,29 -4,60 -12,94 -8,34 -16,51 -23,51 -6,0 -8,-3 -8,-8 0,-2 1,-4 2,-7 14,-39 21,-80 21,-125 0,-69 -21,-125 -62,-168 -41,-42 -95,-63 -163,-63 -91,0 -185,30 -282,90 82,66 124,141 124,225 0,71 -28,132 -85,185 -57,52 -123,78 -199,78 -30,0 -62,-6 -96,-18 -34,-12 -51,-23 -51,-34 1,-3 3,-5 6,-5 3,0 7,2 13,5 34,20 69,30 103,30 63,0 117,-27 161,-81 45,-54 67,-119 67,-194 0,-64 -23,-122 -69,-173 -120,89 -233,246 -341,471 -65,136 -124,234 -179,294 -54,60 -130,114 -227,163 -115,56 -218,84 -308,84 -74,0 -135,-17 -184,-51 -49,-34 -74,-76 -74,-127 0,-28 8,-52 25,-73 17,-20 37,-30 60,-30 34,0 50,19 50,56 0,19 -6,35 -17,48 -11,13 -25,20 -42,20 -29,0 -42,-15 -41,-45 1,-12 -1,-18 -3,-18 -9,0 -13,15 -13,44 0,46 23,84 67,114 45,30 102,45 170,45 121,0 230,-45 328,-134 43,-39 80,-79 110,-120 33,-44 105,-151 216,-321 56,-84 121,-168 197,-252 75,-84 140,-145 192,-181 -86,-73 -212,-110 -379,-110 -233,0 -435,84 -607,252 -141,138 -212,268 -212,389 0,62 20,111 60,147 40,36 93,54 161,54 111,0 226,-53 344,-159 118,-106 177,-210 177,-310 0,-80 -41,-120 -123,-120 -82,0 -170,46 -264,138 -94,92 -141,178 -141,259 0,20 7,37 20,51 13,14 29,22 46,22 9,0 14,2 14,7 0,5 -5,6 -16,6 -27,0 -49,-12 -67,-36 -18,-24 -28,-53 -28,-88 0,-86 47,-170 141,-252 94,-82 191,-122 290,-122 95,0 142,44 142,132 0,107 -60,215 -181,324 -121,109 -240,164 -357,164 -76,0 -138,-23 -184,-69 -46,-46 -69,-108 -69,-185 0,-156 88,-298 264,-427 176,-129 371,-193 584,-193 162,0 298,36 408,108 101,-63 198,-94 293,-94 74,0 133,22 178,66 45,44 67,102 67,175z"/>
   <path class="fil1 str1" d="M2960 863c1157,0 2095,513 2095,1145 0,632 -938,1145 -2095,1145 -1157,0 -2095,-513 -2095,-1145 0,-632 938,-1145 2095,-1145z"/>
  </g>
 </g>
</svg>
