<?xml version="1.0" encoding="UTF-8"?>
<svg enable-background="new 0 0 128 128" version="1.1" viewBox="0 0 128 128" xml:space="preserve" xmlns="http://www.w3.org/2000/svg" xmlns:cc="http://creativecommons.org/ns#" xmlns:dc="http://purl.org/dc/elements/1.1/" xmlns:rdf="http://www.w3.org/1999/02/22-rdf-syntax-ns#"><metadata><rdf:RDF><cc:Work rdf:about=""><dc:format>image/svg+xml</dc:format><dc:type rdf:resource="http://purl.org/dc/dcmitype/StillImage"/><dc:title/></cc:Work></rdf:RDF></metadata><g fill="#00B8DF"><path d="m104 126h-80c-5.514 0-10-4.486-10-10v-104c0-5.514 4.486-10 10-10h40.687c2.671 0 5.183 1.041 7.07 2.929l39.314 39.314c1.889 1.889 2.929 4.399 2.929 7.07v64.687c0 5.514-4.486 10-10 10zm-80-120c-3.309 0-6 2.691-6 6v104c0 3.309 2.691 6 6 6h80c3.309 0 6-2.691 6-6v-64.687c0-1.579-0.641-3.125-1.757-4.242l-39.314-39.314c-1.133-1.133-2.64-1.757-4.242-1.757h-40.687z"/><rect x="47" y="112" width="10" height="6"/><rect x="37" y="118" width="10" height="6"/><rect x="47" y="100" width="10" height="6"/><rect x="37" y="106" width="10" height="6"/><rect x="47" y="88" width="10" height="6"/><rect x="37" y="94" width="10" height="6"/><rect x="47" y="76" width="10" height="6"/><rect x="37" y="82" width="10" height="6"/><rect x="47" y="64" width="10" height="6"/><rect x="37" y="70" width="10" height="6"/><path d="m56 29h-16c-1.1 0-2 0.9-2 2v25c0 1.1 0.9 2 2 2h16c1.1 0 2-0.9 2-2v-25c0-1.1-0.9-2-2-2zm-3 16h-10v-11h10v11z"/></g></svg>
