<?xml version="1.0" encoding="UTF-8"?>
<svg enable-background="new 0 0 128 128" version="1.1" viewBox="0 0 128 128" xml:space="preserve" xmlns="http://www.w3.org/2000/svg" xmlns:cc="http://creativecommons.org/ns#" xmlns:dc="http://purl.org/dc/elements/1.1/" xmlns:rdf="http://www.w3.org/1999/02/22-rdf-syntax-ns#"><metadata><rdf:RDF><cc:Work rdf:about=""><dc:format>image/svg+xml</dc:format><dc:type rdf:resource="http://purl.org/dc/dcmitype/StillImage"/><dc:title/></cc:Work></rdf:RDF></metadata><style type="text/css">
	.st0{fill:#00B8DF;}
	.st1{fill:#FF9A30;}
	.st2{fill:#FFFFFF;}
	.st3{fill:#61BEE2;}
	.st4{fill:#FD4233;}
	.st5{fill:#FF402F;}
	.st6{fill:#1D409D;}
	.st7{fill:#007732;}
	.st8{fill:#FF5A29;}
</style><g fill="#00B8DF">
<path d="m104 126h-80c-5.5 0-10-4.5-10-10v-104c0-5.5 4.5-10 10-10h40.7c2.7 0 5.2 1 7.1 2.9l39.3 39.3c1.9 1.9 2.9 4.4 2.9 7.1v64.7c0 5.5-4.5 10-10 10zm-80-120c-3.3 0-6 2.7-6 6v104c0 3.3 2.7 6 6 6h80c3.3 0 6-2.7 6-6v-64.7c0-1.6-0.6-3.1-1.8-4.2l-39.3-39.3c-1.1-1.2-2.6-1.8-4.2-1.8h-40.7z"/><path d="m57 89h-4v-30.5c0-1.8 1.2-3.4 2.9-3.9l21-5.5c1.2-0.3 2.5-0.1 3.5 0.7s1.6 1.9 1.6 3.2v30.4h-4v-30.4l-21 5.5v30.5z"/><ellipse cx="47.5" cy="89" rx="7.5" ry="5"/><path d="m47.5 96c-5.3 0-9.5-3.1-9.5-7s4.2-7 9.5-7 9.5 3.1 9.5 7-4.2 7-9.5 7zm0-10c-3.1 0-5.5 1.6-5.5 3s2.4 3 5.5 3 5.5-1.6 5.5-3-2.4-3-5.5-3z"/><ellipse cx="72.5" cy="83.4" rx="7.5" ry="5.4"/><path d="m72.5 90.7c-5.3 0-9.5-3.2-9.5-7.4 0-4.1 4.2-7.4 9.5-7.4s9.5 3.2 9.5 7.4-4.2 7.4-9.5 7.4zm0-10.7c-2.9 0-5.5 1.6-5.5 3.4 0 1.6 2.3 3.4 5.5 3.4s5.5-1.8 5.5-3.4c0-1.8-2.6-3.4-5.5-3.4z"/></g></svg>
