<?xml version="1.0" encoding="UTF-8"?>
<svg enable-background="new 0 0 128 128" version="1.1" viewBox="0 0 128 128" xml:space="preserve" xmlns="http://www.w3.org/2000/svg" xmlns:cc="http://creativecommons.org/ns#" xmlns:dc="http://purl.org/dc/elements/1.1/" xmlns:rdf="http://www.w3.org/1999/02/22-rdf-syntax-ns#"><metadata><rdf:RDF><cc:Work rdf:about=""><dc:format>image/svg+xml</dc:format><dc:type rdf:resource="http://purl.org/dc/dcmitype/StillImage"/><dc:title/></cc:Work></rdf:RDF></metadata><style type="text/css">
	.st0{fill:#00B8DF;}
	.st1{fill:#FF9A30;}
	.st2{fill:#FFFFFF;}
	.st3{fill:#61BEE2;}
	.st4{fill:#FD4233;}
	.st5{fill:#FF402F;}
	.st6{fill:#1D409D;}
	.st7{fill:#007732;}
	.st8{fill:#FF5A29;}
</style><g fill="#61BEE2"><path d="m104 126h-80c-5.5 0-10-4.5-10-10v-104c0-5.5 4.5-10 10-10h40.7c2.7 0 5.2 1 7.1 2.9l39.3 39.3c1.9 1.9 2.9 4.4 2.9 7.1v64.7c0 5.5-4.5 10-10 10zm-80-120c-3.3 0-6 2.7-6 6v104c0 3.3 2.7 6 6 6h80c3.3 0 6-2.7 6-6v-64.7c0-1.6-0.6-3.1-1.8-4.2l-39.3-39.3c-1.1-1.2-2.6-1.8-4.2-1.8h-40.7z"/><path d="m62 96c-1.3 0-2.6-0.4-3.7-1.2l-21-16.3c-0.7-0.6-1.7-0.6-2.5 0l-17.5 14-2.5-3.1 17.5-14c2.2-1.7 5.2-1.8 7.4-0.1l21.1 16.2c0.7 0.5 1.7 0.6 2.4 0l24.4-18.5c2-1.5 4.7-1.6 6.8-0.3l18.7 11.6-2.1 3.4-18.7-11.6c-0.7-0.4-1.6-0.4-2.3 0.1l-24.4 18.5c-1 0.9-2.3 1.3-3.6 1.3z"/><path d="m53 58c-7.2 0-13-5.8-13-13s5.8-13 13-13 13 5.8 13 13-5.8 13-13 13zm0-22c-5 0-9 4-9 9s4 9 9 9 9-4 9-9-4-9-9-9z"/>
</g></svg>
