<?xml version="1.0" encoding="UTF-8"?>
<svg enable-background="new 0 0 128 128" version="1.1" viewBox="0 0 128 128" xml:space="preserve" xmlns="http://www.w3.org/2000/svg" xmlns:cc="http://creativecommons.org/ns#" xmlns:dc="http://purl.org/dc/elements/1.1/" xmlns:rdf="http://www.w3.org/1999/02/22-rdf-syntax-ns#"><style type="text/css">
	.st0{fill:#00B8DF;}
	.st1{fill:#FF9A30;}
	.st2{fill:#FFFFFF;}
	.st3{fill:#61BEE2;}
	.st4{fill:#FD4233;}
	.st5{fill:#FF402F;}
	.st6{fill:#1D409D;}
	.st7{fill:#007732;}
	.st8{fill:#FF5A29;}
</style><path d="m104 126h-80c-5.5 0-10-4.5-10-10v-104c0-5.5 4.5-10 10-10h40.7c2.7 0 5.2 1 7.1 2.9l39.3 39.3c1.9 1.9 2.9 4.4 2.9 7.1v64.7c0 5.5-4.5 10-10 10zm-80-120c-3.3 0-6 2.7-6 6v104c0 3.3 2.7 6 6 6h80c3.3 0 6-2.7 6-6v-64.7c0-1.6-0.6-3.1-1.8-4.2l-39.3-39.3c-1.1-1.2-2.6-1.8-4.2-1.8h-40.7z" fill="#61BEE2"/><path d="m45.2 91.5c-0.7 0-1.5-0.2-2.1-0.6-1.2-0.7-1.9-2-1.9-3.4v-37.5c0-1.4 0.7-2.7 1.9-3.4s2.7-0.8 3.9-0.1l37.5 19.6c1.4 0.7 2.2 2.1 2.1 3.6 0 1.5-0.9 2.9-2.3 3.5l-37.3 17.9c-0.6 0.3-1.2 0.4-1.8 0.4zm0-41.5v37.5l37.5-17.9-37.5-19.6z" fill="#61BEE2"/>
	
	<metadata>
		<rdf:RDF>
			<rdf:Description about="https://iconscout.com/legal#licenses" dc:date="2016-12-14" dc:description="File, Avi, Document, Format, Video" dc:format="image/svg+xml" dc:language="en" dc:publisher="Iconscout" dc:title="File, Avi, Document, Format, Video">
				<dc:creator>
					<rdf:Bag>
						<rdf:li>Igor Verizub</rdf:li>
					</rdf:Bag>
				</dc:creator>
			</rdf:Description>
		<cc:Work rdf:about=""><dc:format>image/svg+xml</dc:format><dc:type rdf:resource="http://purl.org/dc/dcmitype/StillImage"/><dc:title/></cc:Work></rdf:RDF>
    </metadata></svg>
