<?xml version="1.0" encoding="UTF-8"?>
<svg enable-background="new 0 0 128 128" version="1.1" viewBox="0 0 128 128" xml:space="preserve" xmlns="http://www.w3.org/2000/svg" xmlns:cc="http://creativecommons.org/ns#" xmlns:dc="http://purl.org/dc/elements/1.1/" xmlns:rdf="http://www.w3.org/1999/02/22-rdf-syntax-ns#"><style type="text/css">
	.st0{fill:#00B8DF;}
	.st1{fill:#FF9A30;}
	.st2{fill:#FFFFFF;}
	.st3{fill:#61BEE2;}
	.st4{fill:#FD4233;}
	.st5{fill:#FF402F;}
	.st6{fill:#1D409D;}
	.st7{fill:#007732;}
	.st8{fill:#FF5A29;}
</style><path d="m104 126h-80c-5.5 0-10-4.5-10-10v-104c0-5.5 4.5-10 10-10h40.7c2.7 0 5.2 1 7.1 2.9l39.3 39.3c1.9 1.9 2.9 4.4 2.9 7.1v64.7c0 5.5-4.5 10-10 10zm-80-120c-3.3 0-6 2.7-6 6v104c0 3.3 2.7 6 6 6h80c3.3 0 6-2.7 6-6v-64.7c0-1.6-0.6-3.1-1.8-4.2l-39.3-39.3c-1.1-1.2-2.6-1.8-4.2-1.8h-40.7z" fill="#00B8DF"/><g fill="#00B8DF"><path d="m63 75.4c0 3.7-1.2 6.5-3.5 8.5s-5.6 2.9-9.8 2.9h-3.1v12.2h-7.3v-34.3h10.9c4.2 0 7.3 0.9 9.5 2.7s3.3 4.5 3.3 8zm-16.4 5.5h2.4c2.2 0 3.9-0.4 5-1.3s1.7-2.2 1.7-3.9-0.5-3-1.4-3.8-2.4-1.2-4.4-1.2h-3.3v10.2z"/><path d="m87.2 91.2c0 2.7-0.9 4.7-2.8 6.1s-4.7 2.1-8.4 2.1c-1.9 0-3.5-0.1-4.9-0.4s-2.6-0.6-3.8-1.1v-5.9c1.3 0.6 2.8 1.1 4.5 1.6s3.1 0.6 4.4 0.6c2.6 0 3.9-0.8 3.9-2.3 0-0.6-0.2-1-0.5-1.4s-0.9-0.8-1.8-1.2-2-1-3.4-1.6c-2-0.8-3.5-1.6-4.4-2.3s-1.6-1.5-2.1-2.5-0.6-2.1-0.6-3.4c0-2.3 0.9-4.1 2.7-5.4s4.4-1.9 7.7-1.9c3.2 0 6.2 0.7 9.2 2.1l-2.2 5.2c-1.3-0.6-2.5-1-3.7-1.4s-2.3-0.5-3.5-0.5c-2.1 0-3.2 0.6-3.2 1.7 0 0.6 0.3 1.2 1 1.7s2.2 1.2 4.5 2.1c2 0.8 3.5 1.6 4.5 2.3s1.7 1.5 2.1 2.5 0.8 2 0.8 3.3z"/></g>
	
	<metadata>
		<rdf:RDF>
			<rdf:Description about="https://iconscout.com/legal#licenses" dc:date="2016-12-14" dc:description="File, Ps, Psd, Photoshop, Design, Document, Adobe, Tool" dc:format="image/svg+xml" dc:language="en" dc:publisher="Iconscout" dc:title="File, Ps, Psd, Photoshop, Design, Document, Adobe, Tool">
				<dc:creator>
					<rdf:Bag>
						<rdf:li>Igor Verizub</rdf:li>
					</rdf:Bag>
				</dc:creator>
			</rdf:Description>
		<cc:Work rdf:about=""><dc:format>image/svg+xml</dc:format><dc:type rdf:resource="http://purl.org/dc/dcmitype/StillImage"/><dc:title/></cc:Work></rdf:RDF>
    </metadata></svg>
