<?xml version="1.0" encoding="UTF-8"?>
<svg width="24" height="24" version="1.1" xmlns="http://www.w3.org/2000/svg" xmlns:cc="http://creativecommons.org/ns#" xmlns:dc="http://purl.org/dc/elements/1.1/" xmlns:rdf="http://www.w3.org/1999/02/22-rdf-syntax-ns#">
 <metadata>
  <rdf:RDF>
   <cc:Work rdf:about="">
    <dc:format>image/svg+xml</dc:format>
    <dc:type rdf:resource="http://purl.org/dc/dcmitype/StillImage"/>
    <dc:title/>
   </cc:Work>
  </rdf:RDF>
 </metadata>
 <g transform="translate(0 -1028.4)">
  <path transform="translate(0 1028.4)" d="m4 1c-1.1046 0-2 0.8954-2 2v18c0 1.105 0.8954 2 2 2h16c1.105 0 2-0.895 2-2v-18c0-1.1046-0.895-2-2-2h-16zm-0.5 2h1c0.2761 0 0.5 0.2238 0.5 0.5v1c0 0.2762-0.2239 0.5-0.5 0.5h-1c-0.2761 0-0.5-0.2238-0.5-0.5v-1c0-0.2762 0.2239-0.5 0.5-0.5zm16 0h1c0.276 0 0.5 0.2238 0.5 0.5v1c0 0.2762-0.224 0.5-0.5 0.5h-1c-0.276 0-0.5-0.2238-0.5-0.5v-1c0-0.2762 0.224-0.5 0.5-0.5zm-16 3h1c0.2761 0 0.5 0.2238 0.5 0.5v1c0 0.2762-0.2239 0.5-0.5 0.5h-1c-0.2761 0-0.5-0.2238-0.5-0.5v-1c0-0.2762 0.2239-0.5 0.5-0.5zm16 0h1c0.276 0 0.5 0.2238 0.5 0.5v1c0 0.2762-0.224 0.5-0.5 0.5h-1c-0.276 0-0.5-0.2238-0.5-0.5v-1c0-0.2762 0.224-0.5 0.5-0.5zm-16 3h1c0.2761 0 0.5 0.2238 0.5 0.5v1c0 0.276-0.2239 0.5-0.5 0.5h-1c-0.2761 0-0.5-0.224-0.5-0.5v-1c0-0.2762 0.2239-0.5 0.5-0.5zm16 0h1c0.276 0 0.5 0.2238 0.5 0.5v1c0 0.276-0.224 0.5-0.5 0.5h-1c-0.276 0-0.5-0.224-0.5-0.5v-1c0-0.2762 0.224-0.5 0.5-0.5zm-16 3h1c0.2761 0 0.5 0.224 0.5 0.5v1c0 0.276-0.2239 0.5-0.5 0.5h-1c-0.2761 0-0.5-0.224-0.5-0.5v-1c0-0.276 0.2239-0.5 0.5-0.5zm16 0h1c0.276 0 0.5 0.224 0.5 0.5v1c0 0.276-0.224 0.5-0.5 0.5h-1c-0.276 0-0.5-0.224-0.5-0.5v-1c0-0.276 0.224-0.5 0.5-0.5zm-16 3h1c0.2761 0 0.5 0.224 0.5 0.5v1c0 0.276-0.2239 0.5-0.5 0.5h-1c-0.2761 0-0.5-0.224-0.5-0.5v-1c0-0.276 0.2239-0.5 0.5-0.5zm16 0h1c0.276 0 0.5 0.224 0.5 0.5v1c0 0.276-0.224 0.5-0.5 0.5h-1c-0.276 0-0.5-0.224-0.5-0.5v-1c0-0.276 0.224-0.5 0.5-0.5zm-16 3h1c0.2761 0 0.5 0.224 0.5 0.5v1c0 0.276-0.2239 0.5-0.5 0.5h-1c-0.2761 0-0.5-0.224-0.5-0.5v-1c0-0.276 0.2239-0.5 0.5-0.5zm16 0h1c0.276 0 0.5 0.224 0.5 0.5v1c0 0.276-0.224 0.5-0.5 0.5h-1c-0.276 0-0.5-0.224-0.5-0.5v-1c0-0.276 0.224-0.5 0.5-0.5z" fill="#e74c3c"/>
  <path d="m2 1040.4v9c0 1.1 0.8954 2 2 2h16c1.105 0 2-0.9 2-2v-9h-1.5c0.276 0 0.5 0.2 0.5 0.5v1c0 0.2-0.224 0.5-0.5 0.5h-1c-0.276 0-0.5-0.3-0.5-0.5v-1c0-0.3 0.224-0.5 0.5-0.5h-15c0.2761 0 0.5 0.2 0.5 0.5v1c0 0.2-0.2239 0.5-0.5 0.5h-1c-0.2761 0-0.5-0.3-0.5-0.5v-1c0-0.3 0.2239-0.5 0.5-0.5h-1.5zm1.5 3h1c0.2761 0 0.5 0.2 0.5 0.5v1c0 0.2-0.2239 0.5-0.5 0.5h-1c-0.2761 0-0.5-0.3-0.5-0.5v-1c0-0.3 0.2239-0.5 0.5-0.5zm16 0h1c0.276 0 0.5 0.2 0.5 0.5v1c0 0.2-0.224 0.5-0.5 0.5h-1c-0.276 0-0.5-0.3-0.5-0.5v-1c0-0.3 0.224-0.5 0.5-0.5zm-16 3h1c0.2761 0 0.5 0.2 0.5 0.5v1c0 0.2-0.2239 0.5-0.5 0.5h-1c-0.2761 0-0.5-0.3-0.5-0.5v-1c0-0.3 0.2239-0.5 0.5-0.5zm16 0h1c0.276 0 0.5 0.2 0.5 0.5v1c0 0.2-0.224 0.5-0.5 0.5h-1c-0.276 0-0.5-0.3-0.5-0.5v-1c0-0.3 0.224-0.5 0.5-0.5z" fill="#c0392b"/>
  <path transform="matrix(.28312 0 0 .29709 8.5844 1036.8)" d="m5 22v-20.196l17.66 10.098z" fill="#ecf0f1"/>
 </g>
</svg>
