<?xml version="1.0" encoding="UTF-8"?>
<svg enable-background="new 0 0 128 128" version="1.1" viewBox="0 0 128 128" xml:space="preserve" xmlns="http://www.w3.org/2000/svg" xmlns:cc="http://creativecommons.org/ns#" xmlns:dc="http://purl.org/dc/elements/1.1/" xmlns:rdf="http://www.w3.org/1999/02/22-rdf-syntax-ns#"><metadata><rdf:RDF><cc:Work rdf:about=""><dc:format>image/svg+xml</dc:format><dc:type rdf:resource="http://purl.org/dc/dcmitype/StillImage"/><dc:title/></cc:Work></rdf:RDF></metadata><style type="text/css">
	.st0{fill:#00B8DF;}
	.st1{fill:#FF9A30;}
	.st2{fill:#FFFFFF;}
	.st3{fill:#61BEE2;}
	.st4{fill:#FD4233;}
	.st5{fill:#FF402F;}
	.st6{fill:#1D409D;}
	.st7{fill:#007732;}
	.st8{fill:#FF5A29;}
</style><path d="m104 126h-80c-5.5 0-10-4.5-10-10v-104c0-5.5 4.5-10 10-10h40.7c2.7 0 5.2 1 7.1 2.9l39.3 39.3c1.9 1.9 2.9 4.4 2.9 7.1v64.7c0 5.5-4.5 10-10 10zm-80-120c-3.3 0-6 2.7-6 6v104c0 3.3 2.7 6 6 6h80c3.3 0 6-2.7 6-6v-64.7c0-1.6-0.6-3.1-1.8-4.2l-39.3-39.3c-1.1-1.2-2.6-1.8-4.2-1.8h-40.7z" fill="#1D409D"/><path d="m78.7 96h-8.3l-4.6-18c-0.2-0.6-0.5-2-0.9-4s-0.7-3.4-0.7-4c-0.1 0.8-0.3 2.2-0.7 4.1s-0.7 3.2-0.9 4l-4.6 17.9h-8.3l-8.7-34.3h7.1l4.4 18.7c0.8 3.5 1.3 6.4 1.7 9 0.1-0.9 0.3-2.3 0.6-4.1s0.7-3.3 0.9-4.3l5-19.2h6.9l5 19.2c0.2 0.9 0.5 2.2 0.8 3.9s0.6 3.3 0.8 4.5c0.2-1.2 0.4-2.7 0.8-4.6s0.7-3.3 0.9-4.4l4.4-18.7h7.1l-8.7 34.3z" fill="#1D409D"/></svg>
