<?xml version="1.0" encoding="utf-8"?>
<!-- Svg Vector Icons : http://www.onlinewebfonts.com/icon -->
<!DOCTYPE svg PUBLIC "-//W3C//DTD SVG 1.1//EN" "http://www.w3.org/Graphics/SVG/1.1/DTD/svg11.dtd">
<svg version="1.1" xmlns="http://www.w3.org/2000/svg" xmlns:xlink="http://www.w3.org/1999/xlink" x="0px" y="0px" viewBox="0 0 1000 1000" enable-background="new 0 0 1000 1000" xml:space="preserve">
<metadata> Svg Vector Icons : http://www.onlinewebfonts.com/icon </metadata>
<g><g><path d="M990,892.8c0,8.5-3.3,16-9.8,22.6l-49.1,49.1c-6.5,6.5-14.1,9.8-22.6,9.8c-8.5,0-16-3.3-22.6-9.8L500,578.6L114.1,964.5c-6.5,6.5-14.1,9.8-22.6,9.8s-16-3.3-22.6-9.8l-49.1-49.1c-6.5-6.5-9.8-14.1-9.8-22.6s3.3-16,9.8-22.6l457.6-457.6c6.5-6.5,14.1-9.8,22.6-9.8c8.5,0,16,3.3,22.6,9.8l457.6,457.6C986.7,876.7,990,884.3,990,892.8L990,892.8z M990,515.7c0,8.5-3.3,16-9.8,22.6l-49.1,49.1c-6.5,6.5-14.1,9.8-22.6,9.8c-8.5,0-16-3.3-22.6-9.8L500,201.5L114.1,587.4c-6.5,6.5-14.1,9.8-22.6,9.8s-16-3.3-22.6-9.8l-49.1-49.1c-6.5-6.5-9.8-14.1-9.8-22.6s3.3-16,9.8-22.6L477.4,35.5c6.5-6.5,14.1-9.8,22.6-9.8c8.5,0,16,3.3,22.6,9.8l457.6,457.6C986.7,499.7,990,507.2,990,515.7L990,515.7z"/></g></g>
</svg>