<?xml version="1.0" encoding="UTF-8"?>
<svg class="bi bi-code-slash" width="16" height="16" fill="currentColor" version="1.1" viewBox="0 0 16 16" xmlns="http://www.w3.org/2000/svg" xmlns:cc="http://creativecommons.org/ns#" xmlns:dc="http://purl.org/dc/elements/1.1/" xmlns:rdf="http://www.w3.org/1999/02/22-rdf-syntax-ns#">
 <metadata>
  <rdf:RDF>
   <cc:Work rdf:about="">
    <dc:format>image/svg+xml</dc:format>
    <dc:type rdf:resource="http://purl.org/dc/dcmitype/StillImage"/>
    <dc:title/>
   </cc:Work>
  </rdf:RDF>
 </metadata>
 <path d="m4.9105 4.1595a0.5 0.5 0 0 1 0 0.708l-3.147 3.146 3.147 3.146a0.50063 0.50063 0 0 1-0.708 0.708l-3.5-3.5a0.5 0.5 0 0 1 0-0.708l3.5-3.5a0.5 0.5 0 0 1 0.708 0zm6.292 0a0.5 0.5 0 0 0 0 0.708l3.147 3.146-3.147 3.146a0.50063 0.50063 0 0 0 0.708 0.708l3.5-3.5a0.5 0.5 0 0 0 0-0.708l-3.5-3.5a0.5 0.5 0 0 0-0.708 0zm-0.999-3.124a0.5 0.5 0 0 1 0.33 0.625l-4 13a0.5 0.5 0 0 1-0.955-0.294l4-13a0.5 0.5 0 0 1 0.625-0.33z" fill-rule="evenodd"/>
 <text transform="scale(1.0754 .92993)" x="2.8987365" y="10.959844" font-family="Arial" font-size="6.4383px" font-weight="bold" letter-spacing=".26826px" style="line-height:1.25" xml:space="preserve"><tspan x="2.8987365" y="10.959844">?</tspan></text>
 <text transform="scale(1.0754 .92993)" x="8.156496" y="10.931217" font-family="Arial" font-size="6.4383px" font-weight="bold" letter-spacing=".26826px" style="line-height:1.25" xml:space="preserve"><tspan x="8.156496" y="10.931217">?</tspan></text>
</svg>
