<svg width="48" height="48" version="1.1" viewBox="0 0 48 48" xmlns="http://www.w3.org/2000/svg">
 <path d="m20.438 28.875q-0.03125 0.08036-0.39062-0.01339-0.35938-0.093752-0.98438-0.30804l-0.625-0.24107q-1.375-0.53571-2.7188-1.3125-0.21875-0.13393-1.2812-0.84375t-1.1875-0.76339q-2.0938 2.7589-4.1875 4.8482-2.5312 2.5446-3.2812 2.9464-0.125 0.05357-0.60938 0.10714-0.48438 0.05357-0.57812 0 0.1875-0.10714 2.5625-2.4643 0.65625-0.64286 2.6719-3.0804 2.0156-2.4375 2.4531-3.1607 0.53125-0.80357 1.5938-2.6384t1.125-2.0759q-0.25-0.02679-3.4375 0.88393-0.25 0.05357-0.85938 0.20089-0.60938 0.14732-1.0781 0.25446t-0.53125 0.13393q-0.0625 0.05357-0.0625 0.28125 0 0.22768-0.03125 0.25446-0.15625 0.26786-0.96875 0.40179-0.71875 0.1875-1.4688 0-0.5625-0.10714-0.875-0.5625-0.125-0.16071-0.15625-0.61607 0.1875-0.053571 0.76562-0.13393t0.92188-0.16071q1.8125-0.42857 3.2812-0.85714 3.125-0.9375 3.1875-0.9375 0.3125-0.05357 1.3438-0.52232 1.0312-0.46875 1.375-0.57589 0.28125-0.08036 0.67188-0.21429 0.39062-0.13393 0.45312-0.14732 0.0625-0.01339 0.1875 0.01339 0.0625 0.32143-0.03125 0.88393 0 0.05357-0.39062 0.72321-0.39062 0.66964-0.82812 1.433t-0.53125 0.89732q-0.78125 1.3393-2.4062 3.5089l2 0.75q0.375 0.16071 2.3281 0.85714 1.9531 0.69643 2.1094 0.75 0.125 0.02679 0.32812 0.68304 0.20312 0.65625 0.14062 0.81697zm-6.4062-13.018q0.09375 0.40179-0.125 0.75-0.375 0.61607-1.5625 1.0179-0.9375 0.32143-1.875 0.32143-0.8125-0.080357-1.5312-0.69643-0.4375-0.40178-0.5625-1.0982l0.03125-0.08036q0.09375 0.08036 0.60938 0.13393 0.51562 0.05357 0.82812 0t1.8125-0.42857q1.125-0.32143 1.7188-0.375 0.53125 0 0.65625 0.45536zm21.812 3.4554 1.9688 6.0804-4.3438-1.125zm-34.625 21.429 21.688-6.2143v-27.643l-21.688 6.2411zm38.781-8.4911 3.1875 0.83036-5.6562-17.598-3.125-0.83036-6.75 14.357 3.1875 0.83036 1.4062-2.9464 6.5938 1.7411zm-15.719-25.768 17.906 4.9286v-10.179zm9.7188 35.437 4.9375 0.34821-1.6875 4.2857-1.25-1.7679q-4.0625 2.2232-8.625 2.8929-1.8125 0.32143-2.8438 0.32143h-2.625q-2.4688 0-6.2344-1.0446-3.7656-1.0446-5.7344-2.2768-0.25-0.1875-0.25-0.42857 0-0.21429 0.15625-0.36161 0.15625-0.14732 0.40625-0.14732 0.125 0 0.5625 0.20089t0.95312 0.44196q0.51562 0.24107 0.64062 0.29464 2.2812 0.99107 4.9844 1.6473 2.7031 0.65625 4.9219 0.65625 2.9688 0 5.2188-0.38839 2.25-0.38839 4.9062-1.3527 0.46875-0.1875 0.95312-0.41518 0.48438-0.22768 1.0625-0.50893t0.89062-0.44196zm14-28.902v28.902l-24.188-6.5893q-0.4375 0.16072-11.719 3.4152-11.281 3.2545-11.5 3.2545-0.40625 0-0.5625-0.34821 0-0.02679-0.03125-0.08036v-28.875q0.09375-0.24107 0.125-0.26786 0.15625-0.16071 0.625-0.29464 3.3125-0.9375 4.6562-1.3393v-10.286l17.438 5.3036q0.0625 0 5.0156-1.4732 4.9531-1.4732 9.875-2.9062t5.0469-1.433q0.625 0 0.625 0.5625v11.196z"/>
</svg>
