<?xml version="1.0" encoding="UTF-8"?>
<svg width="146.56mm" height="73.829mm" version="1.0" xmlns="http://www.w3.org/2000/svg" xmlns:cc="http://creativecommons.org/ns#" xmlns:dc="http://purl.org/dc/elements/1.1/" xmlns:rdf="http://www.w3.org/1999/02/22-rdf-syntax-ns#">
 <metadata>
  <rdf:RDF>
   <cc:Work rdf:about="">
    <dc:format>image/svg+xml</dc:format>
    <dc:type rdf:resource="http://purl.org/dc/dcmitype/StillImage"/>
    <dc:title/>
   </cc:Work>
  </rdf:RDF>
 </metadata>
 <path d="m413.44 277.12 0.32-275.84h-274.56v275.84h274.56z" fill="#fff"/>
 <g fill="#ff0059">
  <path d="m0.96 0.96v276.16h138.24v-275.84h-138.24z"/>
  <path d="m280.96 256v-1.28l-0.32-3.84-0.32-5.44-0.32-6.72-0.64-7.36-0.32-7.36v-7.04l0.32-6.08 0.32-4.48 0.96-2.24 1.6-0.96h2.56l3.84 0.32 4.48 0.64 5.44 0.64 6.08 1.28 6.4 0.96 7.36 0.96 7.68 0.64 8 0.64-0.96-3.2-0.96-2.56-2.88-6.72-0.64-1.92-0.32-1.92 0.32-1.92 0.64-1.92 1.6-2.24 2.88-2.88 4.48-4.16 5.44-4.8 6.4-5.12 6.72-5.44 6.4-5.12 5.76-4.8 4.48-3.52 3.2-2.56 1.28-0.96-1.92-0.32-1.92-0.64-2.24-0.32-2.56-0.64-2.24-0.64-2.24-0.96-1.92-0.96-1.28-0.96-0.96-1.28v-1.6l1.28-2.56 0.96-2.56 1.6-2.88 1.6-3.2 1.92-3.2 3.84-7.68 1.92-4.48 2.24-4.8 1.92-5.12-4.16 0.96-4.16 1.28-3.84 1.28-3.84 0.96-3.52 0.96-3.2 0.64-2.88 0.64-2.56 0.32-2.24-0.32-1.92-0.64-1.28-0.64-0.96-0.64-0.96-0.96-0.64-1.28-0.96-1.28-0.64-1.28-0.32-1.6-0.32-1.92v-1.92l0.32-2.24-6.72 6.72-4.16 3.84-4.8 4.48-5.12 4.16-4.48 4.16-4.48 2.88-3.2 1.92-2.24 0.32-1.28-2.56 0.32-5.12 1.28-7.04 2.24-8.32 2.56-8.96 2.88-8.64 2.56-8 2.56-6.72 1.6-4.48 0.64-1.6-5.76 2.88-2.24 1.28-1.92 0.64-1.6 0.64-2.56 1.28-1.28 0.32-3.2 1.28h-2.24l-2.56-1.92-2.24-2.88-2.24-4.16-2.56-4.8-2.24-5.12-2.56-5.44-2.56-5.12-2.56-4.8-2.56-4.16-2.88 4.16-2.56 4.8-2.56 5.12-2.24 5.44-2.56 5.12-2.24 4.8-2.56 4.16-2.24 2.88-2.24 1.92h-2.24l-1.92-0.64-1.28-0.64-1.28-0.32-1.28-0.64-4.8-1.92-2.24-1.28-5.76-2.88 0.64 1.6 1.6 4.48 2.24 6.72 2.88 8 2.88 8.64 2.56 8.96 2.24 8.32 1.28 7.04v5.12l-1.28 2.56-1.92-0.32-3.52-1.92-4.16-2.88-9.6-8.32-4.8-4.48-4.48-3.84-6.72-6.72 0.32 2.24v1.92l-0.32 1.92-0.32 1.6-1.28 2.56-0.96 1.28-0.96 0.96-1.92 1.28-1.92 0.64-2.24 0.32-2.56-0.32-6.4-1.28-3.52-0.96-3.84-0.96-7.68-2.56-4.16-0.96 1.92 5.12 1.92 4.8 1.92 4.48 3.84 7.68 1.92 3.2 1.6 3.2 1.6 2.88 1.28 2.56 0.96 2.56v1.6l-0.64 1.28-1.28 0.96-1.92 0.96-2.24 0.96-2.56 0.64-2.24 0.64-2.56 0.32-1.92 0.64-1.6 0.32 0.96 0.96 3.2 2.56 4.8 3.52 5.76 4.8 6.4 5.12 6.4 5.44 6.4 5.12 5.76 4.8 4.48 4.16 2.56 2.88 1.6 2.24 0.96 1.92v1.92 1.92l-0.64 1.92-1.92 4.48-1.28 2.24-0.96 2.56-0.96 3.2 8.32-0.64 7.36-0.64 7.36-0.96 6.72-0.96 6.08-1.28 5.12-0.64 4.8-0.64 3.52-0.32h2.88l1.6 0.96 0.64 2.24 0.64 4.48v6.08 7.04l-0.64 14.72-0.64 6.72-0.32 5.44-0.32 3.84v1.28h8.32z"/>
  <path d="m413.44 0.96 0.32 276.16h139.2v-275.84h-139.2z"/>
 </g>
 <path d="m552.64 277.12 0.32-275.84h-552v275.84h552v0" fill="none" stroke="#000" stroke-linecap="round" stroke-linejoin="round" stroke-width=".64px"/>
</svg>
