<?xml version="1.0" encoding="UTF-8"?>
<svg width="136.31mm" height="68.241mm" version="1.0" xmlns="http://www.w3.org/2000/svg" xmlns:cc="http://creativecommons.org/ns#" xmlns:dc="http://purl.org/dc/elements/1.1/" xmlns:rdf="http://www.w3.org/1999/02/22-rdf-syntax-ns#">
 <metadata>
  <rdf:RDF>
   <cc:Work rdf:about="">
    <dc:format>image/svg+xml</dc:format>
    <dc:type rdf:resource="http://purl.org/dc/dcmitype/StillImage"/>
    <dc:title/>
   </cc:Work>
  </rdf:RDF>
 </metadata>
 <path d="m513.92 0.32v256.32h-512.64v-256h512.64z" fill="#002c9e"/>
 <g fill="#fff">
  <path d="m225.6 153.28h-224.32v17.92h107.84l-107.84 52.48v32.96-0.64l169.92-85.12h43.84l-170.24 85.76h16l154.24-75.52v75.52h10.56v-103.36z"/>
  <path d="m225.6 103.68v-103.04h-10.56v74.88l-150.08-74.88h-63.68l168.32 85.12h-43.52l-124.8-62.4v9.6l105.28 52.16h-105.28v18.56h224.32z"/>
  <path d="m289.6 103.68h224.32v-18.56h-104.32l104.32-52.8v-31.04l-167.36 83.52h-43.52l167.36-84.16h-16.96l-152.96 75.2v-75.2h-10.88v103.04z"/>
  <path d="m343.04 171.52h43.52l127.36 63.68v-10.88l-106.56-53.12h106.56v-17.92h-224.32v103.36h10.88v-74.88l151.04 74.88h60.16l-168.64-85.12z"/>
 </g>
 <g fill="#f0163a">
  <path d="m214.72 170.88h-43.52l-169.92 85.12v0.64h43.52l170.24-85.76z"/>
  <path d="m343.04 171.52 168.64 85.12h2.24v-21.44l-127.36-63.68h-43.52z"/>
  <path d="m125.76 85.44 43.84 0.32-168.32-85.12v22.72l124.8 62.4z"/>
  <path d="m470.4 0.32-167.36 84.48h43.52l167.36-83.52v-0.64h-43.52z"/>
  <path d="m289.6 103.68v-103.04h-64v103.04h-224.32v49.6h224.32v103.36h64v-103.36h224.32v-49.6h-224.32z"/>
 </g>
 <path d="m513.92 0.32v256.32h-512.64v-256h512.64v0" fill="none" stroke="#000" stroke-linecap="round" stroke-linejoin="round" stroke-width=".64px"/>
</svg>
