<?xml version="1.0" encoding="UTF-8"?>
<svg width="146.56mm" height="73.829mm" version="1.0" xmlns="http://www.w3.org/2000/svg" xmlns:cc="http://creativecommons.org/ns#" xmlns:dc="http://purl.org/dc/elements/1.1/" xmlns:rdf="http://www.w3.org/1999/02/22-rdf-syntax-ns#">
 <metadata>
  <rdf:RDF>
   <cc:Work rdf:about="">
    <dc:format>image/svg+xml</dc:format>
    <dc:type rdf:resource="http://purl.org/dc/dcmitype/StillImage"/>
    <dc:title/>
   </cc:Work>
  </rdf:RDF>
 </metadata>
 <g fill="#fff">
  <path d="m552 43.84v-21.12h-333.12v21.12h333.12z"/>
  <path d="m552 86.08v-21.12h-333.12v21.44h333.12z"/>
  <path d="m552 128.64v-21.12h-333.12v21.12h333.12z"/>
  <path d="m552 170.88v-21.12h-551.36v21.44h551.36z"/>
  <path d="m552 213.44v-21.12h-551.36v21.12h551.36z"/>
  <path d="m552 256v-21.12h-551.36v21.12h551.36z"/>
 </g>
 <path d="m218.56 149.76 0.32-148.48h-218.24v148.48h218.24z" fill="#002c9e"/>
 <g fill="#fff">
  <path d="m11.84 18.56h5.12l1.6-4.8 1.6 4.8 5.12 0.32-4.16 2.88 1.6 4.8-4.16-3.2-4.16 3.2 1.6-4.8-4.16-3.2z"/>
  <path d="m175.68 32.96h5.12l1.6-4.8 1.6 4.8 5.12 0.32-4.16 2.88 1.28 4.8-3.84-3.2-4.16 2.88 1.6-4.8-4.16-2.88z"/>
  <path d="m139.2 32.96h5.12l1.6-4.8 1.6 4.8 5.12 0.32-4.16 2.88 1.6 4.8-4.16-3.2-4.16 2.88 1.6-4.8-4.16-2.88z"/>
  <path d="m30.08 32.96h5.12l1.6-4.8 1.6 4.8 5.12 0.32-4.16 2.88 1.28 4.8-3.84-3.2-4.16 2.88 1.6-4.8-4.16-2.88z"/>
  <path d="m66.56 32.96h5.12l1.6-4.8 1.6 4.8 5.12 0.32-4.16 2.88 1.28 4.8-4.16-3.2-4.16 2.88 1.92-4.8-4.16-2.88z"/>
  <path d="m102.72 32.96h5.44l1.6-4.8 1.28 4.8 5.12 0.32-4.16 2.88 1.6 4.8-4.16-3.2-4.16 2.88 1.6-4.8-3.84-2.88z"/>
  <path d="m193.92 18.56h5.12l1.6-4.8 1.6 4.8 5.12 0.32-4.16 2.88 1.28 4.8-4.16-3.2-4.16 3.2 1.92-4.8-4.16-3.2z"/>
  <path d="m157.44 18.56h5.12l1.6-4.8 1.6 4.8 5.12 0.32-4.16 2.88 1.28 4.8-3.84-3.2-4.16 3.2 1.6-4.8-4.16-3.2z"/>
  <path d="m120.96 18.56h5.12l1.92-4.8 1.28 4.8 5.12 0.32-4.16 2.88 1.6 4.8-4.16-3.2-4.16 3.2 1.6-4.8-3.84-3.2z"/>
  <path d="m84.48 18.56h5.44l1.6-4.8 1.28 4.8 5.12 0.32-4.16 2.88 1.6 4.8-4.16-3.2-4.16 3.2 1.6-4.8-3.84-3.2z"/>
  <path d="m48.32 18.56h5.12l1.6-4.8 1.6 4.8 5.12 0.32-4.16 2.88 1.28 4.8-3.84-3.2-4.16 3.2 1.6-4.8-4.16-3.2z"/>
  <path d="m11.84 47.04 5.12 0.32 1.6-4.8 1.6 4.8 5.12 0.32-4.16 2.88 1.6 4.8-4.16-3.2-4.16 2.88 1.6-4.8-4.16-2.88z"/>
  <path d="m175.68 61.44 5.12 0.32 1.6-4.8 1.6 4.8h5.12l-4.16 3.2 1.28 4.8-3.84-3.2-4.16 2.88 1.6-4.8-4.16-2.88z"/>
  <path d="m139.2 61.44 5.12 0.32 1.6-4.8 1.6 4.8h5.12l-4.16 3.2 1.6 4.8-4.16-3.2-4.16 2.88 1.6-4.8-4.16-2.88z"/>
  <path d="m30.08 61.44 5.12 0.32 1.6-4.8 1.6 4.8h5.12l-4.16 3.2 1.28 4.8-3.84-3.2-4.16 2.88 1.6-4.8-4.16-2.88z"/>
  <path d="m66.56 61.44 5.12 0.32 1.6-4.8 1.6 4.8h5.12l-4.16 3.2 1.28 4.8-4.16-3.2-4.16 2.88 1.92-4.8-4.16-2.88z"/>
  <path d="m102.72 61.44 5.44 0.32 1.6-4.8 1.28 4.8h5.12l-4.16 3.2 1.6 4.8-4.16-3.2-4.16 2.88 1.6-4.8-3.84-2.88z"/>
  <path d="m193.92 47.04 5.12 0.32 1.6-4.8 1.6 4.8 5.12 0.32-4.16 2.88 1.28 4.8-4.16-3.2-4.16 2.88 1.92-4.8-4.16-2.88z"/>
  <path d="m157.44 47.04 5.12 0.32 1.6-4.8 1.6 4.8 5.12 0.32-4.16 2.88 1.28 4.8-3.84-3.2-4.16 2.88 1.6-4.8-4.16-2.88z"/>
  <path d="m120.96 47.04 5.12 0.32 1.92-4.8 1.28 4.8 5.12 0.32-4.16 2.88 1.6 4.8-4.16-3.2-4.16 2.88 1.6-4.8-3.84-2.88z"/>
  <path d="m84.48 47.04 5.44 0.32 1.6-4.8 1.28 4.8 5.12 0.32-4.16 2.88 1.6 4.8-4.16-3.2-4.16 2.88 1.6-4.8-3.84-2.88z"/>
  <path d="m48.32 47.04 5.12 0.32 1.6-4.8 1.6 4.8 5.12 0.32-4.16 2.88 1.28 4.8-3.84-3.2-4.16 2.88 1.6-4.8-4.16-2.88z"/>
  <path d="m11.84 75.84 5.12 0.32 1.6-4.8 1.6 4.8h5.12l-4.16 2.88 1.6 5.12-4.16-3.2-4.16 2.88 1.6-4.8-4.16-2.88z"/>
  <path d="m175.68 90.24 5.12 0.32 1.6-4.8 1.6 4.8h5.12l-4.16 2.88 1.28 5.12-3.84-3.2-4.16 2.88 1.6-4.8-4.16-3.2z"/>
  <path d="m139.2 90.24 5.12 0.32 1.6-4.8 1.6 4.8h5.12l-4.16 2.88 1.6 5.12-4.16-3.2-4.16 2.88 1.6-4.8-4.16-3.2z"/>
  <path d="m30.08 90.24 5.12 0.32 1.6-4.8 1.6 4.8h5.12l-4.16 2.88 1.28 5.12-3.84-3.2-4.16 2.88 1.6-4.8-4.16-3.2z"/>
  <path d="m66.56 90.24 5.12 0.32 1.6-4.8 1.6 4.8h5.12l-4.16 2.88 1.28 5.12-4.16-3.2-4.16 2.88 1.92-4.8-4.16-3.2z"/>
  <path d="m102.72 90.24 5.44 0.32 1.6-4.8 1.28 4.8h5.12l-4.16 2.88 1.6 5.12-4.16-3.2-4.16 2.88 1.6-4.8-3.84-3.2z"/>
  <path d="m193.92 75.84 5.12 0.32 1.6-4.8 1.6 4.8h5.12l-4.16 2.88 1.28 5.12-4.16-3.2-4.16 2.88 1.92-4.8-4.16-2.88z"/>
  <path d="m157.44 75.84 5.12 0.32 1.6-4.8 1.6 4.8h5.12l-4.16 2.88 1.28 5.12-3.84-3.2-4.16 2.88 1.6-4.8-4.16-2.88z"/>
  <path d="m120.96 75.84 5.12 0.32 1.92-4.8 1.28 4.8h5.12l-4.16 2.88 1.6 5.12-4.16-3.2-4.16 2.88 1.6-4.8-3.84-2.88z"/>
  <path d="m84.48 75.84 5.44 0.32 1.6-4.8 1.28 4.8h5.12l-4.16 2.88 1.6 5.12-4.16-3.2-4.16 2.88 1.6-4.8-3.84-2.88z"/>
  <path d="m48.32 75.84 5.12 0.32 1.6-4.8 1.6 4.8h5.12l-4.16 2.88 1.28 5.12-3.84-3.2-4.16 2.88 1.6-4.8-4.16-2.88z"/>
  <path d="m11.84 102.72 5.12 0.32 1.6-4.8 1.6 4.8h5.12l-4.16 2.88 1.6 4.8-4.16-2.88-4.16 2.88 1.6-4.8-4.16-3.2z"/>
  <path d="m175.68 117.12 5.12 0.32 1.6-4.8 1.6 4.8h5.12l-4.16 2.88 1.28 4.8-3.84-2.88-4.16 2.88 1.6-4.8-4.16-3.2z"/>
  <path d="m139.2 117.12 5.12 0.32 1.6-4.8 1.6 4.8h5.12l-4.16 2.88 1.6 4.8-4.16-2.88-4.16 2.88 1.6-4.8-4.16-3.2z"/>
  <path d="m30.08 117.12 5.12 0.32 1.6-4.8 1.6 4.8h5.12l-4.16 2.88 1.28 4.8-3.84-2.88-4.16 2.88 1.6-4.8-4.16-3.2z"/>
  <path d="m66.56 117.12 5.12 0.32 1.6-4.8 1.6 4.8h5.12l-4.16 2.88 1.28 4.8-4.16-2.88-4.16 2.88 1.92-4.8-4.16-3.2z"/>
  <path d="m102.72 117.12 5.44 0.32 1.6-4.8 1.28 4.8h5.12l-4.16 2.88 1.6 4.8-4.16-2.88-4.16 2.88 1.6-4.8-3.84-3.2z"/>
  <path d="m193.92 102.72 5.12 0.32 1.6-4.8 1.6 4.8h5.12l-4.16 2.88 1.28 4.8-4.16-2.88-4.16 2.88 1.92-4.8-4.16-3.2z"/>
  <path d="m157.44 102.72 5.12 0.32 1.6-4.8 1.6 4.8h5.12l-4.16 2.88 1.28 4.8-3.84-2.88-4.16 2.88 1.6-4.8-4.16-3.2z"/>
  <path d="m120.96 102.72 5.12 0.32 1.92-4.8 1.28 4.8h5.12l-4.16 2.88 1.6 4.8-4.16-2.88-4.16 2.88 1.6-4.8-3.84-3.2z"/>
  <path d="m84.48 102.72 5.44 0.32 1.6-4.8 1.28 4.8h5.12l-4.16 2.88 1.6 4.8-4.16-2.88-4.16 2.88 1.6-4.8-3.84-3.2z"/>
  <path d="m48.32 102.72 5.12 0.32 1.6-4.8 1.6 4.8h5.12l-4.16 2.88 1.28 4.8-3.84-2.88-4.16 2.88 1.6-4.8-4.16-3.2z"/>
  <path d="m11.84 131.52h5.12l1.6-4.8 1.6 5.12h5.12l-4.16 2.88 1.6 4.8-4.16-2.88-4.16 2.88 1.6-4.8-4.16-3.2z"/>
  <path d="m193.92 131.52h5.12l1.6-4.8 1.6 5.12h5.12l-4.16 2.88 1.28 4.8-4.16-2.88-4.16 2.88 1.92-4.8-4.16-3.2z"/>
  <path d="m157.44 131.52h5.12l1.6-4.8 1.6 5.12h5.12l-4.16 2.88 1.28 4.8-3.84-2.88-4.16 2.88 1.6-4.8-4.16-3.2z"/>
  <path d="m120.96 131.52h5.12l1.92-4.8 1.28 5.12h5.12l-4.16 2.88 1.6 4.8-4.16-2.88-4.16 2.88 1.6-4.8-3.84-3.2z"/>
  <path d="m84.48 131.52h5.44l1.6-4.8 1.28 5.12h5.12l-4.16 2.88 1.6 4.8-4.16-2.88-4.16 2.88 1.6-4.8-3.84-3.2z"/>
  <path d="m48.32 131.52h5.12l1.6-4.8 1.6 5.12h5.12l-4.16 2.88 1.28 4.8-3.84-2.88-4.16 2.88 1.6-4.8-4.16-3.2z"/>
 </g>
 <g fill="#e3144f">
  <path d="m218.56 1.28 0.32 21.44h333.12v-21.44h-333.12z"/>
  <path d="m552 64.96v-21.12h-333.12v21.12h333.12z"/>
  <path d="m552 107.2v-20.8h-333.12v21.12h333.12z"/>
  <path d="m552 149.76v-21.12h-333.12v21.12h333.12z"/>
  <path d="m552 192.32v-21.12h-551.36v21.12h551.36z"/>
  <path d="m552 234.56v-21.12h-551.36v21.44h551.36z"/>
  <path d="m552 277.12v-21.12h-551.36v21.12h551.36z"/>
 </g>
 <path d="m552 277.12v-275.84h-551.36v275.84h551.36v0" fill="none" stroke="#000" stroke-linecap="round" stroke-linejoin="round" stroke-width=".64px"/>
</svg>
