<?xml version="1.0" encoding="UTF-8"?>
<svg width="115.15mm" height="84.413mm" version="1.0" xmlns="http://www.w3.org/2000/svg">
 <g fill="#fff">
  <path d="m433.92 316.8v-315.2h-432.64v315.52h432.64z"/>
  <path d="m433.92 30.72v-29.12h-432.64v29.12h432.64z"/>
  <path d="m433.92 287.68v29.44h-432.64v-29.44h432.64z"/>
 </g>
 <path d="m281.6 121.28-42.56 0.32-21.44-37.12-21.44 37.12h-42.56l21.12 36.8-21.44 36.8h42.88l21.44 37.44 21.44-37.44h42.56l-21.12-36.48 21.44-37.12z" fill="#002c9e"/>
 <g fill="#fff">
  <path d="m217.6 108.16 7.68 13.44h-15.36l7.68-13.12z"/>
  <path d="m231.68 132.8 15.04 25.28-15.04 25.92h-28.48l-14.72-25.28 15.04-25.92h28.48z"/>
  <path d="m173.44 132.8h16l-8 14.08-8-14.08z"/>
  <path d="m173.76 184 8-13.44 8 13.44h-15.68z"/>
  <path d="m217.6 208.32-7.68-13.12h15.36l-7.68 13.44z"/>
  <path d="m261.76 184h-16l8-13.76 8 13.76z"/>
  <path d="m245.44 132.8h16l-8 13.76-8-13.76z"/>
 </g>
 <path d="m433.92 79.68v-48.96h-432.64v48.96h432.64z" fill="#002c9e"/>
 <path d="m433.92 238.72v48.96h-432.64v-48.64h432.64z" fill="#002c9e"/>
 <path d="m433.92 316.8v-315.2h-432.64v315.52h432.64v0" fill="none" stroke="#000" stroke-linecap="round" stroke-linejoin="round" stroke-width=".64px"/>
</svg>
